*
*
G04 PADS 9.3.1 Build Number: 456998 generated Gerber (RS-274-X) file*
G04 PC Version=2.1*
*
%IN "DriveControl.pcb"*%
*
%MOIN*%
*
%FSLAX35Y35*%
*
*
*
*
G04 PC Standard Apertures*
*
*
G04 Thermal Relief Aperture macro.*
%AMTER*
1,1,$1,0,0*
1,0,$1-$2,0,0*
21,0,$3,$4,0,0,45*
21,0,$3,$4,0,0,135*
%
*
*
G04 Annular Aperture macro.*
%AMANN*
1,1,$1,0,0*
1,0,$2,0,0*
%
*
*
G04 Odd Aperture macro.*
%AMODD*
1,1,$1,0,0*
1,0,$1-0.005,0,0*
%
*
*
G04 PC Custom Aperture Macros*
*
*
*
*
*
*
G04 PC Aperture Table*
*
%ADD010C,0.001*%
%ADD026C,0.06*%
%ADD037C,0.055*%
%ADD051C,0.07*%
%ADD188C,0.12598*%
%ADD189C,0.024*%
*
*
*
*
G04 PC Circuitry*
G04 Layer Name DriveControl.pcb - circuitry*
%LPD*%
*
*
G04 PC Custom Flashes*
G04 Layer Name DriveControl.pcb - flashes*
%LPD*%
*
*
G04 PC Circuitry*
G04 Layer Name DriveControl.pcb - circuitry*
%LPD*%
*
G54D10*
G54D26*
G01X150520Y223299D03*
Y215425D03*
Y207551D03*
Y199677D03*
Y191803D03*
Y183929D03*
Y176055D03*
Y168181D03*
Y160307D03*
Y152433D03*
X21067Y8508D03*
Y18508D03*
X31067Y8508D03*
Y18508D03*
X41067Y8508D03*
Y18508D03*
X51067Y8508D03*
Y18508D03*
X61067Y8508D03*
Y18508D03*
X71067Y8508D03*
Y18508D03*
X81067Y8508D03*
Y18508D03*
X91067Y8508D03*
Y18508D03*
X101067Y8508D03*
Y18508D03*
X111067Y8508D03*
Y18508D03*
X21067Y242258D03*
Y252258D03*
X31067Y242258D03*
Y252258D03*
X41067Y242258D03*
Y252258D03*
X51067Y242258D03*
Y252258D03*
X61067Y242258D03*
Y252258D03*
X71067Y242258D03*
Y252258D03*
X81067Y242258D03*
Y252258D03*
X91067Y242258D03*
Y252258D03*
X101067Y242258D03*
Y252258D03*
X111067Y242258D03*
Y252258D03*
X237134Y223299D03*
Y215425D03*
Y207551D03*
Y199677D03*
Y191803D03*
Y183929D03*
Y176055D03*
Y168181D03*
Y160307D03*
Y152433D03*
G54D37*
X216693Y10079D03*
X226772Y27717D03*
X211654Y32756D03*
X65512Y40315D03*
X161260Y75591D03*
X231811Y70551D03*
X151181Y105827D03*
X55433Y153701D03*
X95748Y219213D03*
G54D51*
X151181Y17638D03*
X161181D03*
X234331D03*
X224331D03*
G54D188*
X13780Y64961D03*
Y194882D03*
X264567D03*
Y64961D03*
G54D189*
X101067Y8508D02*
X91067Y18508D01*
X111067Y8508D02*
Y18508D01*
X151181Y17638D02*
X101067Y67752D01*
Y242258*
X161181Y17638D02*
Y46950D01*
X161260Y47029*
Y75591*
X216693Y10079D02*
Y194984D01*
X237134Y215425*
X91067Y18508D02*
Y116645D01*
X95748Y121326*
Y219213*
X226772Y27717D02*
Y197388D01*
X233470Y204086*
X233669*
X237134Y207551*
X211654Y32756D02*
Y197819D01*
X237134Y223299*
X65512Y40315D02*
Y138939D01*
X61067Y143384*
Y242258*
X231811Y70551D02*
Y178606D01*
X237134Y183929*
X151181Y105827D02*
Y128342D01*
X155320Y132480*
Y179129*
X150520Y183929*
X55433Y153701D02*
Y195671D01*
X51067Y200037*
Y242258*
X21067D02*
Y252258D01*
X31067Y242258D02*
Y252258D01*
X41067Y242258D02*
Y252258D01*
X51067Y242258D02*
Y252258D01*
X0Y0D02*
M02*
