%
T1C.035F197S550
X002107Y000851
X002107Y001851
X003107Y000851
X003107Y001851
X004107Y000851
X004107Y001851
X005107Y000851
X005107Y001851
X006107Y000851
X006107Y001851
X007107Y000851
X007107Y001851
X008107Y000851
X008107Y001851
X009107Y000851
X009107Y001851
X010107Y000851
X010107Y001851
X011107Y000851
X011107Y001851
X023713Y015243
X023713Y017606
X023713Y016818
X023713Y016031
X015052Y016031
X015052Y015243
X015052Y017606
X015052Y016818
X015052Y019180
X015052Y018393
X015052Y020755
X015052Y019968
X015052Y022330
X015052Y021543
X023713Y019968
X023713Y019180
X023713Y022330
X023713Y021543
X023713Y018393
X023713Y020755
X011107Y024226
X011107Y025226
X010107Y024226
X010107Y025226
X009107Y024226
X009107Y025226
X008107Y024226
X008107Y025226
X007107Y024226
X007107Y025226
X006107Y024226
X006107Y025226
X005107Y024226
X005107Y025226
X004107Y024226
X004107Y025226
X003107Y025226
X003107Y024226
X002107Y025226
X002107Y024226
T2C.037F197S550
X006551Y004031
X016126Y007559
X021165Y003276
X021669Y001008
X022677Y002772
X023181Y007055
X015118Y010583
X009575Y021921
X005543Y015370
T3C.05F107S550
X015118Y001764
X016118Y001764
X022433Y001764
X023433Y001764
T4C.12598F035S794
X001378Y006496
X026457Y006496
X026457Y019488
X001378Y019488
M30
