*
*
G04 PADS 9.3.1 Build Number: 456998 generated Gerber (RS-274-X) file*
G04 PC Version=2.1*
*
%IN "DriveControl.pcb"*%
*
%MOIN*%
*
%FSLAX35Y35*%
*
*
*
*
G04 PC Standard Apertures*
*
*
G04 Thermal Relief Aperture macro.*
%AMTER*
1,1,$1,0,0*
1,0,$1-$2,0,0*
21,0,$3,$4,0,0,45*
21,0,$3,$4,0,0,135*
%
*
*
G04 Annular Aperture macro.*
%AMANN*
1,1,$1,0,0*
1,0,$2,0,0*
%
*
*
G04 Odd Aperture macro.*
%AMODD*
1,1,$1,0,0*
1,0,$1-0.005,0,0*
%
*
*
G04 PC Custom Aperture Macros*
*
*
*
*
*
*
G04 PC Aperture Table*
*
%ADD010C,0.001*%
%ADD051C,0.07*%
%ADD190C,0.08*%
%ADD191C,0.13598*%
*
*
*
*
G04 PC Circuitry*
G04 Layer Name DriveControl.pcb - circuitry*
%LPD*%
*
*
G04 PC Custom Flashes*
G04 Layer Name DriveControl.pcb - flashes*
%LPD*%
*
*
G04 PC Circuitry*
G04 Layer Name DriveControl.pcb - circuitry*
%LPD*%
*
G54D10*
G54D51*
G01X150520Y223299D03*
Y215425D03*
Y207551D03*
Y199677D03*
Y191803D03*
Y183929D03*
Y176055D03*
Y168181D03*
Y160307D03*
Y152433D03*
X21067Y8508D03*
Y18508D03*
X31067Y8508D03*
Y18508D03*
X41067Y8508D03*
Y18508D03*
X51067Y8508D03*
Y18508D03*
X61067Y8508D03*
Y18508D03*
X71067Y8508D03*
Y18508D03*
X81067Y8508D03*
Y18508D03*
X91067Y8508D03*
Y18508D03*
X101067Y8508D03*
Y18508D03*
X111067Y8508D03*
Y18508D03*
X21067Y242258D03*
Y252258D03*
X31067Y242258D03*
Y252258D03*
X41067Y242258D03*
Y252258D03*
X51067Y242258D03*
Y252258D03*
X61067Y242258D03*
Y252258D03*
X71067Y242258D03*
Y252258D03*
X81067Y242258D03*
Y252258D03*
X91067Y242258D03*
Y252258D03*
X101067Y242258D03*
Y252258D03*
X111067Y242258D03*
Y252258D03*
X237134Y223299D03*
Y215425D03*
Y207551D03*
Y199677D03*
Y191803D03*
Y183929D03*
Y176055D03*
Y168181D03*
Y160307D03*
Y152433D03*
G54D190*
X151181Y17638D03*
X161181D03*
X234331D03*
X224331D03*
G54D191*
X13780Y64961D03*
Y194882D03*
X264567D03*
Y64961D03*
X0Y0D02*
M02*
