*
*
G04 PADS 9.3.1 Build Number: 456998 generated Gerber (RS-274-X) file*
G04 PC Version=2.1*
*
%IN "DriveControl.pcb"*%
*
%MOIN*%
*
%FSLAX35Y35*%
*
*
*
*
G04 PC Standard Apertures*
*
*
G04 Thermal Relief Aperture macro.*
%AMTER*
1,1,$1,0,0*
1,0,$1-$2,0,0*
21,0,$3,$4,0,0,45*
21,0,$3,$4,0,0,135*
%
*
*
G04 Annular Aperture macro.*
%AMANN*
1,1,$1,0,0*
1,0,$2,0,0*
%
*
*
G04 Odd Aperture macro.*
%AMODD*
1,1,$1,0,0*
1,0,$1-0.005,0,0*
%
*
*
G04 PC Custom Aperture Macros*
*
*
*
*
*
*
G04 PC Aperture Table*
*
%ADD010C,0.001*%
%ADD011C,0.01*%
%ADD192C,0.00504*%
*
*
*
*
G04 PC Circuitry*
G04 Layer Name DriveControl.pcb - circuitry*
%LPD*%
*
*
G04 PC Custom Flashes*
G04 Layer Name DriveControl.pcb - flashes*
%LPD*%
*
*
G04 PC Circuitry*
G04 Layer Name DriveControl.pcb - circuitry*
%LPD*%
*
G54D10*
G54D11*
G01X159720Y99468D02*
Y105268D01*
X152720*
Y99468*
X159720Y97068D02*
Y91268D01*
X152720*
Y97068*
X159720Y69231D02*
Y75031D01*
X152720*
Y69231*
X159720Y66831D02*
Y61031D01*
X152720*
Y66831*
X149642Y69231D02*
Y75031D01*
X142642*
Y69231*
X149642Y66831D02*
Y61031D01*
X142642*
Y66831*
X149642Y99468D02*
Y105268D01*
X142642*
Y99468*
X149642Y97068D02*
Y91268D01*
X142642*
Y97068*
X159720Y129704D02*
Y135504D01*
X152720*
Y129704*
X159720Y127304D02*
Y121504D01*
X152720*
Y127304*
X149642Y129704D02*
Y135504D01*
X142642*
Y129704*
X149642Y127304D02*
Y121504D01*
X142642*
Y127304*
X139245Y43420D02*
X138790Y44045D01*
X138108Y44358*
X137199*
X136518Y44045*
X136063Y43420*
Y42795*
X136290Y42170*
X136518Y41858*
X136972Y41545*
X138336Y40920*
X138790Y40608*
X139018Y40295*
X139245Y39670*
Y38733*
X138790Y38108*
X138108Y37795*
X137199*
X136518Y38108*
X136063Y38733*
X144018Y42170D02*
Y37795D01*
Y41233D02*
X143563Y41858D01*
X143108Y42170*
X142427*
X141972Y41858*
X141518Y41233*
X141290Y40295*
Y39670*
X141518Y38733*
X141972Y38108*
X142427Y37795*
X143108*
X143563Y38108*
X144018Y38733*
X146063Y44358D02*
Y37795D01*
Y41233D02*
X146518Y41858D01*
X146972Y42170*
X147654*
X148108Y41858*
X148563Y41233*
X148790Y40295*
Y39670*
X148563Y38733*
X148108Y38108*
X147654Y37795*
X146972*
X146518Y38108*
X146063Y38733*
X150836Y40295D02*
X153563D01*
Y40920*
X153336Y41545*
X153108Y41858*
X152654Y42170*
X151972*
X151518Y41858*
X151063Y41233*
X150836Y40295*
Y39670*
X151063Y38733*
X151518Y38108*
X151972Y37795*
X152654*
X153108Y38108*
X153563Y38733*
X155608Y42170D02*
Y37795D01*
Y40295D02*
X155836Y41233D01*
X156290Y41858*
X156745Y42170*
X157427*
X160154Y44358D02*
Y39045D01*
X160381Y38108*
X160836Y37795*
X161290*
X159472Y42170D02*
X161063D01*
X164472D02*
X164018Y41858D01*
X163563Y41233*
X163336Y40295*
Y39670*
X163563Y38733*
X164018Y38108*
X164472Y37795*
X165154*
X165608Y38108*
X166063Y38733*
X166290Y39670*
Y40295*
X166063Y41233*
X165608Y41858*
X165154Y42170*
X164472*
X169472D02*
X169018Y41858D01*
X168563Y41233*
X168336Y40295*
Y39670*
X168563Y38733*
X169018Y38108*
X169472Y37795*
X170154*
X170608Y38108*
X171063Y38733*
X171290Y39670*
Y40295*
X171063Y41233*
X170608Y41858*
X170154Y42170*
X169472*
X174018Y44358D02*
Y39045D01*
X174245Y38108*
X174699Y37795*
X175154*
X173336Y42170D02*
X174927D01*
X177199Y44358D02*
Y37795D01*
Y40920D02*
X177881Y41858D01*
X178336Y42170*
X179018*
X179472Y41858*
X179699Y40920*
Y37795*
X181417Y132547D02*
X184599Y125984D01*
Y132547D02*
X181417Y125984D01*
X186645Y132547D02*
Y125984D01*
Y132547D02*
X188690D01*
X189372Y132234*
X189599Y131922*
X189826Y131297*
Y130672*
X189599Y130047*
X189372Y129734*
X188690Y129422*
X186645D02*
X188690D01*
X189372Y129109*
X189599Y128797*
X189826Y128172*
Y127234*
X189599Y126609*
X189372Y126297*
X188690Y125984*
X186645*
X191872Y128484D02*
X194599D01*
Y129109*
X194372Y129734*
X194145Y130047*
X193690Y130359*
X193008*
X192554Y130047*
X192099Y129422*
X191872Y128484*
Y127859*
X192099Y126922*
X192554Y126297*
X193008Y125984*
X193690*
X194145Y126297*
X194599Y126922*
X196645Y128484D02*
X199372D01*
Y129109*
X199145Y129734*
X198917Y130047*
X198463Y130359*
X197781*
X197326Y130047*
X196872Y129422*
X196645Y128484*
Y127859*
X196872Y126922*
X197326Y126297*
X197781Y125984*
X198463*
X198917Y126297*
X199372Y126922*
X208008Y132547D02*
X207554Y132234D01*
X207099Y131609*
X206872Y130984*
X206645Y130047*
Y128484*
X206872Y127547*
X207099Y126922*
X207554Y126297*
X208008Y125984*
X208917*
X209372Y126297*
X209826Y126922*
X210054Y127547*
X210281Y128484*
Y130047*
X210054Y130984*
X209826Y131609*
X209372Y132234*
X208917Y132547*
X208008*
X212326Y130359D02*
Y125984D01*
Y129109D02*
X213008Y130047D01*
X213463Y130359*
X214145*
X214599Y130047*
X214826Y129109*
Y125984*
X181417Y102311D02*
X184599Y95748D01*
Y102311D02*
X181417Y95748D01*
X186645Y102311D02*
Y95748D01*
Y102311D02*
X188690D01*
X189372Y101998*
X189599Y101686*
X189826Y101061*
Y100436*
X189599Y99811*
X189372Y99498*
X188690Y99186*
X186645D02*
X188690D01*
X189372Y98873*
X189599Y98561*
X189826Y97936*
Y96998*
X189599Y96373*
X189372Y96061*
X188690Y95748*
X186645*
X191872Y98248D02*
X194599D01*
Y98873*
X194372Y99498*
X194145Y99811*
X193690Y100123*
X193008*
X192554Y99811*
X192099Y99186*
X191872Y98248*
Y97623*
X192099Y96686*
X192554Y96061*
X193008Y95748*
X193690*
X194145Y96061*
X194599Y96686*
X196645Y98248D02*
X199372D01*
Y98873*
X199145Y99498*
X198917Y99811*
X198463Y100123*
X197781*
X197326Y99811*
X196872Y99186*
X196645Y98248*
Y97623*
X196872Y96686*
X197326Y96061*
X197781Y95748*
X198463*
X198917Y96061*
X199372Y96686*
X206645Y102311D02*
Y95748D01*
Y102311D02*
X208690D01*
X209372Y101998*
X209599Y101686*
X209826Y101061*
Y100436*
X209599Y99811*
X209372Y99498*
X208690Y99186*
X206645*
X208236D02*
X209826Y95748D01*
X215054Y101373D02*
X214599Y101998D01*
X213917Y102311*
X213008*
X212326Y101998*
X211872Y101373*
Y100748*
X212099Y100123*
X212326Y99811*
X212781Y99498*
X214145Y98873*
X214599Y98561*
X214826Y98248*
X215054Y97623*
Y96686*
X214599Y96061*
X213917Y95748*
X213008*
X212326Y96061*
X211872Y96686*
X220281Y101373D02*
X219826Y101998D01*
X219145Y102311*
X218236*
X217554Y101998*
X217099Y101373*
Y100748*
X217326Y100123*
X217554Y99811*
X218008Y99498*
X219372Y98873*
X219826Y98561*
X220054Y98248*
X220281Y97623*
Y96686*
X219826Y96061*
X219145Y95748*
X218236*
X217554Y96061*
X217099Y96686*
X222326Y102311D02*
Y95748D01*
X181417Y72074D02*
X184599Y65512D01*
Y72074D02*
X181417Y65512D01*
X186645Y72074D02*
Y65512D01*
Y72074D02*
X188690D01*
X189372Y71762*
X189599Y71449*
X189826Y70824*
Y70199*
X189599Y69574*
X189372Y69262*
X188690Y68949*
X186645D02*
X188690D01*
X189372Y68637*
X189599Y68324*
X189826Y67699*
Y66762*
X189599Y66137*
X189372Y65824*
X188690Y65512*
X186645*
X191872Y68012D02*
X194599D01*
Y68637*
X194372Y69262*
X194145Y69574*
X193690Y69887*
X193008*
X192554Y69574*
X192099Y68949*
X191872Y68012*
Y67387*
X192099Y66449*
X192554Y65824*
X193008Y65512*
X193690*
X194145Y65824*
X194599Y66449*
X196645Y68012D02*
X199372D01*
Y68637*
X199145Y69262*
X198917Y69574*
X198463Y69887*
X197781*
X197326Y69574*
X196872Y68949*
X196645Y68012*
Y67387*
X196872Y66449*
X197326Y65824*
X197781Y65512*
X198463*
X198917Y65824*
X199372Y66449*
X208463Y72074D02*
X206645Y65512D01*
X208463Y72074D02*
X210281Y65512D01*
X207326Y67699D02*
X209599D01*
X214826Y68949D02*
X214599Y69574D01*
X213917Y69887*
X213236*
X212554Y69574*
X212326Y68949*
X212554Y68324*
X213008Y68012*
X214145Y67699*
X214599Y67387*
X214826Y66762*
Y66449*
X214599Y65824*
X213917Y65512*
X213236*
X212554Y65824*
X212326Y66449*
X219372Y68949D02*
X219145Y69574D01*
X218463Y69887*
X217781*
X217099Y69574*
X216872Y68949*
X217099Y68324*
X217554Y68012*
X218690Y67699*
X219145Y67387*
X219372Y66762*
Y66449*
X219145Y65824*
X218463Y65512*
X217781*
X217099Y65824*
X216872Y66449*
X222554Y69887D02*
X222099Y69574D01*
X221645Y68949*
X221417Y68012*
Y67387*
X221645Y66449*
X222099Y65824*
X222554Y65512*
X223236*
X223690Y65824*
X224145Y66449*
X224372Y67387*
Y68012*
X224145Y68949*
X223690Y69574*
X223236Y69887*
X222554*
X229145Y68949D02*
X228690Y69574D01*
X228236Y69887*
X227554*
X227099Y69574*
X226645Y68949*
X226417Y68012*
Y67387*
X226645Y66449*
X227099Y65824*
X227554Y65512*
X228236*
X228690Y65824*
X229145Y66449*
X231190Y72074D02*
X231417Y71762D01*
X231645Y72074*
X231417Y72387*
X231190Y72074*
X231417Y69887D02*
Y65512D01*
X236417Y69887D02*
Y65512D01*
Y68949D02*
X235963Y69574D01*
X235508Y69887*
X234826*
X234372Y69574*
X233917Y68949*
X233690Y68012*
Y67387*
X233917Y66449*
X234372Y65824*
X234826Y65512*
X235508*
X235963Y65824*
X236417Y66449*
X239145Y72074D02*
Y66762D01*
X239372Y65824*
X239826Y65512*
X240281*
X238463Y69887D02*
X240054D01*
X242326Y68012D02*
X245054D01*
Y68637*
X244826Y69262*
X244599Y69574*
X244145Y69887*
X243463*
X243008Y69574*
X242554Y68949*
X242326Y68012*
Y67387*
X242554Y66449*
X243008Y65824*
X243463Y65512*
X244145*
X244599Y65824*
X245054Y66449*
X209796Y43420D02*
X209341Y44045D01*
X208660Y44358*
X207751*
X207069Y44045*
X206614Y43420*
Y42795*
X206841Y42170*
X207069Y41858*
X207523Y41545*
X208887Y40920*
X209341Y40608*
X209569Y40295*
X209796Y39670*
Y38733*
X209341Y38108*
X208660Y37795*
X207751*
X207069Y38108*
X206614Y38733*
X212523Y44358D02*
Y39045D01*
X212751Y38108*
X213205Y37795*
X213660*
X211841Y42170D02*
X213432D01*
X218432D02*
Y37795D01*
Y41233D02*
X217978Y41858D01*
X217523Y42170*
X216841*
X216387Y41858*
X215932Y41233*
X215705Y40295*
Y39670*
X215932Y38733*
X216387Y38108*
X216841Y37795*
X217523*
X217978Y38108*
X218432Y38733*
X221160Y44358D02*
Y39045D01*
X221387Y38108*
X221841Y37795*
X222296*
X220478Y42170D02*
X222069D01*
X224341D02*
Y39045D01*
X224569Y38108*
X225023Y37795*
X225705*
X226160Y38108*
X226841Y39045*
Y42170D02*
Y37795D01*
X231387Y41233D02*
X231160Y41858D01*
X230478Y42170*
X229796*
X229114Y41858*
X228887Y41233*
X229114Y40608*
X229569Y40295*
X230705Y39983*
X231160Y39670*
X231387Y39045*
Y38733*
X231160Y38108*
X230478Y37795*
X229796*
X229114Y38108*
X228887Y38733*
X238660Y44358D02*
Y37795D01*
X241387*
X243432Y44358D02*
Y37795D01*
Y44358D02*
X246387D01*
X243432Y41233D02*
X245251D01*
X243432Y37795D02*
X246387D01*
X248432Y44358D02*
Y37795D01*
Y44358D02*
X250023D01*
X250705Y44045*
X251160Y43420*
X251387Y42795*
X251614Y41858*
Y40295*
X251387Y39358*
X251160Y38733*
X250705Y38108*
X250023Y37795*
X248432*
X20157Y155224D02*
Y148661D01*
Y155224D02*
X21748D01*
X22430Y154911*
X22885Y154286*
X23112Y153661*
X23339Y152724*
Y151161*
X23112Y150224*
X22885Y149599*
X22430Y148974*
X21748Y148661*
X20157*
X25385Y153036D02*
Y148661D01*
Y151161D02*
X25612Y152099D01*
X26067Y152724*
X26521Y153036*
X27203*
X29248Y155224D02*
X29476Y154911D01*
X29703Y155224*
X29476Y155536*
X29248Y155224*
X29476Y153036D02*
Y148661D01*
X31748Y153036D02*
X33112Y148661D01*
X34476Y153036D02*
X33112Y148661D01*
X36521Y151161D02*
X39248D01*
Y151786*
X39021Y152411*
X38794Y152724*
X38339Y153036*
X37657*
X37203Y152724*
X36748Y152099*
X36521Y151161*
Y150536*
X36748Y149599*
X37203Y148974*
X37657Y148661*
X38339*
X38794Y148974*
X39248Y149599*
X44703Y153661D02*
X44476Y154286D01*
X44021Y154911*
X43567Y155224*
X42657*
X42203Y154911*
X41748Y154286*
X41521Y153661*
X41294Y152724*
Y151161*
X41521Y150224*
X41748Y149599*
X42203Y148974*
X42657Y148661*
X43567*
X44021Y148974*
X44476Y149599*
X44703Y150224*
X47885Y153036D02*
X47430Y152724D01*
X46976Y152099*
X46748Y151161*
Y150536*
X46976Y149599*
X47430Y148974*
X47885Y148661*
X48567*
X49021Y148974*
X49476Y149599*
X49703Y150536*
Y151161*
X49476Y152099*
X49021Y152724*
X48567Y153036*
X47885*
X51748D02*
Y148661D01*
Y151786D02*
X52430Y152724D01*
X52885Y153036*
X53567*
X54021Y152724*
X54248Y151786*
Y148661*
X56976Y155224D02*
Y149911D01*
X57203Y148974*
X57657Y148661*
X58112*
X56294Y153036D02*
X57885D01*
X60157D02*
Y148661D01*
Y151161D02*
X60385Y152099D01*
X60839Y152724*
X61294Y153036*
X61976*
X65157D02*
X64703Y152724D01*
X64248Y152099*
X64021Y151161*
Y150536*
X64248Y149599*
X64703Y148974*
X65157Y148661*
X65839*
X66294Y148974*
X66748Y149599*
X66976Y150536*
Y151161*
X66748Y152099*
X66294Y152724*
X65839Y153036*
X65157*
X69021Y155224D02*
Y148661D01*
X76294Y155224D02*
Y148661D01*
Y155224D02*
X78339D01*
X79021Y154911*
X79248Y154599*
X79476Y153974*
Y153349*
X79248Y152724*
X79021Y152411*
X78339Y152099*
X76294D02*
X78339D01*
X79021Y151786*
X79248Y151474*
X79476Y150849*
Y149911*
X79248Y149286*
X79021Y148974*
X78339Y148661*
X76294*
X82657Y153036D02*
X82203Y152724D01*
X81748Y152099*
X81521Y151161*
Y150536*
X81748Y149599*
X82203Y148974*
X82657Y148661*
X83339*
X83794Y148974*
X84248Y149599*
X84476Y150536*
Y151161*
X84248Y152099*
X83794Y152724*
X83339Y153036*
X82657*
X89248D02*
Y148661D01*
Y152099D02*
X88794Y152724D01*
X88339Y153036*
X87657*
X87203Y152724*
X86748Y152099*
X86521Y151161*
Y150536*
X86748Y149599*
X87203Y148974*
X87657Y148661*
X88339*
X88794Y148974*
X89248Y149599*
X91294Y153036D02*
Y148661D01*
Y151161D02*
X91521Y152099D01*
X91976Y152724*
X92430Y153036*
X93112*
X97885Y155224D02*
Y148661D01*
Y152099D02*
X97430Y152724D01*
X96976Y153036*
X96294*
X95839Y152724*
X95385Y152099*
X95157Y151161*
Y150536*
X95385Y149599*
X95839Y148974*
X96294Y148661*
X96976*
X97430Y148974*
X97885Y149599*
X105157Y155224D02*
Y148661D01*
Y155224D02*
X107203D01*
X107885Y154911*
X108112Y154599*
X108339Y153974*
Y153349*
X108112Y152724*
X107885Y152411*
X107203Y152099*
X105157*
X106748D02*
X108339Y148661D01*
X110385Y151161D02*
X113112D01*
Y151786*
X112885Y152411*
X112657Y152724*
X112203Y153036*
X111521*
X111067Y152724*
X110612Y152099*
X110385Y151161*
Y150536*
X110612Y149599*
X111067Y148974*
X111521Y148661*
X112203*
X112657Y148974*
X113112Y149599*
X115157Y153036D02*
X116521Y148661D01*
X117885Y153036D02*
X116521Y148661D01*
X125157Y153974D02*
X125612Y154286D01*
X126294Y155224*
Y148661*
X128567Y149286D02*
X128339Y148974D01*
X128567Y148661*
X128794Y148974*
X128567Y149286*
X132203Y155224D02*
X131521Y154911D01*
X131067Y153974*
X130839Y152411*
Y151474*
X131067Y149911*
X131521Y148974*
X132203Y148661*
X132657*
X133339Y148974*
X133794Y149911*
X134021Y151474*
Y152411*
X133794Y153974*
X133339Y154911*
X132657Y155224*
X132203*
X23567Y143583D02*
X23339Y144208D01*
X22885Y144833*
X22430Y145145*
X21521*
X21067Y144833*
X20612Y144208*
X20385Y143583*
X20157Y142645*
Y141083*
X20385Y140145*
X20612Y139520*
X21067Y138895*
X21521Y138583*
X22430*
X22885Y138895*
X23339Y139520*
X23567Y140145*
X25612Y142958D02*
Y138583D01*
Y141083D02*
X25839Y142020D01*
X26294Y142645*
X26748Y142958*
X27430*
X29476Y141083D02*
X32203D01*
Y141708*
X31976Y142333*
X31748Y142645*
X31294Y142958*
X30612*
X30157Y142645*
X29703Y142020*
X29476Y141083*
Y140458*
X29703Y139520*
X30157Y138895*
X30612Y138583*
X31294*
X31748Y138895*
X32203Y139520*
X36976Y142958D02*
Y138583D01*
Y142020D02*
X36521Y142645D01*
X36067Y142958*
X35385*
X34930Y142645*
X34476Y142020*
X34248Y141083*
Y140458*
X34476Y139520*
X34930Y138895*
X35385Y138583*
X36067*
X36521Y138895*
X36976Y139520*
X39703Y145145D02*
Y139833D01*
X39930Y138895*
X40385Y138583*
X40839*
X39021Y142958D02*
X40612D01*
X44021D02*
X43567Y142645D01*
X43112Y142020*
X42885Y141083*
Y140458*
X43112Y139520*
X43567Y138895*
X44021Y138583*
X44703*
X45157Y138895*
X45612Y139520*
X45839Y140458*
Y141083*
X45612Y142020*
X45157Y142645*
X44703Y142958*
X44021*
X47885D02*
Y138583D01*
Y141083D02*
X48112Y142020D01*
X48567Y142645*
X49021Y142958*
X49703*
X51976D02*
X51748Y142645D01*
X51976Y142333*
X52203Y142645*
X51976Y142958*
Y139208D02*
X51748Y138895D01*
X51976Y138583*
X52203Y138895*
X51976Y139208*
X62885Y143583D02*
X62657Y144208D01*
X62203Y144833*
X61748Y145145*
X60839*
X60385Y144833*
X59930Y144208*
X59703Y143583*
X59476Y142645*
Y141083*
X59703Y140145*
X59930Y139520*
X60385Y138895*
X60839Y138583*
X61748*
X62203Y138895*
X62657Y139520*
X62885Y140145*
X66067Y142958D02*
X65612Y142645D01*
X65157Y142020*
X64930Y141083*
Y140458*
X65157Y139520*
X65612Y138895*
X66067Y138583*
X66748*
X67203Y138895*
X67657Y139520*
X67885Y140458*
Y141083*
X67657Y142020*
X67203Y142645*
X66748Y142958*
X66067*
X69930D02*
Y138583D01*
Y141083D02*
X70157Y142020D01*
X70612Y142645*
X71067Y142958*
X71748*
X73794D02*
X74703Y138583D01*
X75612Y142958D02*
X74703Y138583D01*
X75612Y142958D02*
X76521Y138583D01*
X77430Y142958D02*
X76521Y138583D01*
X79476Y145145D02*
X79703Y144833D01*
X79930Y145145*
X79703Y145458*
X79476Y145145*
X79703Y142958D02*
Y138583D01*
X81976Y142958D02*
Y138583D01*
Y141708D02*
X82657Y142645D01*
X83112Y142958*
X83794*
X84248Y142645*
X84476Y141708*
Y138583*
X91748Y145145D02*
Y138583D01*
Y145145D02*
X93794D01*
X94476Y144833*
X94703Y144520*
X94930Y143895*
Y142958*
X94703Y142333*
X94476Y142020*
X93794Y141708*
X91748*
X96976Y141083D02*
X99703D01*
Y141708*
X99476Y142333*
X99248Y142645*
X98794Y142958*
X98112*
X97657Y142645*
X97203Y142020*
X96976Y141083*
Y140458*
X97203Y139520*
X97657Y138895*
X98112Y138583*
X98794*
X99248Y138895*
X99703Y139520*
X101748Y142958D02*
Y138583D01*
Y141083D02*
X101976Y142020D01*
X102430Y142645*
X102885Y142958*
X103567*
X105612D02*
Y138583D01*
Y141083D02*
X105839Y142020D01*
X106294Y142645*
X106748Y142958*
X107430*
X109476Y141083D02*
X112203D01*
Y141708*
X111976Y142333*
X111748Y142645*
X111294Y142958*
X110612*
X110157Y142645*
X109703Y142020*
X109476Y141083*
Y140458*
X109703Y139520*
X110157Y138895*
X110612Y138583*
X111294*
X111748Y138895*
X112203Y139520*
X114248Y142958D02*
Y138583D01*
Y141708D02*
X114930Y142645D01*
X115385Y142958*
X116067*
X116521Y142645*
X116748Y141708*
Y138583*
X22430Y135066D02*
X20157Y130691D01*
X23567*
X22430Y135066D02*
Y128504D01*
X29703Y136316D02*
X25612Y126316D01*
X34476Y134129D02*
X34248Y134754D01*
X33567Y135066*
X33112*
X32430Y134754*
X31976Y133816*
X31748Y132254*
Y130691*
X31976Y129441*
X32430Y128816*
X33112Y128504*
X33339*
X34021Y128816*
X34476Y129441*
X34703Y130379*
Y130691*
X34476Y131629*
X34021Y132254*
X33339Y132566*
X33112*
X32430Y132254*
X31976Y131629*
X31748Y130691*
X40839Y136316D02*
X36748Y126316D01*
X43112Y133504D02*
Y133816D01*
X43339Y134441*
X43567Y134754*
X44021Y135066*
X44930*
X45385Y134754*
X45612Y134441*
X45839Y133816*
Y133191*
X45612Y132566*
X45157Y131629*
X42885Y128504*
X46067*
X49476Y135066D02*
X48794Y134754D01*
X48339Y133816*
X48112Y132254*
Y131316*
X48339Y129754*
X48794Y128816*
X49476Y128504*
X49930*
X50612Y128816*
X51067Y129754*
X51294Y131316*
Y132254*
X51067Y133816*
X50612Y134754*
X49930Y135066*
X49476*
X53339Y133816D02*
X53794Y134129D01*
X54476Y135066*
Y128504*
X58794Y135066D02*
X56521Y130691D01*
X59930*
X58794Y135066D02*
Y128504D01*
X21521Y165303D02*
X21067Y164990D01*
X20612Y164365*
X20385Y163740*
X20157Y162803*
Y161240*
X20385Y160303*
X20612Y159678*
X21067Y159053*
X21521Y158740*
X22430*
X22885Y159053*
X23339Y159678*
X23567Y160303*
X23794Y161240*
Y162803*
X23567Y163740*
X23339Y164365*
X22885Y164990*
X22430Y165303*
X21521*
X25839Y163115D02*
Y158740D01*
Y161240D02*
X26067Y162178D01*
X26521Y162803*
X26976Y163115*
X27657*
X29703Y161240D02*
X32430D01*
Y161865*
X32203Y162490*
X31976Y162803*
X31521Y163115*
X30839*
X30385Y162803*
X29930Y162178*
X29703Y161240*
Y160615*
X29930Y159678*
X30385Y159053*
X30839Y158740*
X31521*
X31976Y159053*
X32430Y159678*
X37203Y163115D02*
Y158115D01*
X36976Y157178*
X36748Y156865*
X36294Y156553*
X35612*
X35157Y156865*
X37203Y162178D02*
X36748Y162803D01*
X36294Y163115*
X35612*
X35157Y162803*
X34703Y162178*
X34476Y161240*
Y160615*
X34703Y159678*
X35157Y159053*
X35612Y158740*
X36294*
X36748Y159053*
X37203Y159678*
X40385Y163115D02*
X39930Y162803D01*
X39476Y162178*
X39248Y161240*
Y160615*
X39476Y159678*
X39930Y159053*
X40385Y158740*
X41067*
X41521Y159053*
X41976Y159678*
X42203Y160615*
Y161240*
X41976Y162178*
X41521Y162803*
X41067Y163115*
X40385*
X44248D02*
Y158740D01*
Y161865D02*
X44930Y162803D01*
X45385Y163115*
X46067*
X46521Y162803*
X46748Y161865*
Y158740*
X57203Y164365D02*
X56748Y164990D01*
X56067Y165303*
X55157*
X54476Y164990*
X54021Y164365*
Y163740*
X54248Y163115*
X54476Y162803*
X54930Y162490*
X56294Y161865*
X56748Y161553*
X56976Y161240*
X57203Y160615*
Y159678*
X56748Y159053*
X56067Y158740*
X55157*
X54476Y159053*
X54021Y159678*
X59930Y165303D02*
Y159990D01*
X60157Y159053*
X60612Y158740*
X61067*
X59248Y163115D02*
X60839D01*
X65839D02*
Y158740D01*
Y162178D02*
X65385Y162803D01*
X64930Y163115*
X64248*
X63794Y162803*
X63339Y162178*
X63112Y161240*
Y160615*
X63339Y159678*
X63794Y159053*
X64248Y158740*
X64930*
X65385Y159053*
X65839Y159678*
X68567Y165303D02*
Y159990D01*
X68794Y159053*
X69248Y158740*
X69703*
X67885Y163115D02*
X69476D01*
X71748Y161240D02*
X74476D01*
Y161865*
X74248Y162490*
X74021Y162803*
X73567Y163115*
X72885*
X72430Y162803*
X71976Y162178*
X71748Y161240*
Y160615*
X71976Y159678*
X72430Y159053*
X72885Y158740*
X73567*
X74021Y159053*
X74476Y159678*
X81748Y165303D02*
Y158740D01*
Y165303D02*
X83567Y158740D01*
X85385Y165303D02*
X83567Y158740D01*
X85385Y165303D02*
Y158740D01*
X90157Y163115D02*
Y158740D01*
Y162178D02*
X89703Y162803D01*
X89248Y163115*
X88567*
X88112Y162803*
X87657Y162178*
X87430Y161240*
Y160615*
X87657Y159678*
X88112Y159053*
X88567Y158740*
X89248*
X89703Y159053*
X90157Y159678*
X92203Y163115D02*
Y158740D01*
Y161240D02*
X92430Y162178D01*
X92885Y162803*
X93339Y163115*
X94021*
X98567Y162178D02*
X98339Y162803D01*
X97657Y163115*
X96976*
X96294Y162803*
X96067Y162178*
X96294Y161553*
X96748Y161240*
X97885Y160928*
X98339Y160615*
X98567Y159990*
Y159678*
X98339Y159053*
X97657Y158740*
X96976*
X96294Y159053*
X96067Y159678*
X105839Y165303D02*
Y158740D01*
Y165303D02*
X107885D01*
X108567Y164990*
X108794Y164678*
X109021Y164053*
Y163428*
X108794Y162803*
X108567Y162490*
X107885Y162178*
X105839*
X107430D02*
X109021Y158740D01*
X112203Y163115D02*
X111748Y162803D01*
X111294Y162178*
X111067Y161240*
Y160615*
X111294Y159678*
X111748Y159053*
X112203Y158740*
X112885*
X113339Y159053*
X113794Y159678*
X114021Y160615*
Y161240*
X113794Y162178*
X113339Y162803*
X112885Y163115*
X112203*
X116067D02*
X117430Y158740D01*
X118794Y163115D02*
X117430Y158740D01*
X120839Y161240D02*
X123567D01*
Y161865*
X123339Y162490*
X123112Y162803*
X122657Y163115*
X121976*
X121521Y162803*
X121067Y162178*
X120839Y161240*
Y160615*
X121067Y159678*
X121521Y159053*
X121976Y158740*
X122657*
X123112Y159053*
X123567Y159678*
X125612Y163115D02*
Y158740D01*
Y161240D02*
X125839Y162178D01*
X126294Y162803*
X126748Y163115*
X127430*
X142520Y235433D02*
X162520Y255433D01*
X222520*
X242520Y235433*
X142520*
X162520Y145433D02*
X222520D01*
G54D192*
X153701Y111654D02*
Y108346D01*
Y111654D02*
X154503D01*
X154846Y111496*
X155075Y111181*
X155190Y110866*
X155304Y110394*
Y109606*
X155190Y109134*
X155075Y108819*
X154846Y108504*
X154503Y108346*
X153701*
X156335Y111024D02*
X156564Y111181D01*
X156908Y111654*
Y108346*
X153701Y81417D02*
Y78110D01*
Y81417D02*
X154503D01*
X154846Y81260*
X155075Y80945*
X155190Y80630*
X155304Y80157*
Y79370*
X155190Y78898*
X155075Y78583*
X154846Y78268*
X154503Y78110*
X153701*
X156450Y80630D02*
Y80787D01*
X156564Y81102*
X156679Y81260*
X156908Y81417*
X157366*
X157595Y81260*
X157709Y81102*
X157824Y80787*
Y80472*
X157709Y80157*
X157480Y79685*
X156335Y78110*
X157938*
X143622Y81417D02*
Y78110D01*
Y81417D02*
X144653D01*
X144996Y81260*
X145111Y81102*
X145225Y80787*
Y80472*
X145111Y80157*
X144996Y80000*
X144653Y79843*
X143622*
X144424D02*
X145225Y78110D01*
X146371Y80630D02*
Y80787D01*
X146485Y81102*
X146600Y81260*
X146829Y81417*
X147287*
X147516Y81260*
X147631Y81102*
X147745Y80787*
Y80472*
X147631Y80157*
X147402Y79685*
X146256Y78110*
X147860*
X143622Y111654D02*
Y108346D01*
Y111654D02*
X144653D01*
X144996Y111496*
X145111Y111339*
X145225Y111024*
Y110709*
X145111Y110394*
X144996Y110236*
X144653Y110079*
X143622*
X144424D02*
X145225Y108346D01*
X146256Y111024D02*
X146485Y111181D01*
X146829Y111654*
Y108346*
X153701Y141890D02*
Y138583D01*
Y141890D02*
X154503D01*
X154846Y141732*
X155075Y141417*
X155190Y141102*
X155304Y140630*
Y139843*
X155190Y139370*
X155075Y139055*
X154846Y138740*
X154503Y138583*
X153701*
X156564Y141890D02*
X157824D01*
X157137Y140630*
X157480*
X157709Y140472*
X157824Y140315*
X157938Y139843*
Y139528*
X157824Y139055*
X157595Y138740*
X157251Y138583*
X156908*
X156564Y138740*
X156450Y138898*
X156335Y139213*
X143622Y141890D02*
Y138583D01*
Y141890D02*
X144653D01*
X144996Y141732*
X145111Y141575*
X145225Y141260*
Y140945*
X145111Y140630*
X144996Y140472*
X144653Y140315*
X143622*
X144424D02*
X145225Y138583D01*
X146485Y141890D02*
X147745D01*
X147058Y140630*
X147402*
X147631Y140472*
X147745Y140315*
X147860Y139843*
Y139528*
X147745Y139055*
X147516Y138740*
X147173Y138583*
X146829*
X146485Y138740*
X146371Y138898*
X146256Y139213*
X162978Y32756D02*
X162863Y33071D01*
X162634Y33386*
X162405Y33543*
X161947*
X161718Y33386*
X161489Y33071*
X161374Y32756*
X161260Y32283*
Y31496*
X161374Y31024*
X161489Y30709*
X161718Y30394*
X161947Y30236*
X162405*
X162634Y30394*
X162863Y30709*
X162978Y31024*
Y31496*
X162405D02*
X162978D01*
X149463Y33543D02*
Y30236D01*
X148661Y33543D02*
X150265D01*
X151296D02*
X152899Y30236D01*
Y33543D02*
X151296Y30236D01*
X223450Y32756D02*
X223336Y33071D01*
X223107Y33386*
X222878Y33543*
X222419*
X222190Y33386*
X221961Y33071*
X221847Y32756*
X221732Y32283*
Y31496*
X221847Y31024*
X221961Y30709*
X222190Y30394*
X222419Y30236*
X222878*
X223107Y30394*
X223336Y30709*
X223450Y31024*
Y31496*
X222878D02*
X223450D01*
X232842Y33071D02*
Y30236D01*
X231811Y31654D02*
X233873D01*
X0Y0D02*
M02*
