*
*
G04 PADS 9.3.1 Build Number: 456998 generated Gerber (RS-274-X) file*
G04 PC Version=2.1*
*
%IN "DriveFeedback.pcb"*%
*
%MOIN*%
*
%FSLAX35Y35*%
*
*
*
*
G04 PC Standard Apertures*
*
*
G04 Thermal Relief Aperture macro.*
%AMTER*
1,1,$1,0,0*
1,0,$1-$2,0,0*
21,0,$3,$4,0,0,45*
21,0,$3,$4,0,0,135*
%
*
*
G04 Annular Aperture macro.*
%AMANN*
1,1,$1,0,0*
1,0,$2,0,0*
%
*
*
G04 Odd Aperture macro.*
%AMODD*
1,1,$1,0,0*
1,0,$1-0.005,0,0*
%
*
*
G04 PC Custom Aperture Macros*
*
*
*
*
*
*
G04 PC Aperture Table*
*
%ADD010C,0.001*%
%ADD026C,0.06*%
%ADD037C,0.055*%
%ADD051C,0.07*%
%ADD168C,0.04331*%
%ADD169C,0.11024*%
%ADD175C,0.11417*%
%ADD193C,0.12598*%
%ADD194C,0.012*%
*
*
*
*
G04 PC Circuitry*
G04 Layer Name DriveFeedback.pcb - circuitry*
%LPD*%
*
*
G04 PC Custom Flashes*
G04 Layer Name DriveFeedback.pcb - flashes*
%LPD*%
*
*
G04 PC Circuitry*
G04 Layer Name DriveFeedback.pcb - circuitry*
%LPD*%
*
G54D10*
G54D26*
G01X10157Y106339D03*
X20157D03*
X10157Y96339D03*
X20157D03*
X10157Y86339D03*
X20157D03*
X152362Y91417D03*
Y101417D03*
Y111417D03*
G54D37*
X44094Y25197D03*
X69291Y27717D03*
X76850Y22677D03*
X59213Y46614D03*
X57953Y74331D03*
X73071Y73071D03*
X49134Y83150D03*
X57953D03*
X74331Y86929D03*
X75591Y80630D03*
X45354Y95748D03*
X51654D03*
X74331D03*
X91969D03*
X90709Y89449D03*
X28976Y100787D03*
X30236Y108346D03*
X75591Y103307D03*
X109606D03*
X103307Y108346D03*
X75591Y110866D03*
X41575Y124724D03*
X55433Y123465D03*
X105827Y125984D03*
X128504Y137323D03*
X31496Y139843D03*
Y146142D03*
X40315D03*
X75591Y139843D03*
X136063Y142362D03*
X32756Y156220D03*
X52913Y151181D03*
X23937Y160000D03*
X91969Y167559D03*
X50394Y177638D03*
X45354Y172598D03*
X146142Y182677D03*
X64252Y192756D03*
X28976Y205354D03*
X51654D03*
X65512Y199055D03*
X79370Y202835D03*
X74331Y207874D03*
X86929Y206614D03*
X120945Y204094D03*
X3780Y215433D03*
X23937Y210394D03*
X47874Y211654D03*
X94488Y214173D03*
X35276Y224252D03*
X105827Y219213D03*
X102047Y224252D03*
X18898Y238110D03*
X50394Y236850D03*
X66772Y234331D03*
X22677Y243150D03*
X28976Y240630D03*
X35276D03*
X7559Y251969D03*
X79370Y253228D03*
X105827Y250709D03*
X141102Y251969D03*
G54D51*
X152362Y167598D03*
Y157598D03*
Y147598D03*
Y137598D03*
X121890Y15236D03*
X131890D03*
X141890D03*
X151890D03*
G54D168*
X34016Y35276D03*
X29291Y32126D03*
X34016Y28976D03*
X29291Y25827D03*
X34016Y22677D03*
G54D169*
X18858Y17165D03*
Y40787D03*
G54D175*
X91417Y243780D03*
X113071D03*
G54D193*
X13780Y64961D03*
Y194882D03*
X153543D03*
Y64961D03*
G54D194*
X131890Y15236D02*
Y74962D01*
X128504Y78347*
Y137323*
X141890Y15236D02*
Y59640D01*
X136063Y65467*
Y142362*
X44094Y25197D02*
Y87117D01*
X45354Y88377*
Y95748*
X69291Y27717D02*
Y36535D01*
X59213Y46614*
X76850Y22677D02*
Y48946D01*
X80081Y52176*
X29291Y32126D02*
Y66007D01*
X28976Y66322*
Y100787*
X34016Y28976D02*
X37381Y32342D01*
Y101202*
X80081Y52176D02*
Y98817D01*
X75591Y103307*
X54003Y78281D02*
Y88648D01*
X55604Y90249*
X57953Y74331D02*
X54003Y78281D01*
X73071Y73071D02*
X64252Y81890D01*
Y181302*
X51654Y193900*
Y205354*
X10157Y86339D02*
X14528Y90709D01*
X20467*
X24357Y94599*
Y131854*
X49134Y83150D02*
Y88189D01*
X51654Y90709*
Y95748*
X57953Y83150D02*
Y103749D01*
X59383Y105179*
X75317Y80903D02*
X78281Y83867D01*
Y88565*
X75507Y91339*
X73154*
X69841Y94652*
X74331Y86929D02*
X68031Y93228D01*
Y182547*
X64252Y186327*
Y192756*
X75591Y80630D02*
X75317Y80903D01*
X10157Y96339D02*
X3780Y102717D01*
Y215433*
X20157Y96339D02*
X15957Y100539D01*
X55604Y90249D02*
Y108364D01*
X55433Y108535*
Y123465*
X51654Y95748D02*
Y110678D01*
X51483Y110848*
Y135451*
X69841Y94652D02*
Y220392D01*
X70722Y221273*
X74331Y95748D02*
X71641Y98644D01*
X91969Y95748D02*
Y167559D01*
X90709Y89449D02*
X86929Y93228D01*
Y206614*
X152362Y91417D02*
X141102Y102677D01*
Y251969*
X10157Y106339D02*
Y149112D01*
X6130Y153140*
Y205124*
X15957Y100539D02*
Y171924D01*
X21429Y177396*
X37381Y101202D02*
X30236Y108346D01*
X59383Y105179D02*
Y182250D01*
X47704Y193930*
X71641Y98644D02*
Y121404D01*
X80630Y130394*
X109606Y103307D02*
Y115717D01*
X109777Y115888*
X103307Y108346D02*
Y117607D01*
X101877Y119037*
X75591Y110866D02*
X83320Y118596D01*
Y204554*
X109777Y115888D02*
Y229706D01*
X105827Y233656*
Y250709*
X41575Y124724D02*
Y135245D01*
X45354Y139024*
Y172598*
X101877Y119037D02*
Y224252D01*
X102047*
X105827Y125984D02*
Y219213D01*
X24357Y131854D02*
X23937Y132274D01*
Y160000*
X51483Y135451D02*
X52913Y136881D01*
Y151181*
X80630Y130394D02*
Y169007D01*
X79370Y170267*
Y202835*
X152362Y137598D02*
X146142Y143819D01*
Y182677*
X27546Y143793D02*
Y157310D01*
X28976Y158740*
Y205354*
X31496Y139843D02*
X27546Y143793D01*
X31496Y146142D02*
X36706Y151352D01*
X40315Y146142D02*
Y228220D01*
X35276Y233259*
Y240630*
X75591Y139843D02*
Y172410D01*
X74331Y173670*
Y207874*
X36706Y151352D02*
Y188364D01*
X35276Y189794*
Y224252*
X32756Y156220D02*
Y181859D01*
X32926Y182030*
X52913Y151181D02*
Y163150D01*
X50394Y165669*
Y177638*
X23937Y160000D02*
Y210394D01*
X21429Y177396D02*
Y202683D01*
X18898Y205214*
Y238110*
X45354Y172598D02*
Y192568D01*
X43924Y193998*
X32926Y182030D02*
Y214003D01*
X28976Y217953*
Y240630*
X43924Y193998D02*
Y219860D01*
X50394Y226330*
Y236850*
X47704Y193930D02*
Y207262D01*
X47874Y207432*
Y211654*
X6130Y205124D02*
X7730Y206723D01*
Y232459*
X65512Y199055D02*
Y216063D01*
X66772Y217323*
Y234331*
X83320Y204554D02*
X79370Y208504D01*
Y253228*
X120945Y204094D02*
Y218521D01*
X113071Y226395*
Y243780*
X94488Y214173D02*
Y225962D01*
X91417Y229032*
Y243780*
X70722Y221273D02*
Y235967D01*
X61019Y245669*
X7730Y232459D02*
X7559Y232629D01*
Y251969*
X22677Y243150D02*
X25744Y245669D01*
X61019*
X0Y0D02*
M02*
