%
T1C.02756F197S550
X002929Y003213
X002929Y002583
X003402Y002898
X003402Y003528
X003402Y002268
T2C.035F197S550
X001016Y008634
X002016Y008634
X015236Y009142
X015236Y010142
X015236Y011142
X002016Y010634
X002016Y009634
X001016Y009634
X001016Y010634
T3C.037F197S550
X004409Y002520
X005921Y004661
X006929Y002772
X007685Y002268
X009071Y008945
X007559Y008063
X007433Y008693
X007307Y007307
X005795Y008315
X005795Y007433
X004913Y008315
X002898Y010079
X003024Y010835
X004535Y009575
X005165Y009575
X007433Y009575
X007559Y010331
X007559Y011087
X009197Y009575
X010331Y010835
X010961Y010331
X012850Y013732
X010583Y012598
X007559Y013984
X005543Y012346
X004157Y012472
X003150Y013984
X002394Y016000
X003150Y014614
X003276Y015622
X004031Y014614
X005291Y015118
X013606Y014236
X014614Y018268
X012094Y020409
X009449Y021417
X009197Y016756
X008693Y020661
X007937Y020283
X007433Y020787
X006551Y019906
X006425Y019276
X005165Y020535
X005039Y017764
X004787Y021165
X004535Y017260
X002898Y020535
X002394Y021039
X000378Y021543
X001890Y023811
X003528Y022425
X005039Y023685
X006677Y023433
X010205Y022425
X010583Y021921
X014110Y025197
X010583Y025071
X007937Y025323
X003528Y024063
X002898Y024063
X002268Y024315
X000756Y025197
T4C.05F107S550
X012189Y001524
X013189Y001524
X014189Y001524
X015189Y001524
X015236Y013760
X015236Y015760
X015236Y014760
X015236Y016760
T5C.0748F081S550
X001886Y001717
X001886Y004079
X011307Y024378
X009142Y024378
T6C.12598F035S794
X001378Y006496
X015354Y006496
X015354Y019488
X001378Y019488
M30
