*
*
G04 PADS 9.3.1 Build Number: 456998 generated Gerber (RS-274-X) file*
G04 PC Version=2.1*
*
%IN "DriveFeedback.pcb"*%
*
%MOIN*%
*
%FSLAX35Y35*%
*
*
*
*
G04 PC Standard Apertures*
*
*
G04 Thermal Relief Aperture macro.*
%AMTER*
1,1,$1,0,0*
1,0,$1-$2,0,0*
21,0,$3,$4,0,0,45*
21,0,$3,$4,0,0,135*
%
*
*
G04 Annular Aperture macro.*
%AMANN*
1,1,$1,0,0*
1,0,$2,0,0*
%
*
*
G04 Odd Aperture macro.*
%AMODD*
1,1,$1,0,0*
1,0,$1-0.005,0,0*
%
*
*
G04 PC Custom Aperture Macros*
*
*
*
*
*
*
G04 PC Aperture Table*
*
%ADD010C,0.001*%
%ADD042R,0.048X0.04*%
%ADD048R,0.04X0.048*%
%ADD051C,0.07*%
%ADD053R,0.07X0.07*%
%ADD054R,0.06118X0.09268*%
%ADD059R,0.08087X0.02772*%
%ADD163R,0.06906X0.03165*%
%ADD164R,0.03165X0.06906*%
%ADD178C,0.05331*%
%ADD179C,0.12024*%
%ADD184C,0.12417*%
%ADD195R,0.06512X0.02575*%
%ADD196R,0.08087X0.04937*%
%ADD197R,0.07X0.11*%
%ADD198C,0.08*%
%ADD199C,0.13598*%
%ADD200R,0.08087X0.03362*%
%ADD201R,0.06709X0.02575*%
*
*
*
*
G04 PC Circuitry*
G04 Layer Name DriveFeedback.pcb - circuitry*
%LPD*%
*
*
G04 PC Custom Flashes*
G04 Layer Name DriveFeedback.pcb - flashes*
%LPD*%
*
*
G04 PC Circuitry*
G04 Layer Name DriveFeedback.pcb - circuitry*
%LPD*%
*
G54D10*
G54D42*
G01X119950Y48189D03*
X113750D03*
X47687Y10157D03*
X53887D03*
Y20315D03*
X47687D03*
X58966Y116811D03*
X52766D03*
X119950Y38228D03*
X113750D03*
X98514Y48189D03*
X104714D03*
X98514Y38228D03*
X104714D03*
X53887Y50787D03*
X47687D03*
X53887Y40630D03*
X47687D03*
X53887Y30472D03*
X47687D03*
X53887Y60945D03*
X47687D03*
X113750Y57953D03*
X119950D03*
X98514D03*
X104714D03*
G54D48*
X55866Y246880D03*
Y240680D03*
X45709Y135147D03*
Y128947D03*
X55866Y135147D03*
Y128947D03*
X66024Y135147D03*
Y128947D03*
X71102Y189892D03*
Y196092D03*
Y174656D03*
Y180856D03*
G54D51*
X10157Y106339D03*
X20157D03*
X10157Y96339D03*
X20157D03*
X10157Y86339D03*
X152362Y91417D03*
Y101417D03*
Y111417D03*
G54D53*
X20157Y86339D03*
G54D54*
X27953Y131772D03*
Y167598D03*
X10157Y131772D03*
Y167598D03*
G54D59*
X65630Y72815D03*
Y75374D03*
Y77933D03*
Y80492D03*
Y83051D03*
Y85610D03*
Y88169D03*
Y90728D03*
Y93287D03*
Y95846D03*
Y98406D03*
Y100965D03*
Y103524D03*
Y106083D03*
X37677D03*
Y103524D03*
Y100965D03*
Y98406D03*
Y95846D03*
Y93287D03*
Y90728D03*
Y88169D03*
Y85610D03*
Y83051D03*
Y80492D03*
Y77933D03*
Y75374D03*
Y72815D03*
G54D163*
X42598Y222756D03*
Y225906D03*
Y229055D03*
Y232205D03*
Y235354D03*
Y238504D03*
Y241654D03*
Y244803D03*
X9134D03*
Y241654D03*
Y238504D03*
Y235354D03*
Y232205D03*
Y229055D03*
Y225906D03*
Y222756D03*
G54D164*
X36890Y250512D03*
X33740D03*
X30591D03*
X27441D03*
X24291D03*
X21142D03*
X17992D03*
X14843D03*
Y217047D03*
X17992D03*
X21142D03*
X24291D03*
X27441D03*
X30591D03*
X33740D03*
X36890D03*
G54D178*
X34016Y35276D03*
X29291Y32126D03*
X34016Y28976D03*
X29291Y25827D03*
X34016Y22677D03*
G54D179*
X18858Y17165D03*
Y40787D03*
G54D184*
X91417Y243780D03*
X113071D03*
G54D195*
X70354Y248740D03*
Y244016D03*
Y239291D03*
G54D196*
X86339Y213307D03*
Y173307D03*
X129724Y213307D03*
Y203307D03*
Y183307D03*
Y173307D03*
G54D197*
X159112Y218386D03*
X145612D03*
G54D198*
X152362Y167598D03*
Y157598D03*
Y147598D03*
Y137598D03*
X121890Y15236D03*
X131890D03*
X141890D03*
X151890D03*
G54D199*
X13780Y64961D03*
Y194882D03*
X153543D03*
Y64961D03*
G54D200*
X120472Y79311D03*
Y84311D03*
Y89311D03*
Y94311D03*
Y99311D03*
Y104311D03*
Y109311D03*
Y114311D03*
Y119311D03*
Y124311D03*
Y129311D03*
Y134311D03*
Y139311D03*
Y144311D03*
Y149311D03*
Y154311D03*
X82677D03*
Y149311D03*
Y144311D03*
Y139311D03*
Y134311D03*
Y129311D03*
Y124311D03*
Y119311D03*
Y114311D03*
Y109311D03*
Y104311D03*
Y99311D03*
Y94311D03*
Y89311D03*
Y84311D03*
Y79311D03*
G54D201*
X69941Y22913D03*
Y20354D03*
Y17795D03*
Y15236D03*
Y12677D03*
Y10118D03*
Y7559D03*
X92579D03*
Y10118D03*
Y12677D03*
Y15236D03*
Y17795D03*
Y20354D03*
Y22913D03*
X0Y0D02*
M02*
