*
*
G04 PADS 9.3.1 Build Number: 456998 generated Gerber (RS-274-X) file*
G04 PC Version=2.1*
*
%IN "DriveFeedback.pcb"*%
*
%MOIN*%
*
%FSLAX35Y35*%
*
*
*
*
G04 PC Standard Apertures*
*
*
G04 Thermal Relief Aperture macro.*
%AMTER*
1,1,$1,0,0*
1,0,$1-$2,0,0*
21,0,$3,$4,0,0,45*
21,0,$3,$4,0,0,135*
%
*
*
G04 Annular Aperture macro.*
%AMANN*
1,1,$1,0,0*
1,0,$2,0,0*
%
*
*
G04 Odd Aperture macro.*
%AMODD*
1,1,$1,0,0*
1,0,$1-0.005,0,0*
%
*
*
G04 PC Custom Aperture Macros*
*
*
*
*
*
*
G04 PC Aperture Table*
*
%ADD010C,0.001*%
%ADD011C,0.01*%
%ADD040C,0.00787*%
%ADD202C,0.00504*%
%ADD203C,0.00504*%
*
*
*
*
G04 PC Circuitry*
G04 Layer Name DriveFeedback.pcb - circuitry*
%LPD*%
*
*
G04 PC Custom Flashes*
G04 Layer Name DriveFeedback.pcb - flashes*
%LPD*%
*
*
G04 PC Circuitry*
G04 Layer Name DriveFeedback.pcb - circuitry*
%LPD*%
*
G54D10*
G54D11*
G01X59366Y244980D02*
Y250780D01*
X52366*
Y244980*
X59366Y242580D02*
Y236780D01*
X52366*
Y242580*
X49209Y133247D02*
Y139047D01*
X42209*
Y133247*
X49209Y130847D02*
Y125047D01*
X42209*
Y130847*
X118050Y44689D02*
X123850D01*
Y51689*
X118050*
X115650Y44689D02*
X109850D01*
Y51689*
X115650*
X49587Y13657D02*
X43787D01*
Y6657*
X49587*
X51987Y13657D02*
X57787D01*
Y6657*
X51987*
Y16815D02*
X57787D01*
Y23815*
X51987*
X49587Y16815D02*
X43787D01*
Y23815*
X49587*
X57066Y113311D02*
X62866D01*
Y120311*
X57066*
X54666Y113311D02*
X48866D01*
Y120311*
X54666*
X59366Y133247D02*
Y139047D01*
X52366*
Y133247*
X59366Y130847D02*
Y125047D01*
X52366*
Y130847*
X69524Y133247D02*
Y139047D01*
X62524*
Y133247*
X69524Y130847D02*
Y125047D01*
X62524*
Y130847*
X118050Y34728D02*
X123850D01*
Y41728*
X118050*
X115650Y34728D02*
X109850D01*
Y41728*
X115650*
X100414Y51689D02*
X94614D01*
Y44689*
X100414*
X102814Y51689D02*
X108614D01*
Y44689*
X102814*
X100414Y41728D02*
X94614D01*
Y34728*
X100414*
X102814Y41728D02*
X108614D01*
Y34728*
X102814*
X67602Y191792D02*
Y185992D01*
X74602*
Y191792*
X67602Y194192D02*
Y199992D01*
X74602*
Y194192*
X67602Y176556D02*
Y170756D01*
X74602*
Y176556*
X67602Y178956D02*
Y184756D01*
X74602*
Y178956*
X156112Y211386D02*
X164162D01*
Y225386*
X156112*
X148612Y211386D02*
X140562D01*
Y225386*
X148612*
X51987Y47287D02*
X57787D01*
Y54287*
X51987*
X49587Y47287D02*
X43787D01*
Y54287*
X49587*
X51987Y37130D02*
X57787D01*
Y44130*
X51987*
X49587Y37130D02*
X43787D01*
Y44130*
X49587*
X51987Y26972D02*
X57787D01*
Y33972*
X51987*
X49587Y26972D02*
X43787D01*
Y33972*
X49587*
X51987Y57445D02*
X57787D01*
Y64445*
X51987*
X49587Y57445D02*
X43787D01*
Y64445*
X49587*
X115650Y61453D02*
X109850D01*
Y54453*
X115650*
X118050Y61453D02*
X123850D01*
Y54453*
X118050*
X100414Y61453D02*
X94614D01*
Y54453*
X100414*
X102814Y61453D02*
X108614D01*
Y54453*
X102814*
X74331Y41838D02*
Y35276D01*
Y41838D02*
X76376D01*
X77058Y41526*
X77285Y41213*
X77513Y40588*
Y39963*
X77285Y39338*
X77058Y39026*
X76376Y38713*
X74331*
X75922D02*
X77513Y35276D01*
X79558Y41838D02*
X82740Y35276D01*
Y41838D02*
X79558Y35276D01*
X75922Y51917D02*
Y45354D01*
X74331Y51917D02*
X77513D01*
X79558D02*
X82740Y45354D01*
Y51917D02*
X79558Y45354D01*
X74331Y61996D02*
Y55433D01*
Y61996D02*
X76376D01*
X77058Y61683*
X77285Y61371*
X77513Y60746*
Y59808*
X77285Y59183*
X77058Y58871*
X76376Y58558*
X74331*
X79558Y61996D02*
X80694Y55433D01*
X81831Y61996D02*
X80694Y55433D01*
X81831Y61996D02*
X82967Y55433D01*
X84103Y61996D02*
X82967Y55433D01*
X86149Y61996D02*
Y55433D01*
Y61996D02*
X88194D01*
X88876Y61683*
X89103Y61371*
X89331Y60746*
Y60121*
X89103Y59496*
X88876Y59183*
X88194Y58871*
X86149*
X87740D02*
X89331Y55433D01*
G54D40*
X38268Y246181D02*
X13465D01*
Y221378*
X38268*
Y221673*
X36102Y222756*
X38268Y223839*
Y246181*
X60709Y69370D02*
X52785D01*
Y71880*
X50522*
Y69370*
X42598*
Y109528*
X60709*
Y69370*
X115551Y75965D02*
X103322D01*
Y81070*
X99828*
Y75965*
X87598*
Y157657*
X115551*
Y75965*
X74173Y25079D02*
X80374D01*
Y23848*
X82146*
Y25079*
X88346*
Y5394*
X74173*
Y25079*
G54D202*
X25866Y230472D02*
Y232835D01*
X25752Y233307*
X25523Y233622*
X25179Y233780*
X24950*
X24606Y233622*
X24377Y233307*
X24263Y232835*
Y230472*
X23232Y231102D02*
X23003Y230945D01*
X22659Y230472*
Y233780*
X54173Y233858D02*
Y230551D01*
Y233858D02*
X55204D01*
X55548Y233701*
X55662Y233543*
X55777Y233228*
Y232913*
X55662Y232598*
X55548Y232441*
X55204Y232283*
X54173*
X54975D02*
X55777Y230551D01*
X56807Y233228D02*
X57037Y233386D01*
X57380Y233858*
Y230551*
X42835Y144409D02*
Y141102D01*
Y144409D02*
X43865D01*
X44209Y144252*
X44324Y144094*
X44438Y143780*
Y143465*
X44324Y143150*
X44209Y142992*
X43865Y142835*
X42835*
X43636D02*
X44438Y141102D01*
X45583Y143622D02*
Y143780D01*
X45698Y144094*
X45812Y144252*
X46042Y144409*
X46500*
X46729Y144252*
X46843Y144094*
X46958Y143780*
Y143465*
X46843Y143150*
X46614Y142677*
X45469Y141102*
X47072*
X68031Y232598D02*
X68948Y231024D01*
Y229291*
X69864Y232598D02*
X68948Y231024D01*
X70895Y231969D02*
X71124Y232126D01*
X71467Y232598*
Y229291*
X35276Y115433D02*
Y113071D01*
X35390Y112598*
X35619Y112283*
X35963Y112126*
X36192*
X36535Y112283*
X36764Y112598*
X36879Y113071*
Y115433*
X39399Y114331D02*
X39284Y113858D01*
X39055Y113543*
X38712Y113386*
X38597*
X38253Y113543*
X38024Y113858*
X37910Y114331*
Y114488*
X38024Y114961*
X38253Y115276*
X38597Y115433*
X38712*
X39055Y115276*
X39284Y114961*
X39399Y114331*
Y113543*
X39284Y112756*
X39055Y112283*
X38712Y112126*
X38482*
X38139Y112283*
X38024Y112598*
X136063Y49921D02*
Y46614D01*
Y49921D02*
X137094D01*
X137437Y49764*
X137552Y49606*
X137666Y49291*
Y48976*
X137552Y48661*
X137437Y48504*
X137094Y48346*
X136063*
X136865D02*
X137666Y46614D01*
X138697Y49291D02*
X138926Y49449D01*
X139270Y49921*
Y46614*
X141904Y49921D02*
X140759Y46614D01*
X140301Y49921D02*
X141904D01*
X59213Y12126D02*
Y8819D01*
Y12126D02*
X60243D01*
X60587Y11969*
X60702Y11811*
X60816Y11496*
Y11181*
X60702Y10866*
X60587Y10709*
X60243Y10551*
X59213*
X60014D02*
X60816Y8819D01*
X61847Y11496D02*
X62076Y11654D01*
X62419Y12126*
Y8819*
X64939Y12126D02*
X63794D01*
X63679Y10709*
X63794Y10866*
X64137Y11024*
X64481*
X64825Y10866*
X65054Y10551*
X65168Y10079*
X65054Y9764*
X64939Y9291*
X64710Y8976*
X64366Y8819*
X64366D02*
X64023D01*
X63679Y8976*
X63565Y9134*
X63450Y9449*
X59213Y22205D02*
Y18898D01*
Y22205D02*
X60243D01*
X60587Y22047*
X60702Y21890*
X60816Y21575*
Y21260*
X60702Y20945*
X60587Y20787*
X60243Y20630*
X59213*
X60014D02*
X60816Y18898D01*
X61847Y21575D02*
X62076Y21732D01*
X62419Y22205*
Y18898*
X64825Y21732D02*
X64710Y22047D01*
X64366Y22205*
X64366D02*
X64137D01*
X63794Y22047*
X63565Y21575*
X63450Y20787*
Y20000*
X63565Y19370*
X63794Y19055*
X64137Y18898*
X64252*
X64596Y19055*
X64825Y19370*
X64939Y19843*
Y20000*
X64825Y20472*
X64596Y20787*
X64252Y20945*
X64137*
X63794Y20787*
X63565Y20472*
X63450Y20000*
X65970Y117165D02*
X65855Y117480D01*
X65626Y117795*
X65397Y117953*
X64939*
X64710Y117795*
X64481Y117480*
X64366Y117165*
X64366D02*
X64252Y116693D01*
Y115906*
X64366Y115433*
X64366D02*
X64481Y115118D01*
X64710Y114803*
X64939Y114646*
X65397*
X65626Y114803*
X65855Y115118*
X65970Y115433*
X68490Y117953D02*
X67344D01*
X67230Y116535*
X67344Y116693*
X67688Y116850*
X68031*
X68375Y116693*
X68604Y116378*
X68719Y115906*
X68604Y115591*
X68490Y115118*
X68261Y114803*
X67917Y114646*
X67573*
X67230Y114803*
X67115Y114961*
X67001Y115276*
X54631Y143622D02*
X54517Y143937D01*
X54288Y144252*
X54059Y144409*
X53601*
X53372Y144252*
X53142Y143937*
X53028Y143622*
X52913Y143150*
Y142362*
X53028Y141890*
X53142Y141575*
X53372Y141260*
X53601Y141102*
X54059*
X54288Y141260*
X54517Y141575*
X54631Y141890*
X57037Y143937D02*
X56922Y144252D01*
X56578Y144409*
X56349*
X56006Y144252*
X55777Y143780*
X55662Y142992*
Y142205*
X55777Y141575*
X56006Y141260*
X56349Y141102*
X56464*
X56807Y141260*
X57037Y141575*
X57151Y142047*
Y142205*
X57037Y142677*
X56807Y142992*
X56464Y143150*
X56349*
X56006Y142992*
X55777Y142677*
X55662Y142205*
X62992Y144409D02*
Y141102D01*
Y144409D02*
X64023D01*
X64366Y144252*
X64366D02*
X64481Y144094D01*
X64596Y143780*
Y143465*
X64481Y143150*
X64366Y142992*
X64366D02*
X64023Y142835D01*
X62992*
X63794D02*
X64596Y141102D01*
X65626Y143780D02*
X65855Y143937D01*
X66199Y144409*
Y141102*
X68375Y144409D02*
X67230Y142205D01*
X68948*
X68375Y144409D02*
Y141102D01*
X136063Y39843D02*
Y36535D01*
Y39843D02*
X137094D01*
X137437Y39685*
X137552Y39528*
X137666Y39213*
Y38898*
X137552Y38583*
X137437Y38425*
X137094Y38268*
X136063*
X136865D02*
X137666Y36535D01*
X138697Y39213D02*
X138926Y39370D01*
X139270Y39843*
Y36535*
X140873Y39843D02*
X140530Y39685D01*
X140415Y39370*
Y39055*
X140530Y38740*
X140759Y38583*
X141217Y38425*
X141560Y38268*
X141790Y37953*
X141904Y37638*
Y37165*
X141790Y36850*
X141675Y36693*
X141331Y36535*
X140873*
X140530Y36693*
X140415Y36850*
X140301Y37165*
Y37638*
X140415Y37953*
X140644Y38268*
X140988Y38425*
X141446Y38583*
X141675Y38740*
X141790Y39055*
Y39370*
X141675Y39685*
X141331Y39843*
X140873*
X127244Y49921D02*
Y47559D01*
X127359Y47087*
X127588Y46772*
X127931Y46614*
X128160*
X128504Y46772*
X128733Y47087*
X128848Y47559*
Y49921*
X129878Y49291D02*
X130107Y49449D01*
X130451Y49921*
Y46614*
X132169Y49921D02*
X131825Y49764D01*
X131596Y49291*
X131482Y48504*
Y48031*
X131596Y47244*
X131825Y46772*
X132169Y46614*
X132398*
X132742Y46772*
X132971Y47244*
X133085Y48031*
Y48504*
X132971Y49291*
X132742Y49764*
X132398Y49921*
X132169*
X127244Y39843D02*
Y37480D01*
X127359Y37008*
X127588Y36693*
X127931Y36535*
X128160*
X128504Y36693*
X128733Y37008*
X128848Y37480*
Y39843*
X129878Y39213D02*
X130107Y39370D01*
X130451Y39843*
Y36535*
X131482Y39213D02*
X131711Y39370D01*
X132054Y39843*
Y36535*
X63450Y194016D02*
X63336Y194331D01*
X63107Y194646*
X62878Y194803*
X62419*
X62190Y194646*
X61961Y194331*
X61847Y194016*
X61732Y193543*
Y192756*
X61847Y192283*
X61961Y191969*
X62190Y191654*
X62419Y191496*
X62878*
X63107Y191654*
X63336Y191969*
X63450Y192283*
X64481Y194173D02*
X64710Y194331D01*
X65054Y194803*
Y191496*
X63450Y177638D02*
X63336Y177953D01*
X63107Y178268*
X62878Y178425*
X62419*
X62190Y178268*
X61961Y177953*
X61847Y177638*
X61732Y177165*
Y176378*
X61847Y175906*
X61961Y175591*
X62190Y175276*
X62419Y175118*
X62878*
X63107Y175276*
X63336Y175591*
X63450Y175906*
X64596Y177638D02*
Y177795D01*
X64710Y178110*
X64825Y178268*
X65054Y178425*
X65512*
X65741Y178268*
X65855Y178110*
X65970Y177795*
Y177480*
X65855Y177165*
X65626Y176693*
X64481Y175118*
X66084*
X142820Y207874D02*
X142706Y208189D01*
X142477Y208504*
X142248Y208661*
X141790*
X141560Y208504*
X141331Y208189*
X141217Y207874*
X141102Y207402*
Y206614*
X141217Y206142*
X141331Y205827*
X141560Y205512*
X141790Y205354*
X142248*
X142477Y205512*
X142706Y205827*
X142820Y206142*
X144080Y208661D02*
X145340D01*
X144653Y207402*
X144996*
X145225Y207244*
X145340Y207087*
X145455Y206614*
Y206299*
X145340Y205827*
X145111Y205512*
X144767Y205354*
X144424*
X144080Y205512*
X143966Y205669*
X143851Y205984*
X99528Y72598D02*
Y70236D01*
X99642Y69764*
X99871Y69449*
X100215Y69291*
X100444*
X100787Y69449*
X101016Y69764*
X101131Y70236*
Y72598*
X102391D02*
X103651D01*
X102963Y71339*
X103307*
X103536Y71181*
X103651Y71024*
X103765Y70551*
Y70236*
X103651Y69764*
X103422Y69449*
X103078Y69291*
X102734*
X102391Y69449*
X102276Y69606*
X102162Y69921*
X79370Y31024D02*
Y28661D01*
X79485Y28189*
X79714Y27874*
X80057Y27717*
X80286*
X80630Y27874*
X80859Y28189*
X80974Y28661*
Y31024*
X83150D02*
X82004Y28819D01*
X83722*
X83150Y31024D02*
Y27717D01*
X59213Y52441D02*
Y49134D01*
Y52441D02*
X60243D01*
X60587Y52283*
X60702Y52126*
X60816Y51811*
Y51496*
X60702Y51181*
X60587Y51024*
X60243Y50866*
X59213*
X60014D02*
X60816Y49134D01*
X62076Y52441D02*
X63336D01*
X62649Y51181*
X62992*
X63221Y51024*
X63336Y50866*
X63450Y50394*
Y50079*
X63336Y49606*
X63107Y49291*
X62763Y49134*
X62419*
X62076Y49291*
X61961Y49449*
X61847Y49764*
X59213Y42362D02*
Y39055D01*
Y42362D02*
X60243D01*
X60587Y42205*
X60702Y42047*
X60816Y41732*
Y41417*
X60702Y41102*
X60587Y40945*
X60243Y40787*
X59213*
X60014D02*
X60816Y39055D01*
X62992Y42362D02*
X61847Y40157D01*
X63565*
X62992Y42362D02*
Y39055D01*
X60931Y30236D02*
X60816Y30551D01*
X60587Y30866*
X60358Y31024*
X59900*
X59671Y30866*
X59442Y30551*
X59327Y30236*
X59213Y29764*
Y28976*
X59327Y28504*
X59442Y28189*
X59671Y27874*
X59900Y27717*
X60358*
X60587Y27874*
X60816Y28189*
X60931Y28504*
X63107Y31024D02*
X61961Y28819D01*
X63679*
X63107Y31024D02*
Y27717D01*
X60931Y61732D02*
X60816Y62047D01*
X60587Y62362*
X60358Y62520*
X59900*
X59671Y62362*
X59442Y62047*
X59327Y61732*
X59213Y61260*
Y60472*
X59327Y60000*
X59442Y59685*
X59671Y59370*
X59900Y59213*
X60358*
X60587Y59370*
X60816Y59685*
X60931Y60000*
X63565Y62520D02*
X62419Y59213D01*
X61961Y62520D02*
X63565D01*
X136063Y60000D02*
Y56693D01*
Y60000D02*
X137094D01*
X137437Y59843*
X137552Y59685*
X137666Y59370*
Y59055*
X137552Y58740*
X137437Y58583*
X137094Y58425*
X136063*
X136865D02*
X137666Y56693D01*
X140186Y60000D02*
X139041D01*
X138926Y58583*
X139041Y58740*
X139384Y58898*
X139728*
X140072Y58740*
X140301Y58425*
X140415Y57953*
X140301Y57638*
X140186Y57165*
X139957Y56850*
X139613Y56693*
X139270*
X138926Y56850*
X138812Y57008*
X138697Y57323*
X127244Y60000D02*
Y57638D01*
X127359Y57165*
X127588Y56850*
X127931Y56693*
X128160*
X128504Y56850*
X128733Y57165*
X128848Y57638*
Y60000*
X131367D02*
X130222D01*
X130107Y58583*
X130222Y58740*
X130565Y58898*
X130565D02*
X130909D01*
X131253Y58740*
X131482Y58425*
X131596Y57953*
X131482Y57638*
X131367Y57165*
X131138Y56850*
X130795Y56693*
X130451*
X130107Y56850*
X129993Y57008*
X129878Y57323*
X139843Y31024D02*
Y27717D01*
Y31024D02*
X140873D01*
X141217Y30866*
X141331Y30709*
X141446Y30394*
Y30079*
X141331Y29764*
X141217Y29606*
X140873Y29449*
X139843D02*
X140873D01*
X141217Y29291*
X141331Y29134*
X141446Y28819*
Y28346*
X141331Y28031*
X141217Y27874*
X140873Y27717*
X139843*
X142477Y31024D02*
X144080Y27717D01*
Y31024D02*
X142477Y27717D01*
X129764Y31024D02*
Y27717D01*
Y31024D02*
X130795D01*
X131138Y30866*
X131253Y30709*
X131367Y30394*
Y30079*
X131253Y29764*
X131138Y29606*
X130795Y29449*
X129764D02*
X130795D01*
X131138Y29291*
X131253Y29134*
X131367Y28819*
Y28346*
X131253Y28031*
X131138Y27874*
X130795Y27717*
X129764*
X132398Y31024D02*
X133314Y29449D01*
Y27717*
X134230Y31024D02*
X133314Y29449D01*
X150379Y30236D02*
X150265Y30551D01*
X150036Y30866*
X149807Y31024*
X149349*
X149120Y30866*
X148890Y30551*
X148776Y30236*
X148661Y29764*
Y28976*
X148776Y28504*
X148890Y28189*
X149120Y27874*
X149349Y27717*
X149807*
X150036Y27874*
X150265Y28189*
X150379Y28504*
Y28976*
X149807D02*
X150379D01*
X151410Y31024D02*
Y27717D01*
Y31024D02*
X153014Y27717D01*
Y31024D02*
Y27717D01*
X154044Y31024D02*
Y27717D01*
Y31024D02*
X154846D01*
X155190Y30866*
X155419Y30551*
X155533Y30236*
X155648Y29764*
Y28976*
X155533Y28504*
X155419Y28189*
X155190Y27874*
X154846Y27717*
X154044*
X117165Y31024D02*
Y27717D01*
Y31024D02*
X118196D01*
X118540Y30866*
X118654Y30709*
X118769Y30394*
Y29921*
X118654Y29606*
X118540Y29449*
X118196Y29291*
X117165*
X119800Y31024D02*
X120372Y27717D01*
X120945Y31024D02*
X120372Y27717D01*
X120945Y31024D02*
X121518Y27717D01*
X122090Y31024D02*
X121518Y27717D01*
X123121Y31024D02*
Y27717D01*
Y31024D02*
X124152D01*
X124495Y30866*
X124610Y30709*
X124724Y30394*
Y30079*
X124610Y29764*
X124495Y29606*
X124152Y29449*
X123121*
X123923D02*
X124724Y27717D01*
X137795Y157137D02*
X141102Y156220D01*
X137795Y157137D02*
X141102Y158053D01*
X140000Y156564D02*
Y157709D01*
X137795Y159084D02*
X139370Y160000D01*
X141102*
X137795Y160916D02*
X139370Y160000D01*
X137795Y147058D02*
X141102Y146142D01*
X137795Y147058D02*
X141102Y147974D01*
X140000Y146485D02*
Y147631D01*
X137795Y149005D02*
X141102Y150608D01*
X137795D02*
X141102Y149005D01*
X138583Y135261D02*
X138268Y135147D01*
X137953Y134918*
X137795Y134689*
Y134230*
X137953Y134001*
X138268Y133772*
X138583Y133658*
X139055Y133543*
X139843*
X140315Y133658*
X140630Y133772*
X140945Y134001*
X141102Y134230*
Y134689*
X140945Y134918*
X140630Y135147*
X140315Y135261*
X139843*
Y134689D02*
Y135261D01*
X137795Y136292D02*
X141102D01*
X137795D02*
X141102Y137895D01*
X137795D02*
X141102D01*
X137795Y138926D02*
X141102D01*
X137795D02*
Y139728D01*
X137953Y140072*
X138268Y140301*
X138583Y140415*
X139055Y140530*
X139843*
X140315Y140415*
X140630Y140301*
X140945Y140072*
X141102Y139728*
Y138926*
X137795Y165039D02*
X141102D01*
X137795D02*
Y166070D01*
X137953Y166414*
X138110Y166528*
X138425Y166643*
X138898*
X139213Y166528*
X139370Y166414*
X139528Y166070*
Y165039*
X137795Y167674D02*
X141102Y168246D01*
X137795Y168819D02*
X141102Y168246D01*
X137795Y168819D02*
X141102Y169392D01*
X137795Y169964D02*
X141102Y169392D01*
X137795Y170995D02*
X141102D01*
X137795D02*
Y172026D01*
X137953Y172369*
X138110Y172484*
X138425Y172598*
X138740*
X139055Y172484*
X139213Y172369*
X139370Y172026*
Y170995*
Y171797D02*
X141102Y172598D01*
X129764Y92756D02*
Y90394D01*
X129878Y89921*
X130107Y89606*
X130451Y89449*
X130680*
X131024Y89606*
X131253Y89921*
X131367Y90394*
Y92756*
X134116Y91969D02*
X134001Y92283D01*
X133772Y92598*
X133543Y92756*
X133085*
X132856Y92598*
X132627Y92283*
X132513Y91969*
X132398Y91496*
Y90709*
X132513Y90236*
X132627Y89921*
X132856Y89606*
X133085Y89449*
X133543*
X133772Y89606*
X134001Y89921*
X134116Y90236*
X139499Y91969D02*
X139384Y92283D01*
X139155Y92598*
X138926Y92756*
X138468*
X138239Y92598*
X138010Y92283*
X137895Y91969*
X137781Y91496*
Y90709*
X137895Y90236*
X138010Y89921*
X138239Y89606*
X138468Y89449*
X138926*
X139155Y89606*
X139384Y89921*
X139499Y90236*
X140530Y92756D02*
Y89449D01*
X141560Y92756D02*
Y89449D01*
X142706Y91654D02*
X141560Y90079D01*
X142019Y90709D02*
X142820Y89449D01*
X129764Y112913D02*
Y109606D01*
X130795Y111811D02*
Y109606D01*
Y111181D02*
X131138Y111654D01*
X131367Y111811*
X131711*
X131940Y111654*
X132054Y111181*
Y109606*
X133085Y111811D02*
X133772Y109606D01*
X134460Y111811D02*
X133772Y109606D01*
X139843Y112126D02*
X139728Y112441D01*
X139499Y112756*
X139270Y112913*
X138812*
X138583Y112756*
X138354Y112441*
X138239Y112126*
X138125Y111654*
Y110866*
X138239Y110394*
X138354Y110079*
X138583Y109764*
X138812Y109606*
X139270*
X139499Y109764*
X139728Y110079*
X139843Y110394*
X140873Y112913D02*
Y109606D01*
X141904Y112913D02*
Y109606D01*
X143049Y111811D02*
X141904Y110236D01*
X142362Y110866D02*
X143164Y109606D01*
X130222Y102047D02*
X130107Y102362D01*
X129878Y102677*
X129649Y102835*
X129191*
X128962Y102677*
X128733Y102362*
X128618Y102047*
X128504Y101575*
Y100787*
X128618Y100315*
X128733Y100000*
X128962Y99685*
X129191Y99528*
X129649*
X129878Y99685*
X130107Y100000*
X130222Y100315*
X131253Y102835D02*
Y99528D01*
X132283Y102835D02*
Y99528D01*
X133429Y101732D02*
X132283Y100157D01*
X132742Y100787D02*
X133543Y99528D01*
X137895Y102835D02*
X137666Y102677D01*
X137437Y102362*
X137323Y102047*
X137208Y101575*
Y100787*
X137323Y100315*
X137437Y100000*
X137666Y99685*
X137895Y99528*
X138354*
X138583Y99685*
X138812Y100000*
X138926Y100315*
X139041Y100787*
Y101575*
X138926Y102047*
X138812Y102362*
X138583Y102677*
X138354Y102835*
X137895*
X140072Y101732D02*
Y100157D01*
X140186Y99685*
X140415Y99528*
X140759*
X140988Y99685*
X141331Y100157*
Y101732D02*
Y99528D01*
X142706Y102835D02*
Y100157D01*
X142820Y99685*
X143049Y99528*
X143278*
X142362Y101732D02*
X143164D01*
X50394Y152899D02*
X50079Y152785D01*
X49764Y152555*
X49606Y152326*
Y151868*
X49764Y151639*
X50079Y151410*
X50394Y151296*
X50866Y151181*
X51654*
X52126Y151296*
X52441Y151410*
X52756Y151639*
X52913Y151868*
Y152326*
X52756Y152555*
X52441Y152785*
X52126Y152899*
X50709Y153930D02*
X52913D01*
X51654D02*
X51181Y154044D01*
X50866Y154273*
X50709Y154503*
Y154846*
X51654Y155877D02*
Y157251D01*
X51339*
X51024Y157137*
X50866Y157022*
X50709Y156793*
Y156450*
X50866Y156220*
X51181Y155991*
X51654Y155877*
X51969*
X52441Y155991*
X52756Y156220*
X52913Y156450*
Y156793*
X52756Y157022*
X52441Y157251*
X50709Y159656D02*
X52913D01*
X51181D02*
X50866Y159427D01*
X50709Y159198*
Y158855*
X50866Y158626*
X51181Y158397*
X51654Y158282*
X51969*
X52441Y158397*
X52756Y158626*
X52913Y158855*
Y159198*
X52756Y159427*
X52441Y159656*
X49606Y161031D02*
X52283D01*
X52756Y161145*
X52913Y161374*
Y161603*
X50709Y160687D02*
Y161489D01*
Y163207D02*
X50866Y162978D01*
X51181Y162749*
X51654Y162634*
X51969*
X52441Y162749*
X52756Y162978*
X52913Y163207*
Y163550*
X52756Y163780*
X52441Y164009*
X51969Y164123*
X51654*
X51181Y164009*
X50866Y163780*
X50709Y163550*
Y163207*
Y165154D02*
X52913D01*
X51654D02*
X51181Y165268D01*
X50866Y165497*
X50709Y165727*
Y166070*
Y167215D02*
X50866Y167101D01*
X51024Y167215*
X50866Y167330*
X50709Y167215*
X52598D02*
X52756Y167101D01*
X52913Y167215*
X52756Y167330*
X52598Y167215*
X50394Y172713D02*
X50079Y172598D01*
X49764Y172369*
X49606Y172140*
Y171682*
X49764Y171453*
X50079Y171224*
X50394Y171110*
X50866Y170995*
X51654*
X52126Y171110*
X52441Y171224*
X52756Y171453*
X52913Y171682*
Y172140*
X52756Y172369*
X52441Y172598*
X52126Y172713*
X50709Y174316D02*
X50866Y174087D01*
X51181Y173858*
X51654Y173744*
X51969*
X52441Y173858*
X52756Y174087*
X52913Y174316*
Y174660*
X52756Y174889*
X52441Y175118*
X51969Y175233*
X51654*
X51181Y175118*
X50866Y174889*
X50709Y174660*
Y174316*
Y176263D02*
X52913D01*
X51654D02*
X51181Y176378D01*
X50866Y176607*
X50709Y176836*
Y177180*
Y178210D02*
X52913Y178669D01*
X50709Y179127D02*
X52913Y178669D01*
X50709Y179127D02*
X52913Y179585D01*
X50709Y180043D02*
X52913Y179585D01*
X49606Y181074D02*
X49764Y181188D01*
X49606Y181303*
X49449Y181188*
X49606Y181074*
X50709Y181188D02*
X52913D01*
X50709Y182334D02*
X52913D01*
X51339D02*
X50866Y182677D01*
X50709Y182906*
Y183250*
X50866Y183479*
X51339Y183593*
X52913*
X49606Y187258D02*
X52913D01*
X49606D02*
Y188289D01*
X49764Y188633*
X49921Y188747*
X50236Y188862*
X50709*
X51024Y188747*
X51181Y188633*
X51339Y188289*
Y187258*
X51654Y189893D02*
Y191267D01*
X51339*
X51024Y191152*
X50866Y191038*
X50709Y190809*
Y190465*
X50866Y190236*
X51181Y190007*
X51654Y189893*
X51969*
X52441Y190007*
X52756Y190236*
X52913Y190465*
Y190809*
X52756Y191038*
X52441Y191267*
X50709Y192298D02*
X52913D01*
X51654D02*
X51181Y192412D01*
X50866Y192641*
X50709Y192870*
Y193214*
Y194245D02*
X52913D01*
X51654D02*
X51181Y194359D01*
X50866Y194588*
X50709Y194817*
Y195161*
X51654Y196192D02*
Y197566D01*
X51339*
X51024Y197452*
X50866Y197337*
X50709Y197108*
Y196764*
X50866Y196535*
X51181Y196306*
X51654Y196192*
X51969*
X52441Y196306*
X52756Y196535*
X52913Y196764*
Y197108*
X52756Y197337*
X52441Y197566*
X50709Y198597D02*
X52913D01*
X51339D02*
X50866Y198941D01*
X50709Y199170*
Y199513*
X50866Y199742*
X51339Y199857*
X52913*
X54646Y152326D02*
X56850Y151181D01*
Y152899*
X54646Y152326D02*
X57953D01*
X54016Y155991D02*
X59055Y153930D01*
X54646Y157595D02*
X54803Y157251D01*
X55118Y157137*
X55433*
X55748Y157251*
X55906Y157480*
X56063Y157938*
X56220Y158282*
X56535Y158511*
X56850Y158626*
X57323*
X57638Y158511*
X57795Y158397*
X57953Y158053*
Y157595*
X57795Y157251*
X57638Y157137*
X57323Y157022*
X56850*
X56535Y157137*
X56220Y157366*
X56063Y157709*
X55906Y158168*
X55906D02*
X55748Y158397D01*
X55433Y158511*
X55118*
X54803Y158397*
X54646Y158053*
Y157595*
X54016Y161718D02*
X59055Y159656D01*
X55433Y162863D02*
X55276D01*
X54961Y162978*
X54803Y163092*
X54646Y163321*
Y163780*
X54803Y164009*
X54961Y164123*
X55276Y164238*
X55591*
X55906Y164123*
X56378Y163894*
X57953Y162749*
Y164352*
X54646Y166070D02*
X54803Y165727D01*
X55276Y165497*
X56063Y165383*
X56535*
X57323Y165497*
X57795Y165727*
X57953Y166070*
Y166299*
X57795Y166643*
X57323Y166872*
X56535Y166986*
X56063*
X55276Y166872*
X54803Y166643*
X54646Y166299*
Y166070*
X55276Y168017D02*
X55118Y168246D01*
X54646Y168590*
X57953*
X54646Y170766D02*
X56850Y169621D01*
Y171339*
X54646Y170766D02*
X57953D01*
X39528Y151868D02*
X39685Y151639D01*
X40000Y151410*
X40315Y151296*
X40787Y151181*
X41575*
X42047Y151296*
X42362Y151410*
X42677Y151639*
X42835Y151868*
Y152326*
X42677Y152555*
X42362Y152785*
X42047Y152899*
X41575Y153014*
X40787*
X40315Y152899*
X40000Y152785*
X39685Y152555*
X39528Y152326*
Y151868*
X40630Y154044D02*
X42835D01*
X41575D02*
X41102Y154159D01*
X40787Y154388*
X40630Y154617*
Y154961*
X41575Y155991D02*
Y157366D01*
X41260*
X40945Y157251*
X40787Y157137*
X40630Y156908*
Y156564*
X40787Y156335*
X41102Y156106*
X41575Y155991*
X41890*
X42362Y156106*
X42677Y156335*
X42835Y156564*
Y156908*
X42677Y157137*
X42362Y157366*
X40630Y159771D02*
X43150D01*
X43622Y159656*
X43780Y159542*
X43937Y159313*
Y158969*
X43780Y158740*
X41102Y159771D02*
X40787Y159542D01*
X40630Y159313*
Y158969*
X40787Y158740*
X41102Y158511*
X41575Y158397*
X41890*
X42362Y158511*
X42677Y158740*
X42835Y158969*
Y159313*
X42677Y159542*
X42362Y159771*
X40630Y161374D02*
X40787Y161145D01*
X41102Y160916*
X41575Y160802*
X41890*
X42362Y160916*
X42677Y161145*
X42835Y161374*
Y161718*
X42677Y161947*
X42362Y162176*
X41890Y162291*
X41575*
X41102Y162176*
X40787Y161947*
X40630Y161718*
Y161374*
Y163321D02*
X42835D01*
X41260D02*
X40787Y163665D01*
X40630Y163894*
Y164238*
X40787Y164467*
X41260Y164581*
X42835*
X40000Y169850D02*
X39685Y169621D01*
X39528Y169277*
Y168819*
X39685Y168475*
X40000Y168246*
X40315*
X40630Y168361*
X40787Y168475*
X40945Y168704*
X41260Y169392*
X41417Y169621*
X41575Y169735*
X41890Y169850*
X42362*
X42677Y169621*
X42835Y169277*
Y168819*
X42677Y168475*
X42362Y168246*
X39528Y171224D02*
X42205D01*
X42677Y171339*
X42835Y171568*
Y171797*
X40630Y170880D02*
Y171682D01*
Y174202D02*
X42835D01*
X41102D02*
X40787Y173973D01*
X40630Y173744*
Y173400*
X40787Y173171*
X41102Y172942*
X41575Y172827*
X41890*
X42362Y172942*
X42677Y173171*
X42835Y173400*
Y173744*
X42677Y173973*
X42362Y174202*
X39528Y175576D02*
X42205D01*
X42677Y175691*
X42835Y175920*
Y176149*
X40630Y175233D02*
Y176034D01*
X41575Y177180D02*
Y178554D01*
X41260*
X40945Y178440*
X40787Y178325*
X40630Y178096*
Y177752*
X40787Y177523*
X41102Y177294*
X41575Y177180*
X41890*
X42362Y177294*
X42677Y177523*
X42835Y177752*
Y178096*
X42677Y178325*
X42362Y178554*
X39528Y182219D02*
X42835D01*
X39528D02*
X42835Y183135D01*
X39528Y184052D02*
X42835Y183135D01*
X39528Y184052D02*
X42835D01*
X40630Y186457D02*
X42835D01*
X41102D02*
X40787Y186228D01*
X40630Y185999*
Y185655*
X40787Y185426*
X41102Y185197*
X41575Y185082*
X41890*
X42362Y185197*
X42677Y185426*
X42835Y185655*
Y185999*
X42677Y186228*
X42362Y186457*
X40630Y187487D02*
X42835D01*
X41575D02*
X41102Y187602D01*
X40787Y187831*
X40630Y188060*
Y188404*
X41102Y190694D02*
X40787Y190580D01*
X40630Y190236*
Y189893*
X40787Y189549*
X41102Y189435*
X41102D02*
X41417Y189549D01*
X41575Y189778*
X41732Y190351*
X41890Y190580*
X42205Y190694*
X42362*
X42677Y190580*
X42835Y190236*
Y189893*
X42677Y189549*
X42362Y189435*
X39528Y194359D02*
X42835D01*
X39528D02*
Y195390D01*
X39685Y195734*
X39843Y195848*
X40157Y195963*
X40472*
X40787Y195848*
X40945Y195734*
X41102Y195390*
Y194359*
Y195161D02*
X42835Y195963D01*
X40630Y197566D02*
X40787Y197337D01*
X41102Y197108*
X41575Y196994*
X41890*
X42362Y197108*
X42677Y197337*
X42835Y197566*
Y197910*
X42677Y198139*
X42362Y198368*
X41890Y198482*
X41575*
X41102Y198368*
X40787Y198139*
X40630Y197910*
Y197566*
Y199513D02*
X42835Y200200D01*
X40630Y200888D02*
X42835Y200200D01*
X41575Y201918D02*
Y203293D01*
X41260*
X40945Y203178*
X40787Y203064*
X40630Y202835*
Y202491*
X40787Y202262*
X41102Y202033*
X41575Y201918*
X41890*
X42362Y202033*
X42677Y202262*
X42835Y202491*
Y202835*
X42677Y203064*
X42362Y203293*
X40630Y204324D02*
X42835D01*
X41575D02*
X41102Y204438D01*
X40787Y204667*
X40630Y204896*
Y205240*
G54D203*
X44567Y151181D02*
X47874D01*
X44567D02*
Y151983D01*
X44725Y152326*
X45040Y152555*
X45355Y152670*
X45827Y152784*
X46614*
X47087Y152670*
X47402Y152555*
X47717Y152326*
X47874Y151983*
Y151181*
X45669Y153815D02*
X47874D01*
X46614D02*
X46142Y153930D01*
X45827Y154159*
X45669Y154388*
Y154731*
X44567Y155762D02*
X44725Y155877D01*
X44567Y155991*
X44410Y155877*
X44567Y155762*
X45669Y155877D02*
X47874D01*
X45669Y157022D02*
X47874Y157709D01*
X45669Y158396D02*
X47874Y157709D01*
X46614Y159427D02*
Y160801D01*
X46299*
X45984Y160686*
X45827Y160572*
X45669Y160343*
Y159999*
X45827Y159770*
X46142Y159541*
X46614Y159427*
X46929*
X47402Y159541*
X47717Y159770*
X47874Y159999*
Y160343*
X47717Y160572*
X47402Y160801*
X44567Y161832D02*
X47874D01*
X44567D02*
Y163321D01*
X46142Y161832D02*
Y162748D01*
X46614Y164351D02*
Y165725D01*
X46299*
X45984Y165611*
X45827Y165496*
X45669Y165267*
Y164924*
X45827Y164695*
X46142Y164466*
X46614Y164351*
X46929*
X47402Y164466*
X47717Y164695*
X47874Y164924*
Y165267*
X47717Y165496*
X47402Y165725*
X46614Y166756D02*
Y168130D01*
X46299*
X45984Y168016*
X45827Y167901*
X45669Y167672*
Y167329*
X45827Y167100*
X46142Y166871*
X46614Y166756*
X46929*
X47402Y166871*
X47717Y167100*
X47874Y167329*
Y167672*
X47717Y167901*
X47402Y168130*
X44567Y170535D02*
X47874D01*
X46142D02*
X45827Y170306D01*
X45669Y170077*
Y169734*
X45827Y169505*
X46142Y169276*
X46614Y169161*
X46929*
X47402Y169276*
X47717Y169505*
X47874Y169734*
Y170077*
X47717Y170306*
X47402Y170535*
X44567Y171566D02*
X47874D01*
X46142D02*
X45827Y171795D01*
X45669Y172024*
Y172368*
X45827Y172597*
X46142Y172826*
X46614Y172940*
X46929*
X47402Y172826*
X47717Y172597*
X47874Y172368*
Y172024*
X47717Y171795*
X47402Y171566*
X45669Y175345D02*
X47874D01*
X46142D02*
X45827Y175116D01*
X45669Y174887*
Y174544*
X45827Y174315*
X46142Y174086*
X46614Y173971*
X46929*
X47402Y174086*
X47717Y174315*
X47874Y174544*
Y174887*
X47717Y175116*
X47402Y175345*
X46142Y177750D02*
X45827Y177521D01*
X45669Y177292*
Y176949*
X45827Y176720*
X46142Y176491*
X46614Y176376*
X46929*
X47402Y176491*
X47717Y176720*
X47874Y176949*
Y177292*
X47717Y177521*
X47402Y177750*
X44567Y178781D02*
X47874D01*
X45669Y179926D02*
X47244Y178781D01*
X46614Y179239D02*
X47874Y180041D01*
X44567Y183706D02*
X47874D01*
X44567D02*
Y184736D01*
X44725Y185080*
X44882Y185194*
X45197Y185309*
X45512*
X45827Y185194*
X45984Y185080*
X46142Y184736*
Y183706D02*
Y184736D01*
X46299Y185080*
X46457Y185194*
X46772Y185309*
X47244*
X47559Y185194*
X47717Y185080*
X47874Y184736*
Y183706*
X45669Y186912D02*
X45827Y186683D01*
X46142Y186454*
X46614Y186340*
X46929*
X47402Y186454*
X47717Y186683*
X47874Y186912*
Y187256*
X47717Y187485*
X47402Y187714*
X46929Y187828*
X46614*
X46142Y187714*
X45827Y187485*
X45669Y187256*
Y186912*
Y190233D02*
X47874D01*
X46142D02*
X45827Y190004D01*
X45669Y189775*
Y189432*
X45827Y189203*
X46142Y188974*
X46614Y188859*
X46929*
X47402Y188974*
X47717Y189203*
X47874Y189432*
Y189775*
X47717Y190004*
X47402Y190233*
X45669Y191264D02*
X47874D01*
X46614D02*
X46142Y191379D01*
X45827Y191608*
X45669Y191837*
Y192180*
X44567Y194585D02*
X47874D01*
X46142D02*
X45827Y194356D01*
X45669Y194127*
Y193784*
X45827Y193554*
X46142Y193325*
X46614Y193211*
X46929*
X47402Y193325*
X47717Y193554*
X47874Y193784*
Y194127*
X47717Y194356*
X47402Y194585*
X44567Y198250D02*
X47874D01*
X44567D02*
Y199281D01*
X44725Y199624*
X44882Y199739*
X45197Y199853*
X45512*
X45827Y199739*
X45984Y199624*
X46142Y199281*
Y198250*
Y199052D02*
X47874Y199853D01*
X46614Y200884D02*
Y202258D01*
X46299*
X45984Y202144*
X45827Y202029*
X45669Y201800*
Y201457*
X45827Y201228*
X46142Y200998*
X46614Y200884*
X46929*
X47402Y200998*
X47717Y201228*
X47874Y201457*
Y201800*
X47717Y202029*
X47402Y202258*
X45669Y203289D02*
X47874Y203976D01*
X45669Y204663D02*
X47874Y203976D01*
X45197Y208328D02*
X45040Y208557D01*
X44567Y208901*
X47874*
X47559Y210046D02*
X47717Y209931D01*
X47874Y210046*
X47717Y210160*
X47559Y210046*
X44567Y211878D02*
X44725Y211535D01*
X45197Y211306*
X45984Y211191*
X46457*
X47244Y211306*
X47717Y211535*
X47874Y211878*
Y212107*
X47717Y212451*
X47244Y212680*
X46457Y212794*
X45984*
X45197Y212680*
X44725Y212451*
X44567Y212107*
Y211878*
X0Y0D02*
M02*
