%
T1C.035F197S550
X002107Y000851
X002107Y001851
X003107Y000851
X003107Y001851
X004107Y000851
X004107Y001851
X005107Y000851
X005107Y001851
X006107Y000851
X006107Y001851
X007107Y000851
X007107Y001851
X008107Y000851
X008107Y001851
X009107Y000851
X009107Y001851
X010107Y000851
X010107Y001851
X011107Y000851
X011107Y001851
X023713Y015243
X023713Y017606
X023713Y016818
X023713Y016031
X015052Y015243
X015052Y017606
X015052Y016818
X015052Y016031
X015052Y020755
X015052Y019968
X015052Y019180
X015052Y018393
X015052Y022330
X015052Y021543
X023713Y019180
X023713Y018393
X023713Y022330
X023713Y021543
X023713Y020755
X023713Y019968
X011107Y024226
X011107Y025226
X010107Y024226
X010107Y025226
X009107Y024226
X009107Y025226
X008107Y024226
X008107Y025226
X007107Y024226
X007107Y025226
X006107Y024226
X006107Y025226
X005107Y024226
X005107Y025226
X004107Y024226
X004107Y025226
X003107Y024226
X003107Y025226
X002107Y024226
X002107Y025226
T2C.037F197S550
X006702Y006249
X007962Y006450
X008214Y007156
X008617Y007761
X008718Y006501
X009020Y007055
X009222Y005291
X009827Y004737
X010280Y005946
X010280Y007761
X011036Y007861
X011087Y006803
X015320Y006702
X014009Y011339
X013304Y011540
X012850Y008567
X012447Y012094
X012397Y009121
X011490Y010280
X009827Y009474
X009776Y008819
X009172Y008365
X007005Y009373
X002217Y009474
X001814Y010532
X001865Y014261
X003326Y016328
X005694Y015420
X005795Y016176
X006198Y017134
X007509Y015622
X008819Y018041
X009172Y015622
X009978Y018142
X010129Y016378
X010482Y017184
X011036Y017839
X011893Y016983
X012850Y018545
X011087Y019452
X010381Y019805
X009222Y018898
X007055Y018595
X006148Y018847
X005946Y019502
X005896Y020712
X005493Y020157
X003427Y020409
X002620Y020409
X002217Y023433
X002268Y021417
X003124Y022274
X003528Y021417
X003981Y022173
X006400Y021065
X007055Y021619
X009524Y023030
T3C.12598F035S794
X001378Y006496
X026457Y006496
X026457Y019488
X001378Y019488
M30
