*
*
G04 PADS 9.3.1 Build Number: 456998 generated Gerber (RS-274-X) file*
G04 PC Version=2.1*
*
%IN "DistanceRadioRover.pcb"*%
*
%MOIN*%
*
%FSLAX35Y35*%
*
*
*
*
G04 PC Standard Apertures*
*
*
G04 Thermal Relief Aperture macro.*
%AMTER*
1,1,$1,0,0*
1,0,$1-$2,0,0*
21,0,$3,$4,0,0,45*
21,0,$3,$4,0,0,135*
%
*
*
G04 Annular Aperture macro.*
%AMANN*
1,1,$1,0,0*
1,0,$2,0,0*
%
*
*
G04 Odd Aperture macro.*
%AMODD*
1,1,$1,0,0*
1,0,$1-0.005,0,0*
%
*
*
G04 PC Custom Aperture Macros*
*
*
*
*
*
*
G04 PC Aperture Table*
*
%ADD010C,0.001*%
%ADD048R,0.04X0.048*%
%ADD051C,0.07*%
%ADD166R,0.06906X0.03362*%
%ADD195C,0.0226*%
%ADD196R,0.06709X0.06906*%
%ADD197R,0.04937X0.02969*%
%ADD198C,0.13598*%
%ADD199R,0.06512X0.02181*%
%ADD200R,0.02181X0.06512*%
%ADD201R,0.02575X0.06709*%
*
*
*
*
G04 PC Circuitry*
G04 Layer Name DistanceRadioRover.pcb - circuitry*
%LPD*%
*
*
G04 PC Custom Flashes*
G04 Layer Name DistanceRadioRover.pcb - flashes*
%LPD*%
*
*
G04 PC Circuitry*
G04 Layer Name DistanceRadioRover.pcb - circuitry*
%LPD*%
*
G54D10*
G54D48*
G01X65512Y222313D03*
Y216113D03*
X80630Y34695D03*
Y40895D03*
X78110Y110286D03*
Y116486D03*
X136063Y108927D03*
Y102727D03*
X128504Y20738D03*
Y14538D03*
X80630Y77530D03*
Y83730D03*
X22677Y169399D03*
Y163199D03*
X55433Y54853D03*
Y61053D03*
X30236Y208554D03*
Y214754D03*
X95748Y160680D03*
Y166880D03*
X15118Y98848D03*
Y92648D03*
X148408Y99720D03*
Y93520D03*
X158487Y99720D03*
Y93520D03*
X148222Y68707D03*
Y62507D03*
X158300Y68707D03*
Y62507D03*
X148408Y130734D03*
Y124534D03*
X158487Y130734D03*
Y124534D03*
G54D51*
X21067Y8508D03*
Y18508D03*
X31067Y8508D03*
Y18508D03*
X41067Y8508D03*
Y18508D03*
X51067Y8508D03*
Y18508D03*
X61067Y8508D03*
Y18508D03*
X71067Y8508D03*
Y18508D03*
X81067Y8508D03*
Y18508D03*
X91067Y8508D03*
Y18508D03*
X101067Y8508D03*
Y18508D03*
X111067Y8508D03*
Y18508D03*
X21067Y242258D03*
Y252258D03*
X31067Y242258D03*
Y252258D03*
X41067Y242258D03*
Y252258D03*
X51067Y242258D03*
Y252258D03*
X61067Y242258D03*
Y252258D03*
X71067Y242258D03*
Y252258D03*
X81067Y242258D03*
Y252258D03*
X91067Y242258D03*
Y252258D03*
X101067Y242258D03*
Y252258D03*
X111067Y242258D03*
Y252258D03*
X237134Y223299D03*
Y215425D03*
Y207551D03*
Y199677D03*
Y191803D03*
Y183929D03*
Y176055D03*
Y168181D03*
Y160307D03*
Y152433D03*
X150520Y223299D03*
Y215425D03*
Y207551D03*
Y199677D03*
Y191803D03*
Y183929D03*
Y176055D03*
Y168181D03*
Y160307D03*
Y152433D03*
G54D166*
X68583Y146280D03*
Y151280D03*
Y156280D03*
Y161280D03*
Y166280D03*
Y171280D03*
Y176280D03*
Y181280D03*
X47323D03*
Y176280D03*
Y171280D03*
Y166280D03*
Y161280D03*
Y156280D03*
Y151280D03*
Y146280D03*
G54D195*
X105965Y124975D02*
X101516D01*
Y129621*
X105965*
Y124975*
X101516Y126551D02*
X105965D01*
X101516Y128811D02*
X105965D01*
X101693Y124975D02*
Y129621D01*
X103953Y124975D02*
Y129621D01*
G54D196*
X113740Y127298D03*
X123740D03*
Y141196D03*
X113740D03*
X103740D03*
G54D197*
X21808Y133285D03*
Y135844D03*
Y138403D03*
X13146D03*
Y133285D03*
G54D198*
X13780Y64961D03*
Y194882D03*
X264567D03*
Y64961D03*
G54D199*
X96457Y215748D03*
Y212598D03*
Y209449D03*
Y206299D03*
Y203150D03*
Y200000D03*
Y196850D03*
Y193701D03*
X129528D03*
Y196850D03*
Y200000D03*
Y203150D03*
Y206299D03*
Y209449D03*
Y212598D03*
Y215748D03*
X96457Y79376D03*
Y76227D03*
Y73077D03*
Y69927D03*
Y66778D03*
Y63628D03*
Y60479D03*
Y57329D03*
X129528D03*
Y60479D03*
Y63628D03*
Y66778D03*
Y69927D03*
Y73077D03*
Y76227D03*
Y79376D03*
G54D200*
X101969Y188189D03*
X105118D03*
X108268D03*
X111417D03*
X114567D03*
X117717D03*
X120866D03*
X124016D03*
Y221260D03*
X120866D03*
X117717D03*
X114567D03*
X111417D03*
X108268D03*
X105118D03*
X101969D03*
Y51817D03*
X105118D03*
X108268D03*
X111417D03*
X114567D03*
X117717D03*
X120866D03*
X124016D03*
Y84888D03*
X120866D03*
X117717D03*
X114567D03*
X111417D03*
X108268D03*
X105118D03*
X101969D03*
G54D201*
X65630Y112106D03*
X63071D03*
X60512D03*
X57953D03*
X55394D03*
X52835D03*
X50276D03*
Y89469D03*
X52835D03*
X55394D03*
X57953D03*
X60512D03*
X63071D03*
X65630D03*
X0Y0D02*
M02*
