*
*
G04 PADS 9.3.1 Build Number: 456998 generated Gerber (RS-274-X) file*
G04 PC Version=2.1*
*
%IN "DistanceRadioRover.pcb"*%
*
%MOIN*%
*
%FSLAX35Y35*%
*
*
*
*
G04 PC Standard Apertures*
*
*
G04 Thermal Relief Aperture macro.*
%AMTER*
1,1,$1,0,0*
1,0,$1-$2,0,0*
21,0,$3,$4,0,0,45*
21,0,$3,$4,0,0,135*
%
*
*
G04 Annular Aperture macro.*
%AMANN*
1,1,$1,0,0*
1,0,$2,0,0*
%
*
*
G04 Odd Aperture macro.*
%AMODD*
1,1,$1,0,0*
1,0,$1-0.005,0,0*
%
*
*
G04 PC Custom Aperture Macros*
*
*
*
*
*
*
G04 PC Aperture Table*
*
%ADD010C,0.001*%
%ADD023R,0.03X0.038*%
%ADD026C,0.06*%
%ADD033C,0.006*%
%ADD037C,0.055*%
%ADD140R,0.05906X0.02362*%
%ADD188R,0.05512X0.01181*%
%ADD189R,0.01181X0.05512*%
%ADD190C,0.0126*%
%ADD191R,0.05709X0.05906*%
%ADD192R,0.01575X0.05709*%
%ADD193R,0.03937X0.01969*%
%ADD194C,0.12598*%
*
*
*
*
G04 PC Circuitry*
G04 Layer Name DistanceRadioRover.pcb - circuitry*
%LPD*%
*
*
G04 PC Custom Flashes*
G04 Layer Name DistanceRadioRover.pcb - flashes*
%LPD*%
*
*
G04 PC Circuitry*
G04 Layer Name DistanceRadioRover.pcb - circuitry*
%LPD*%
*
G54D10*
G54D23*
G01X65512Y222313D03*
Y216113D03*
X80630Y34695D03*
Y40895D03*
X78110Y110286D03*
Y116486D03*
X136063Y108927D03*
Y102727D03*
X128504Y20738D03*
Y14538D03*
X80630Y77530D03*
Y83730D03*
X22677Y169399D03*
Y163199D03*
X55433Y54853D03*
Y61053D03*
X30236Y208554D03*
Y214754D03*
X95748Y160680D03*
Y166880D03*
X15118Y98848D03*
Y92648D03*
X148408Y99720D03*
Y93520D03*
X158487Y99720D03*
Y93520D03*
X148222Y68707D03*
Y62507D03*
X158300Y68707D03*
Y62507D03*
X148408Y130734D03*
Y124534D03*
X158487Y130734D03*
Y124534D03*
G54D26*
X21067Y8508D03*
Y18508D03*
X31067Y8508D03*
Y18508D03*
X41067Y8508D03*
Y18508D03*
X51067Y8508D03*
Y18508D03*
X61067Y8508D03*
Y18508D03*
X71067Y8508D03*
Y18508D03*
X81067Y8508D03*
Y18508D03*
X91067Y8508D03*
Y18508D03*
X101067Y8508D03*
Y18508D03*
X111067Y8508D03*
Y18508D03*
X21067Y242258D03*
Y252258D03*
X31067Y242258D03*
Y252258D03*
X41067Y242258D03*
Y252258D03*
X51067Y242258D03*
Y252258D03*
X61067Y242258D03*
Y252258D03*
X71067Y242258D03*
Y252258D03*
X81067Y242258D03*
Y252258D03*
X91067Y242258D03*
Y252258D03*
X101067Y242258D03*
Y252258D03*
X111067Y242258D03*
Y252258D03*
X237134Y223299D03*
Y215425D03*
Y207551D03*
Y199677D03*
Y191803D03*
Y183929D03*
Y176055D03*
Y168181D03*
Y160307D03*
Y152433D03*
X150520Y223299D03*
Y215425D03*
Y207551D03*
Y199677D03*
Y191803D03*
Y183929D03*
Y176055D03*
Y168181D03*
Y160307D03*
Y152433D03*
G54D33*
X101067Y18508D02*
X111067D01*
X91067D02*
X95259D01*
X99428Y22677*
X118289*
X120228Y20738*
X128504*
X111067Y18508D02*
X118289D01*
X122259Y14538*
X128504*
X80630Y40895D02*
Y41295D01*
X86203Y46868*
Y46896*
X92220Y52913*
X80630Y34695D02*
Y34295D01*
X91067Y23858*
Y18508*
X80630Y34695D02*
Y35095D01*
X96457Y50922*
Y57329*
X98268Y47370D02*
X101678Y49361D01*
X101969Y49531*
Y51817*
X55433Y61053D02*
X60565D01*
X64169Y57449*
X89888*
X92628Y60188*
X96457*
Y60479*
X55433Y54853D02*
X88994D01*
X91470Y57329*
X96457*
X67024Y62488D02*
X73575D01*
X77105Y58958*
X89696*
X92792Y62053*
X99501*
X117717Y80269*
Y84888*
X79622Y64504D02*
X83968Y60158D01*
X89196*
X92666Y63628*
X96457*
X87181Y65008D02*
X91205Y66146D01*
X93412Y68353*
X99501*
X100113Y68964*
Y74040*
X101969Y51817D02*
Y49652D01*
X103746Y47874*
X115939*
X117717Y49652*
Y51817*
X96457Y57329D02*
X98849D01*
X98913Y57038*
X99253Y55473*
X113076*
X114567Y53983*
Y51817*
X96457Y60479D02*
X97350D01*
X102803Y59465*
X110866Y68031D02*
X119246D01*
X121142Y69927*
X129528*
X120866Y51817D02*
Y49361D01*
X124016*
Y51817*
X117717D02*
Y49361D01*
X120866*
Y51817*
X131983Y66778D02*
X129528D01*
X131983*
Y69927*
Y63628D02*
X129528D01*
X131983*
Y66778*
Y60479D02*
X129528D01*
X131983*
Y63628*
X129528Y57329D02*
X131983D01*
Y60479*
X124016Y51817D02*
Y53983D01*
X127362Y57329*
X129528*
X148222Y62507D02*
X158300D01*
X80630Y83730D02*
X85510D01*
X85586Y83654*
X91717*
X80630Y77530D02*
Y77930D01*
X84338Y81638*
X87937*
X90199Y79376*
X96457*
X92801Y77190D02*
X93412Y77801D01*
X96372*
X96457Y77886*
Y79376*
X92801Y77190D02*
Y75263D01*
X93481Y74583*
X99570*
X100113Y74040*
X97764Y88189D02*
X101969Y87281D01*
Y84888*
X82142Y71559D02*
Y67528D01*
X83402Y66268*
Y63626*
X85669Y61358*
X88696*
X92527Y65190*
X92703*
X94291Y66778*
X96457*
X90205Y70551D02*
X94001Y70218D01*
X96457*
Y69927*
X86173Y77606D02*
X89166Y74613D01*
X91555*
X92801Y73368*
X96457*
Y73077*
Y76227D02*
X97875D01*
X102803Y77606*
X96457Y79376D02*
X98622D01*
X101969Y82723*
Y84888*
X110362Y78614D02*
X114567Y82716D01*
Y84888*
X108268D02*
Y166825D01*
X114012Y172570*
Y182015*
X111417Y84888D02*
Y92108D01*
X114898Y95589*
Y102803*
X120866Y84888D02*
Y86944D01*
X123969Y91213*
X124016Y84888D02*
Y85669D01*
X128504*
X129528Y73077D02*
X131693D01*
X132920Y74304*
X133183Y75263*
Y80340*
X131983Y69927D02*
X129528D01*
X138976*
X140608Y71559*
X155448*
X155964Y71043*
X157100Y70307*
X158300Y69529*
Y68707*
Y80084*
X160887Y82671*
Y97447*
X148222Y68707D02*
Y67133D01*
X149422Y67107*
X153197Y67024*
X10278Y92816D02*
Y135535D01*
X10992Y136249*
X11478Y137719*
X11704Y138403*
X13146*
X10278Y92816D02*
X17424Y85669D01*
X51391*
X52979Y87257*
Y89469*
X18142Y105323D02*
X24925Y112106D01*
X50276*
X15118Y92648D02*
Y93470D01*
X16318Y94248*
X17455Y94984*
X18142Y95672*
Y105323*
X22173Y94740D02*
X47071D01*
X50276Y91535*
Y89469*
X50131Y91680D02*
X52184Y93732D01*
X70047*
X50131Y91680D02*
Y89469D01*
X50276*
X52835D02*
X52979D01*
X75591Y108346D02*
Y113566D01*
X78110Y116086*
Y116486*
X75591Y108346D02*
Y89169D01*
X80630Y84130*
Y83730*
X65630Y89469D02*
X69091D01*
X80630Y77930*
Y77530*
X98268Y94740D02*
X102370Y90638D01*
Y89802*
X105118Y87053*
Y84888*
X136063Y102727D02*
Y102327D01*
X141634Y96756*
X151685*
X154649Y99720*
X158487*
Y98793*
X160887Y97447*
X158487Y99720D02*
Y111191D01*
X160887Y113591*
Y128396*
X148408Y93520D02*
X158487D01*
X50131Y109895D02*
X51680Y108346D01*
X75591*
X50131Y109895D02*
Y112106D01*
X50276*
X78110Y110286D02*
Y109886D01*
X87181Y100815*
Y98772*
X97764Y88189*
X78110Y110286D02*
Y110686D01*
X94723Y127298*
X103740*
Y141196*
X133039Y115402D02*
Y105750D01*
X133727Y105063*
X134863Y104327*
X136063Y103549*
Y102727*
Y108927D02*
Y109315D01*
X137263Y110527*
X140094Y113386*
X123740Y127298D02*
X124472D01*
Y120945*
X146008Y126807D02*
Y113591D01*
X148408Y111191*
Y99720*
X146008Y126807D02*
X146698Y127496D01*
X150210*
X206643Y183929*
X237134*
X148408Y124534D02*
X158487D01*
X18646Y142614D02*
Y151316D01*
X22677Y155347*
Y163199*
X18646Y142614D02*
X20429Y138403D01*
X21808*
X13146Y133285D02*
Y104388D01*
X15118Y102416*
Y98848*
X13146Y133285D02*
X14131D01*
X16015Y135169*
Y139922*
X13146Y133285D02*
X14601D01*
X14815Y132601*
X15261Y131170*
X15408Y131024*
X30295*
X45551Y146280*
X47323*
X21808Y135844D02*
X24676D01*
X40190Y151358*
Y175918*
X45551Y181280*
X47323*
X21808Y133285D02*
X26954D01*
X42331Y148661*
X59465*
X62083Y151280*
X68583*
X113740Y141196D02*
Y137343D01*
X117494Y130624*
X119207Y88017*
X119376Y81759*
X119903Y81232*
X126135Y77454*
X127362Y76227*
X129528*
X113740Y141196D02*
Y145049D01*
X116057Y185060*
X116226Y191318*
X126135Y211371*
X127362Y212598*
X129528*
X123740Y141196D02*
Y137343D01*
X127494Y130624*
X133183Y80340*
X158487Y130734D02*
Y129872D01*
X160887Y128396*
X158487Y130734D02*
Y131134D01*
X179786Y152433*
X237134*
X14614Y160936D02*
Y141322D01*
X16015Y139922*
X14614Y160936D02*
X22677Y168999D01*
Y169399*
Y163199D02*
X27305D01*
X27382Y163276*
X33260*
X56945Y154205D02*
X64020Y161280D01*
X68583*
X57953Y161764D02*
Y172469D01*
X61763Y176280*
X68583*
Y161280D02*
X82055D01*
X84555Y163780*
X101291*
X68583Y156280D02*
Y156220D01*
X75087*
X91717D02*
X95748Y160291D01*
Y160680*
Y166880D02*
X98689D01*
X99620Y167811*
X105949*
X108850Y170712*
Y172973*
X95748Y160680D02*
Y160280D01*
X103740Y152287*
Y141196*
X146620Y164281D02*
Y143070D01*
X148408Y141281*
Y130734*
X146620Y164281D02*
X150520Y168181D01*
X22677Y169399D02*
Y184558D01*
X26205Y188086*
Y204094*
X61480Y188472D02*
X66520D01*
X69543Y191496*
X84587*
X92801Y199709*
X96457*
Y200000*
X61984Y171339D02*
X68583D01*
Y171280*
Y181280D02*
X77469D01*
X80630Y184441*
X91213*
X94236Y181417*
X99780*
X68583Y181280D02*
X70551D01*
Y185953*
X68583Y176280D02*
X76500D01*
X80630Y180409*
X88189*
X68583Y171280D02*
X99057D01*
X99620Y171843*
X104819*
X99780Y181417D02*
X104032Y177164D01*
X104659*
X108850Y172973*
X99780Y181417D02*
X101969Y186394D01*
Y188189*
X110362Y178394D02*
Y182761D01*
X111417Y183816*
Y188189*
X117717D02*
Y185733D01*
X120866*
Y188189*
X117717D02*
Y179611D01*
X118929Y178399*
Y169827*
X122525Y185060D02*
Y191318D01*
X125872Y207263*
X126135Y208222*
X127362Y209449*
X129528*
X122525Y185060D02*
X123740Y145049D01*
Y141196*
X124016Y188189D02*
Y185753D01*
X124306Y185733*
X128504Y185449*
X124016Y188189D02*
Y190354D01*
X127362Y193701*
X129528*
X26205Y204094D02*
X30236Y208165D01*
Y208554*
X34268Y204094D02*
Y208630D01*
X35276Y209638*
Y214173*
X58961Y207118D02*
Y206996D01*
X76721*
X77102Y206614*
X91457*
X94291Y209449*
X96457*
X54929Y201575D02*
X89567D01*
X94291Y206299*
X96457*
X59465Y195024D02*
X86165D01*
X94291Y203150*
X96457*
X92801Y197814D02*
X93412Y198425D01*
X99501*
X100113Y199037*
Y214257*
X92801Y197814D02*
Y195191D01*
X94291Y193701*
X96457*
X92220Y188976D02*
X94001Y193410D01*
X94117Y193701*
X96457*
X104756*
X109606Y198551*
X111997*
X114567Y195981*
Y188189*
X96457Y196850D02*
X98622D01*
X100006Y195466*
X101230*
X103811Y198047*
X110866Y194520D02*
X112908Y191400D01*
Y183119*
X114012Y182015*
X131983Y206299D02*
X129528D01*
X131693*
X133183Y207790*
X131983Y203150D02*
X129528D01*
X131983*
Y206299*
Y200000D02*
X129528D01*
X131983*
Y203150*
Y196850D02*
X129528D01*
X131983*
Y200000*
X129528Y193701D02*
X131983D01*
Y196850*
X27836Y217026D02*
X28511Y217701D01*
X33352*
X33856Y218205*
X37291*
X37795Y217701*
X61300*
X65512Y221913*
Y222313*
X27836Y217026D02*
Y211354D01*
X30236Y208954*
Y208554*
X35276Y214173D02*
X50049D01*
X51988Y216113*
X65512*
X31244Y222740D02*
X36017Y227513D01*
X86722*
X87586Y226649*
X97406*
X98072Y227316*
X107527*
X111417Y223425*
Y221260*
X22677Y214173D02*
X27499Y218995D01*
X32661*
X35528Y221862*
Y222611*
X39229Y226313*
X80079*
X80942Y225449*
X98552*
X99219Y226116*
X105577*
X108268Y223425*
Y221260*
X39811Y221732D02*
X51860D01*
X55240Y225113*
X73459*
X74323Y224249*
X99697*
X100363Y224916*
X103628*
X105118Y223425*
Y221260*
X30236Y214754D02*
Y214173D01*
X35276*
X64000Y210646D02*
X92339D01*
X94291Y212598*
X96457*
X65512Y216113D02*
Y216189D01*
X70551*
X65512Y222313D02*
X87727D01*
X94291Y215748*
X96457*
X101969Y221260D02*
Y219094D01*
X103459Y217604*
X112381*
X112992Y218215*
Y224304*
X113604Y224916*
X115530*
X116142Y224304*
Y218215*
X116753Y217604*
X122525*
X124016Y219094*
Y221260*
X96457Y215748D02*
X98622D01*
X100113Y214257*
X96457Y215748D02*
X98622D01*
X101969Y219094*
Y221260*
X114567D02*
Y217604D01*
X117998Y214173*
X132572*
X133183Y213562*
Y207790*
X124016Y221260D02*
X136275D01*
X138136Y219399*
X190734*
X194634Y223299*
X237134*
X21067Y242258D02*
X31067D01*
X22173Y234331D02*
X109999D01*
X119433Y224896*
Y224858*
X120866Y223425*
Y221260*
X41067Y242258D02*
X51067D01*
X95244Y230299D02*
X112333D01*
X117717Y224916*
Y221260*
X41067Y252258D02*
X51067D01*
G54D37*
X98268Y47370D03*
X67024Y62488D03*
X79622Y64504D03*
X87181Y65008D03*
X92220Y52913D03*
X110866Y68031D03*
X102803Y59465D03*
X153197Y67024D03*
X97764Y88189D03*
X91717Y83654D03*
X82142Y71559D03*
X90205Y70551D03*
X86173Y77606D03*
X110362Y78614D03*
X102803Y77606D03*
X128504Y85669D03*
X18142Y105323D03*
X22173Y94740D03*
X70047Y93732D03*
X98268Y94740D03*
X114898Y102803D03*
X123969Y91213D03*
X140094Y113386D03*
X133039Y115402D03*
X124472Y120945D03*
X18646Y142614D03*
X33260Y163276D03*
X56945Y154205D03*
X57953Y161764D03*
X75087Y156220D03*
X91717D03*
X101291Y163780D03*
X61480Y188472D03*
X61984Y171339D03*
X70551Y185953D03*
X99780Y181417D03*
X88189Y180409D03*
X118929Y169827D03*
X104819Y171843D03*
X110362Y178394D03*
X128504Y185449D03*
X26205Y204094D03*
X34268D03*
X58961Y207118D03*
X54929Y201575D03*
X59465Y195024D03*
X92220Y188976D03*
X103811Y198047D03*
X110866Y194520D03*
X35276Y214173D03*
X31244Y222740D03*
X22677Y214173D03*
X39811Y221732D03*
X70551Y216189D03*
X64000Y210646D03*
X22173Y234331D03*
X95244Y230299D03*
G54D140*
X68583Y146280D03*
Y151280D03*
Y156280D03*
Y161280D03*
Y166280D03*
Y171280D03*
Y176280D03*
Y181280D03*
X47323D03*
Y176280D03*
Y171280D03*
Y166280D03*
Y161280D03*
Y156280D03*
Y151280D03*
Y146280D03*
G54D188*
X96457Y215748D03*
Y212598D03*
Y209449D03*
Y206299D03*
Y203150D03*
Y200000D03*
Y196850D03*
Y193701D03*
X129528D03*
Y196850D03*
Y200000D03*
Y203150D03*
Y206299D03*
Y209449D03*
Y212598D03*
Y215748D03*
X96457Y79376D03*
Y76227D03*
Y73077D03*
Y69927D03*
Y66778D03*
Y63628D03*
Y60479D03*
Y57329D03*
X129528D03*
Y60479D03*
Y63628D03*
Y66778D03*
Y69927D03*
Y73077D03*
Y76227D03*
Y79376D03*
G54D189*
X101969Y188189D03*
X105118D03*
X108268D03*
X111417D03*
X114567D03*
X117717D03*
X120866D03*
X124016D03*
Y221260D03*
X120866D03*
X117717D03*
X114567D03*
X111417D03*
X108268D03*
X105118D03*
X101969D03*
Y51817D03*
X105118D03*
X108268D03*
X111417D03*
X114567D03*
X117717D03*
X120866D03*
X124016D03*
Y84888D03*
X120866D03*
X117717D03*
X114567D03*
X111417D03*
X108268D03*
X105118D03*
X101969D03*
G54D190*
X105965Y124975D02*
X101516D01*
Y129621*
X105965*
Y124975*
X101516Y125984D02*
X105965D01*
X101516Y127244D02*
X105965D01*
X101516Y128504D02*
X105965D01*
X102047Y124975D02*
Y129621D01*
X103307Y124975D02*
Y129621D01*
X104567Y124975D02*
Y129621D01*
X105827Y124975D02*
Y129621D01*
G54D191*
X113740Y127298D03*
X123740D03*
Y141196D03*
X113740D03*
X103740D03*
G54D192*
X65630Y112106D03*
X63071D03*
X60512D03*
X57953D03*
X55394D03*
X52835D03*
X50276D03*
Y89469D03*
X52835D03*
X55394D03*
X57953D03*
X60512D03*
X63071D03*
X65630D03*
G54D193*
X21808Y133285D03*
Y135844D03*
Y138403D03*
X13146D03*
Y133285D03*
G54D194*
X13780Y64961D03*
Y194882D03*
X264567D03*
Y64961D03*
X0Y0D02*
M02*
