*
*
G04 PADS 9.3.1 Build Number: 456998 generated Gerber (RS-274-X) file*
G04 PC Version=2.1*
*
%IN "DistanceRadioRover.pcb"*%
*
%MOIN*%
*
%FSLAX35Y35*%
*
*
*
*
G04 PC Standard Apertures*
*
*
G04 Thermal Relief Aperture macro.*
%AMTER*
1,1,$1,0,0*
1,0,$1-$2,0,0*
21,0,$3,$4,0,0,45*
21,0,$3,$4,0,0,135*
%
*
*
G04 Annular Aperture macro.*
%AMANN*
1,1,$1,0,0*
1,0,$2,0,0*
%
*
*
G04 Odd Aperture macro.*
%AMODD*
1,1,$1,0,0*
1,0,$1-0.005,0,0*
%
*
*
G04 PC Custom Aperture Macros*
*
*
*
*
*
*
G04 PC Aperture Table*
*
%ADD010C,0.001*%
%ADD011C,0.01*%
%ADD040C,0.00787*%
%ADD202C,0.00504*%
%ADD203C,0.00866*%
*
*
*
*
G04 PC Circuitry*
G04 Layer Name DistanceRadioRover.pcb - circuitry*
%LPD*%
*
*
G04 PC Custom Flashes*
G04 Layer Name DistanceRadioRover.pcb - flashes*
%LPD*%
*
*
G04 PC Circuitry*
G04 Layer Name DistanceRadioRover.pcb - circuitry*
%LPD*%
*
G54D10*
G54D11*
G01X69012Y220413D02*
Y226213D01*
X62012*
Y220413*
X69012Y218013D02*
Y212213D01*
X62012*
Y218013*
X77130Y36595D02*
Y30795D01*
X84130*
Y36595*
X77130Y38995D02*
Y44795D01*
X84130*
Y38995*
X74610Y112186D02*
Y106386D01*
X81610*
Y112186*
X74610Y114586D02*
Y120386D01*
X81610*
Y114586*
X139563Y107027D02*
Y112827D01*
X132563*
Y107027*
X139563Y104627D02*
Y98827D01*
X132563*
Y104627*
X132004Y18838D02*
Y24638D01*
X125004*
Y18838*
X132004Y16438D02*
Y10638D01*
X125004*
Y16438*
X77130Y79430D02*
Y73630D01*
X84130*
Y79430*
X77130Y81830D02*
Y87630D01*
X84130*
Y81830*
X26177Y167499D02*
Y173299D01*
X19177*
Y167499*
X26177Y165099D02*
Y159299D01*
X19177*
Y165099*
X51933Y56753D02*
Y50953D01*
X58933*
Y56753*
X51933Y59153D02*
Y64953D01*
X58933*
Y59153*
X26736Y210454D02*
Y204654D01*
X33736*
Y210454*
X26736Y212854D02*
Y218654D01*
X33736*
Y212854*
X92248Y162580D02*
Y156780D01*
X99248*
Y162580*
X92248Y164980D02*
Y170780D01*
X99248*
Y164980*
X18618Y96948D02*
Y102748D01*
X11618*
Y96948*
X18618Y94548D02*
Y88748D01*
X11618*
Y94548*
X151908Y97820D02*
Y103620D01*
X144908*
Y97820*
X151908Y95420D02*
Y89620D01*
X144908*
Y95420*
X161987Y97820D02*
Y103620D01*
X154987*
Y97820*
X161987Y95420D02*
Y89620D01*
X154987*
Y95420*
X151722Y66807D02*
Y72607D01*
X144722*
Y66807*
X151722Y64407D02*
Y58607D01*
X144722*
Y64407*
X161800Y66807D02*
Y72607D01*
X154800*
Y66807*
X161800Y64407D02*
Y58607D01*
X154800*
Y64407*
X151908Y128834D02*
Y134634D01*
X144908*
Y128834*
X151908Y126434D02*
Y120634D01*
X144908*
Y126434*
X161987Y128834D02*
Y134634D01*
X154987*
Y128834*
X161987Y126434D02*
Y120634D01*
X154987*
Y126434*
X183937Y130027D02*
X187119Y123465D01*
Y130027D02*
X183937Y123465D01*
X189164Y130027D02*
Y123465D01*
Y130027D02*
X191210D01*
X191892Y129715*
X192119Y129402*
X192346Y128777*
Y128152*
X192119Y127527*
X191892Y127215*
X191210Y126902*
X189164D02*
X191210D01*
X191892Y126590*
X192119Y126277*
X192346Y125652*
Y124715*
X192119Y124090*
X191892Y123777*
X191210Y123465*
X189164*
X194392Y125965D02*
X197119D01*
Y126590*
X196892Y127215*
X196664Y127527*
X196210Y127840*
X195528*
X195073Y127527*
X194619Y126902*
X194392Y125965*
Y125340*
X194619Y124402*
X195073Y123777*
X195528Y123465*
X196210*
X196664Y123777*
X197119Y124402*
X199164Y125965D02*
X201892D01*
Y126590*
X201664Y127215*
X201437Y127527*
X200982Y127840*
X200301*
X199846Y127527*
X199392Y126902*
X199164Y125965*
Y125340*
X199392Y124402*
X199846Y123777*
X200301Y123465*
X200982*
X201437Y123777*
X201892Y124402*
X210528Y130027D02*
X210073Y129715D01*
X209619Y129090*
X209392Y128465*
X209164Y127527*
Y125965*
X209392Y125027*
X209619Y124402*
X210073Y123777*
X210528Y123465*
X211437*
X211892Y123777*
X212346Y124402*
X212573Y125027*
X212801Y125965*
Y127527*
X212573Y128465*
X212346Y129090*
X211892Y129715*
X211437Y130027*
X210528*
X214846Y127840D02*
Y123465D01*
Y126590D02*
X215528Y127527D01*
X215982Y127840*
X216664*
X217119Y127527*
X217346Y126590*
Y123465*
X183937Y99791D02*
X187119Y93228D01*
Y99791D02*
X183937Y93228D01*
X189164Y99791D02*
Y93228D01*
Y99791D02*
X191210D01*
X191892Y99478*
X192119Y99166*
X192346Y98541*
Y97916*
X192119Y97291*
X191892Y96978*
X191210Y96666*
X189164D02*
X191210D01*
X191892Y96353*
X192119Y96041*
X192346Y95416*
Y94478*
X192119Y93853*
X191892Y93541*
X191210Y93228*
X189164*
X194392Y95728D02*
X197119D01*
Y96353*
X196892Y96978*
X196664Y97291*
X196210Y97603*
X195528*
X195073Y97291*
X194619Y96666*
X194392Y95728*
Y95103*
X194619Y94166*
X195073Y93541*
X195528Y93228*
X196210*
X196664Y93541*
X197119Y94166*
X199164Y95728D02*
X201892D01*
Y96353*
X201664Y96978*
X201437Y97291*
X200982Y97603*
X200301*
X199846Y97291*
X199392Y96666*
X199164Y95728*
Y95103*
X199392Y94166*
X199846Y93541*
X200301Y93228*
X200982*
X201437Y93541*
X201892Y94166*
X209164Y99791D02*
Y93228D01*
Y99791D02*
X211210D01*
X211892Y99478*
X212119Y99166*
X212346Y98541*
Y97916*
X212119Y97291*
X211892Y96978*
X211210Y96666*
X209164*
X210755D02*
X212346Y93228D01*
X217573Y98853D02*
X217119Y99478D01*
X216437Y99791*
X215528*
X214846Y99478*
X214392Y98853*
Y98228*
X214619Y97603*
X214846Y97291*
X215301Y96978*
X216664Y96353*
X217119Y96041*
X217346Y95728*
X217573Y95103*
Y94166*
X217119Y93541*
X216437Y93228*
X215528*
X214846Y93541*
X214392Y94166*
X222801Y98853D02*
X222346Y99478D01*
X221664Y99791*
X220755*
X220073Y99478*
X219619Y98853*
Y98228*
X219846Y97603*
X220073Y97291*
X220528Y96978*
X221892Y96353*
X222346Y96041*
X222573Y95728*
X222801Y95103*
Y94166*
X222346Y93541*
X221664Y93228*
X220755*
X220073Y93541*
X219619Y94166*
X224846Y99791D02*
Y93228D01*
X183937Y69555D02*
X187119Y62992D01*
Y69555D02*
X183937Y62992D01*
X189164Y69555D02*
Y62992D01*
Y69555D02*
X191210D01*
X191892Y69242*
X192119Y68930*
X192346Y68305*
Y67680*
X192119Y67055*
X191892Y66742*
X191210Y66430*
X189164D02*
X191210D01*
X191892Y66117*
X192119Y65805*
X192346Y65180*
Y64242*
X192119Y63617*
X191892Y63305*
X191210Y62992*
X189164*
X194392Y65492D02*
X197119D01*
Y66117*
X196892Y66742*
X196664Y67055*
X196210Y67367*
X195528*
X195073Y67055*
X194619Y66430*
X194392Y65492*
Y64867*
X194619Y63930*
X195073Y63305*
X195528Y62992*
X196210*
X196664Y63305*
X197119Y63930*
X199164Y65492D02*
X201892D01*
Y66117*
X201664Y66742*
X201437Y67055*
X200982Y67367*
X200301*
X199846Y67055*
X199392Y66430*
X199164Y65492*
Y64867*
X199392Y63930*
X199846Y63305*
X200301Y62992*
X200982*
X201437Y63305*
X201892Y63930*
X210982Y69555D02*
X209164Y62992D01*
X210982Y69555D02*
X212801Y62992D01*
X209846Y65180D02*
X212119D01*
X217346Y66430D02*
X217119Y67055D01*
X216437Y67367*
X215755*
X215073Y67055*
X214846Y66430*
X215073Y65805*
X215528Y65492*
X216664Y65180*
X217119Y64867*
X217346Y64242*
Y63930*
X217119Y63305*
X216437Y62992*
X215755*
X215073Y63305*
X214846Y63930*
X221892Y66430D02*
X221664Y67055D01*
X220982Y67367*
X220301*
X219619Y67055*
X219392Y66430*
X219619Y65805*
X220073Y65492*
X221210Y65180*
X221664Y64867*
X221892Y64242*
Y63930*
X221664Y63305*
X220982Y62992*
X220301*
X219619Y63305*
X219392Y63930*
X225073Y67367D02*
X224619Y67055D01*
X224164Y66430*
X223937Y65492*
Y64867*
X224164Y63930*
X224619Y63305*
X225073Y62992*
X225755*
X226210Y63305*
X226664Y63930*
X226892Y64867*
Y65492*
X226664Y66430*
X226210Y67055*
X225755Y67367*
X225073*
X231664Y66430D02*
X231210Y67055D01*
X230755Y67367*
X230073*
X229619Y67055*
X229164Y66430*
X228937Y65492*
Y64867*
X229164Y63930*
X229619Y63305*
X230073Y62992*
X230755*
X231210Y63305*
X231664Y63930*
X233710Y69555D02*
X233937Y69242D01*
X234164Y69555*
X233937Y69867*
X233710Y69555*
X233937Y67367D02*
Y62992D01*
X238937Y67367D02*
Y62992D01*
Y66430D02*
X238482Y67055D01*
X238028Y67367*
X237346*
X236892Y67055*
X236437Y66430*
X236210Y65492*
Y64867*
X236437Y63930*
X236892Y63305*
X237346Y62992*
X238028*
X238482Y63305*
X238937Y63930*
X241664Y69555D02*
Y64242D01*
X241892Y63305*
X242346Y62992*
X242801*
X240982Y67367D02*
X242573D01*
X244846Y65492D02*
X247573D01*
Y66117*
X247346Y66742*
X247119Y67055*
X246664Y67367*
X245982*
X245528Y67055*
X245073Y66430*
X244846Y65492*
Y64867*
X245073Y63930*
X245528Y63305*
X245982Y62992*
X246664*
X247119Y63305*
X247573Y63930*
X144646Y232520D02*
X164646Y252520D01*
X224646*
X244646Y232520*
X144646*
X164646Y142520D02*
X224646D01*
G54D40*
X100591Y192323D02*
X125394D01*
Y217126*
X100591*
Y216339*
X101772Y215748*
X100591Y215157*
Y192323*
Y55951D02*
X125394D01*
Y80754*
X100591*
Y79967*
X101772Y79376*
X100591Y78786*
Y55951*
X67795Y107874D02*
Y101673D01*
X66565*
Y99902*
X67795*
Y93701*
X48110*
Y107874*
X67795*
X64252Y144291D02*
X58740D01*
Y146727*
X57165*
Y144291*
X51654*
Y183268*
X64252*
Y144291*
G54D202*
X122457Y230079D02*
Y227717D01*
X122571Y227244*
X122800Y226929*
X123144Y226772*
X123373*
X123717Y226929*
X123946Y227244*
X124060Y227717*
Y230079*
X125091Y229449D02*
X125320Y229606D01*
X125664Y230079*
Y226772*
X125984Y47654D02*
Y45291D01*
X126099Y44819*
X126328Y44504*
X126671Y44346*
X126901*
X126901D02*
X127244Y44504D01*
X127473Y44819*
X127588Y45291*
Y47654*
X128733Y46866D02*
Y47024D01*
X128848Y47339*
X128962Y47496*
X129191Y47654*
X129649*
X129878Y47496*
X129993Y47339*
X130107Y47024*
Y46709*
X129993Y46394*
X129764Y45921*
X128618Y44346*
X130222*
X97740Y120605D02*
X99344Y117298D01*
Y120605D02*
X97740Y117298D01*
X100374Y119975D02*
X100603Y120133D01*
X100947Y120605*
Y117298*
X41827Y102583D02*
Y100220D01*
X41941Y99748*
X42170Y99433*
X42514Y99276*
X42743*
X43087Y99433*
X43316Y99748*
X43430Y100220*
Y102583*
X45835Y102110D02*
X45721Y102425D01*
X45377Y102583*
X45148*
X44805Y102425*
X44576Y101953*
X44461Y101165*
Y100378*
X44576Y99748*
X44805Y99433*
X45148Y99276*
X45263*
X45606Y99433*
X45835Y99748*
X45950Y100220*
Y100378*
X45835Y100850*
X45606Y101165*
X45263Y101323*
X45148*
X44805Y101165*
X44576Y100850*
X44461Y100378*
X64710Y231307D02*
X64596Y231622D01*
X64366Y231937*
X64366D02*
X64137Y232094D01*
X63679*
X63450Y231937*
X63221Y231622*
X63107Y231307*
X62992Y230835*
Y230047*
X63107Y229575*
X63221Y229260*
X63450Y228945*
X63679Y228787*
X64137*
X64366Y228945*
X64366D02*
X64596Y229260D01*
X64710Y229575*
X65741Y231465D02*
X65970Y231622D01*
X66314Y232094*
Y228787*
X79324Y48882D02*
X79210Y49197D01*
X78981Y49512*
X78752Y49669*
X78293*
X78064Y49512*
X77835Y49197*
X77721Y48882*
X77606Y48409*
Y47622*
X77721Y47150*
X77835Y46835*
X78064Y46520*
X78293Y46362*
X78752*
X78981Y46520*
X79210Y46835*
X79324Y47150*
X80470Y48882D02*
Y49039D01*
X80584Y49354*
X80699Y49512*
X80928Y49669*
X81386*
X81615Y49512*
X81729Y49354*
X81844Y49039*
Y48724*
X81729Y48409*
X81500Y47937*
X80355Y46362*
X81958*
X77309Y125480D02*
X77194Y125795D01*
X76965Y126110*
X76736Y126268*
X76278*
X76049Y126110*
X75820Y125795*
X75705Y125480*
X75591Y125008*
Y124220*
X75705Y123748*
X75820Y123433*
X76049Y123118*
X76278Y122961*
X76736*
X76965Y123118*
X77194Y123433*
X77309Y123748*
X79485Y126268D02*
X78339Y124063D01*
X80057*
X79485Y126268D02*
Y122961D01*
X127198Y106835D02*
X127084Y107150D01*
X126855Y107465*
X126626Y107622*
X126168*
X126168D02*
X125938Y107465D01*
X125709Y107150*
X125595Y106835*
X125480Y106362*
Y105575*
X125595Y105102*
X125709Y104787*
X125938Y104472*
X126168Y104315*
X126168D02*
X126626D01*
X126855Y104472*
X127084Y104787*
X127198Y105102*
X129718Y107622D02*
X128573D01*
X128458Y106205*
X128573Y106362*
X128916Y106520*
X129260*
X129603Y106362*
X129832Y106047*
X129832D02*
X129947Y105575D01*
X129832Y105260*
X129832D02*
X129718Y104787D01*
X129489Y104472*
X129145Y104315*
X128802*
X128458Y104472*
X128344Y104630*
X128229Y104945*
X127198Y29732D02*
X127084Y30047D01*
X126855Y30362*
X126626Y30520*
X126168*
X126168D02*
X125938Y30362D01*
X125709Y30047*
X125595Y29732*
X125480Y29260*
Y28472*
X125595Y28000*
X125709Y27685*
X125938Y27370*
X126168Y27213*
X126168D02*
X126626D01*
X126855Y27370*
X127084Y27685*
X127198Y28000*
X129603Y30047D02*
X129489Y30362D01*
X129145Y30520*
X128916*
X128573Y30362*
X128344Y29890*
X128229Y29102*
Y28315*
X128344Y27685*
X128573Y27370*
X128916Y27213*
X129031*
X129374Y27370*
X129603Y27685*
X129718Y28157*
Y28315*
X129603Y28787*
X129374Y29102*
X129031Y29260*
X128916*
X128573Y29102*
X128344Y28787*
X128229Y28315*
X79828Y92724D02*
X79714Y93039D01*
X79485Y93354*
X79256Y93512*
X78797*
X78568Y93354*
X78339Y93039*
X78225Y92724*
X78110Y92252*
Y91465*
X78225Y90992*
X78339Y90677*
X78568Y90362*
X78797Y90205*
X79256*
X79485Y90362*
X79714Y90677*
X79828Y90992*
X82462Y93512D02*
X81317Y90205D01*
X80859Y93512D02*
X82462D01*
X25907Y177890D02*
X25792Y178205D01*
X25563Y178520*
X25334Y178677*
X24876*
X24647Y178520*
X24418Y178205*
X24304Y177890*
X24189Y177417*
Y176630*
X24304Y176157*
X24418Y175843*
X24647Y175528*
X24876Y175370*
X25334*
X25563Y175528*
X25792Y175843*
X25907Y176157*
X27510Y178677D02*
X27167Y178520D01*
X27052Y178205*
Y177890*
X27167Y177575*
X27396Y177417*
X27854Y177260*
X28198Y177102*
X28427Y176787*
X28541Y176472*
Y176000*
X28427Y175685*
X28312Y175528*
X27969Y175370*
X27969D02*
X27510D01*
X27167Y175528*
X27052Y175685*
X26938Y176000*
Y176472*
X27052Y176787*
X27281Y177102*
X27625Y177260*
X28083Y177417*
X28312Y177575*
X28427Y177890*
Y178205*
X28312Y178520*
X27969Y178677*
X27969D02*
X27510D01*
X54127Y69543D02*
X54013Y69858D01*
X53784Y70173*
X53555Y70331*
X53097*
X52868Y70173*
X52639Y69858*
X52524Y69543*
X52409Y69071*
Y68283*
X52524Y67811*
X52639Y67496*
X52868Y67181*
X53097Y67024*
X53555*
X53784Y67181*
X54013Y67496*
X54127Y67811*
X56647Y69228D02*
X56533Y68756D01*
X56304Y68441*
X55960Y68283*
X55845*
X55502Y68441*
X55273Y68756*
X55158Y69228*
Y69386*
X55273Y69858*
X55502Y70173*
X55845Y70331*
X55960*
X56304Y70173*
X56533Y69858*
X56647Y69228*
Y68441*
X56533Y67654*
X56304Y67181*
X55960Y67024*
X55731*
X55387Y67181*
X55273Y67496*
X20868Y222236D02*
X20753Y222551D01*
X20524Y222866*
X20295Y223024*
X19837*
X19608Y222866*
X19379Y222551*
X19264Y222236*
X19150Y221764*
Y220976*
X19264Y220504*
X19379Y220189*
X19608Y219874*
X19837Y219717*
X20295*
X20524Y219874*
X20753Y220189*
X20868Y220504*
X21898Y222394D02*
X22127Y222551D01*
X22471Y223024*
Y219717*
X24189Y223024D02*
X23845Y222866D01*
X23616Y222394*
X23502Y221606*
Y221134*
X23616Y220346*
X23845Y219874*
X24189Y219717*
X24418*
X24762Y219874*
X24991Y220346*
X25105Y221134*
Y221606*
X24991Y222394*
X24762Y222866*
X24418Y223024*
X24189*
X94442Y175370D02*
X94328Y175685D01*
X94099Y176000*
X93870Y176157*
X93412*
X93183Y176000*
X92953Y175685*
X92839Y175370*
X92724Y174898*
Y174110*
X92839Y173638*
X92953Y173323*
X93183Y173008*
X93412Y172850*
X93870*
X94099Y173008*
X94328Y173323*
X94442Y173638*
X95473Y175528D02*
X95702Y175685D01*
X96046Y176157*
Y172850*
X98222Y176157D02*
X97077Y173953D01*
X98795*
X98222Y176157D02*
Y172850D01*
X9277Y106835D02*
X9162Y107150D01*
X8933Y107465*
X8704Y107622*
X8246*
X8017Y107465*
X7788Y107150*
X7674Y106835*
X7559Y106362*
Y105575*
X7674Y105102*
X7788Y104787*
X8017Y104472*
X8246Y104315*
X8704*
X8933Y104472*
X9162Y104787*
X9277Y105102*
X10308Y106992D02*
X10537Y107150D01*
X10880Y107622*
Y104315*
X13400Y107622D02*
X12255D01*
X12140Y106205*
X12255Y106362*
X12598Y106520*
X12942*
X13286Y106362*
X13515Y106047*
X13629Y105575*
X13515Y105260*
X13400Y104787*
X13171Y104472*
X12827Y104315*
X12484*
X12140Y104472*
X12026Y104630*
X11911Y104945*
X146646Y109134D02*
Y105827D01*
Y109134D02*
X147447D01*
X147791Y108976*
X148020Y108661*
X148135Y108346*
X148249Y107874*
Y107087*
X148135Y106614*
X148020Y106299*
X147791Y105984*
X147447Y105827*
X146646*
X149280Y108504D02*
X149509Y108661D01*
X149853Y109134*
Y105827*
X156220Y109638D02*
Y106331D01*
Y109638D02*
X157251D01*
X157595Y109480*
X157709Y109323*
X157824Y109008*
Y108693*
X157709Y108378*
X157595Y108220*
X157251Y108063*
X156220*
X157022D02*
X157824Y106331D01*
X158855Y109008D02*
X159084Y109165D01*
X159427Y109638*
Y106331*
X145638Y78394D02*
Y75087D01*
Y78394D02*
X146440D01*
X146783Y78236*
X147012Y77921*
X147127Y77606*
X147241Y77134*
Y76346*
X147127Y75874*
X147012Y75559*
X146783Y75244*
X146440Y75087*
X145638*
X148387Y77606D02*
Y77764D01*
X148501Y78079*
X148616Y78236*
X148845Y78394*
X149303*
X149532Y78236*
X149646Y78079*
X149761Y77764*
Y77449*
X149646Y77134*
X149417Y76661*
X148272Y75087*
X149875*
X156220Y78394D02*
Y75087D01*
Y78394D02*
X157251D01*
X157595Y78236*
X157709Y78079*
X157824Y77764*
Y77449*
X157709Y77134*
X157595Y76976*
X157251Y76819*
X156220*
X157022D02*
X157824Y75087D01*
X158969Y77606D02*
Y77764D01*
X159084Y78079*
X159198Y78236*
X159427Y78394*
X159885*
X160115Y78236*
X160229Y78079*
X160344Y77764*
Y77449*
X160229Y77134*
X160000Y76661*
X158855Y75087*
X160458*
X145134Y140378D02*
Y137071D01*
Y140378D02*
X145936D01*
X146279Y140220*
X146508Y139906*
X146623Y139591*
X146737Y139118*
Y138331*
X146623Y137858*
X146508Y137543*
X146279Y137228*
X145936Y137071*
X145134*
X147997Y140378D02*
X149257D01*
X148570Y139118*
X148913*
X149142Y138961*
X149257Y138803*
X149372Y138331*
Y138016*
X149257Y137543*
X149028Y137228*
X148684Y137071*
X148341*
X147997Y137228*
X147883Y137386*
X147768Y137701*
X155717Y139874D02*
Y136567D01*
Y139874D02*
X156747D01*
X157091Y139717*
X157205Y139559*
X157320Y139244*
Y138929*
X157205Y138614*
X157091Y138457*
X156747Y138299*
X155717*
X156518D02*
X157320Y136567D01*
X158580Y139874D02*
X159840D01*
X159152Y138614*
X159496*
X159725Y138457*
X159840Y138299*
X159954Y137827*
Y137512*
X159840Y137039*
X159611Y136724*
X159267Y136567*
X158923*
X158580Y136724*
X158465Y136882*
X158351Y137197*
X53417Y188756D02*
Y186394D01*
X53532Y185921*
X53761Y185606*
X54105Y185449*
X54334*
X54677Y185606*
X54906Y185921*
X55021Y186394*
Y188756*
X56281D02*
X57540D01*
X56853Y187496*
X57197*
X57426Y187339*
X57540Y187181*
X57655Y186709*
Y186394*
X57540Y185921*
X57311Y185606*
X56968Y185449*
X56624*
X56281Y185606*
X56166Y185764*
X56052Y186079*
G54D203*
X144630Y43712D02*
Y38803D01*
Y43712D02*
X145820D01*
X146330Y43478*
X146670Y43011*
X146840Y42543*
X147010Y41842*
Y40673*
X146840Y39972*
X146670Y39504*
X146330Y39037*
X145820Y38803*
X144630*
X148540Y43712D02*
X148710Y43478D01*
X148880Y43712*
X148710Y43946*
X148540Y43712*
X148710Y42076D02*
Y38803D01*
X152280Y41375D02*
X152110Y41842D01*
X151600Y42076*
X151090*
X150580Y41842*
X150410Y41375*
X150580Y40907*
X150920Y40673*
X151770Y40439*
X152110Y40206*
X152280Y39738*
Y39504*
X152110Y39037*
X151600Y38803*
X151090*
X150580Y39037*
X150410Y39504*
X154320Y43712D02*
Y39738D01*
X154490Y39037*
X154830Y38803*
X155170*
X153810Y42076D02*
X155000D01*
X158741D02*
Y38803D01*
Y41375D02*
X158401Y41842D01*
X158401D02*
X158060Y42076D01*
X157550*
X157210Y41842*
X156870Y41375*
X156700Y40673*
Y40206*
X156870Y39504*
X157210Y39037*
X157550Y38803*
X158060*
X158401Y39037*
X158401D02*
X158741Y39504D01*
X160271Y42076D02*
Y38803D01*
Y41141D02*
X160781Y41842D01*
X161121Y42076*
X161631*
X161971Y41842*
X162141Y41141*
Y38803*
X165711Y41375D02*
X165371Y41842D01*
X165031Y42076*
X164521*
X164181Y41842*
X163841Y41375*
X163671Y40673*
Y40206*
X163841Y39504*
X164181Y39037*
X164521Y38803*
X165031*
X165371Y39037*
X165711Y39504*
X167241Y40673D02*
X169281D01*
Y41141*
X169111Y41608*
X168941Y41842*
X168601Y42076*
X168091*
X167751Y41842*
X167411Y41375*
X167241Y40673*
Y40206*
X167411Y39504*
X167751Y39037*
X168091Y38803*
X168601*
X168941Y39037*
X169281Y39504*
X170811Y43712D02*
Y38803D01*
Y43712D02*
X172341D01*
X172851Y43478*
X173021Y43245*
X173191Y42777*
Y42310*
X173021Y41842*
X172851Y41608*
X172341Y41375*
X170811*
X172001D02*
X173191Y38803D01*
X176761Y42076D02*
Y38803D01*
Y41375D02*
X176421Y41842D01*
X176081Y42076*
X175571*
X175231Y41842*
X174891Y41375*
X174721Y40673*
Y40206*
X174891Y39504*
X175231Y39037*
X175571Y38803*
X176081*
X176421Y39037*
X176761Y39504*
X180331Y43712D02*
Y38803D01*
Y41375D02*
X179991Y41842D01*
X179651Y42076*
X179141*
X178801Y41842*
X178461Y41375*
X178291Y40673*
Y40206*
X178461Y39504*
X178801Y39037*
X179141Y38803*
X179651*
X179991Y39037*
X180331Y39504*
X181861Y43712D02*
X182031Y43478D01*
X182202Y43712*
X182031Y43946*
X181861Y43712*
X182031Y42076D02*
Y38803D01*
X184582Y42076D02*
X184242Y41842D01*
X183902Y41375*
X183732Y40673*
Y40206*
X183902Y39504*
X184242Y39037*
X184582Y38803*
X185092*
X185432Y39037*
X185772Y39504*
X185942Y40206*
Y40673*
X185772Y41375*
X185432Y41842*
X185092Y42076*
X184582*
X191382Y43712D02*
Y38803D01*
Y43712D02*
X192912D01*
X193422Y43478*
X193592Y43245*
X193762Y42777*
Y42310*
X193592Y41842*
X193422Y41608*
X192912Y41375*
X191382D02*
X192912D01*
X193422Y41141*
X193592Y40907*
X193762Y40439*
Y39738*
X193592Y39271*
X193422Y39037*
X192912Y38803*
X191382*
X196142Y42076D02*
X195802Y41842D01*
X195462Y41375*
X195292Y40673*
Y40206*
X195462Y39504*
X195802Y39037*
X196142Y38803*
X196652*
X196992Y39037*
X197332Y39504*
X197502Y40206*
Y40673*
X197332Y41375*
X196992Y41842*
X196652Y42076*
X196142*
X201072D02*
Y38803D01*
Y41375D02*
X200732Y41842D01*
X200392Y42076*
X199882*
X199542Y41842*
X199202Y41375*
X199032Y40673*
Y40206*
X199202Y39504*
X199542Y39037*
X199882Y38803*
X200392*
X200732Y39037*
X201072Y39504*
X202602Y42076D02*
Y38803D01*
Y40673D02*
X202772Y41375D01*
X203112Y41842*
X203452Y42076*
X203962*
X207533Y43712D02*
Y38803D01*
Y41375D02*
X207193Y41842D01*
X206853Y42076*
X206343*
X206003Y41842*
X205662Y41375*
X205492Y40673*
Y40206*
X205662Y39504*
X206003Y39037*
X206343Y38803*
X206853*
X207193Y39037*
X207533Y39504*
X212973Y43712D02*
Y38803D01*
Y43712D02*
X214503D01*
X215013Y43478*
X215183Y43245*
X215353Y42777*
Y42310*
X215183Y41842*
X215013Y41608*
X214503Y41375*
X212973*
X214163D02*
X215353Y38803D01*
X216883Y40673D02*
X218923D01*
Y41141*
X218753Y41608*
X218583Y41842*
X218243Y42076*
X217733*
X217393Y41842*
X217053Y41375*
X216883Y40673*
Y40206*
X217053Y39504*
X217393Y39037*
X217733Y38803*
X218243*
X218583Y39037*
X218923Y39504*
X220453Y42076D02*
X221473Y38803D01*
X222493Y42076D02*
X221473Y38803D01*
X227933Y42777D02*
X228273Y43011D01*
X228783Y43712*
Y38803*
X230484Y39271D02*
X230314Y39037D01*
X230484Y38803*
X230654Y39037*
X230484Y39271*
X233204Y43712D02*
X232694Y43478D01*
X232354Y42777*
X232184Y41608*
Y40907*
X232354Y39738*
X232694Y39037*
X233204Y38803*
X233544*
X234054Y39037*
X234394Y39738*
X234564Y40907*
Y41608*
X234394Y42777*
X234054Y43478*
X233544Y43712*
X233204*
X147010Y32932D02*
X146670Y33400D01*
X146160Y33633*
X145480*
X144970Y33400*
X144630Y32932*
Y32465*
X144800Y31997*
X144970Y31763*
X145310Y31530*
X146330Y31062*
X146670Y30828*
X146840Y30594*
X147010Y30127*
Y29426*
X146670Y28958*
X146160Y28724*
X145480*
X144970Y28958*
X144630Y29426*
X150580Y31296D02*
X150240Y31763D01*
X149900Y31997*
X149390*
X149050Y31763*
X148710Y31296*
X148540Y30594*
Y30127*
X148710Y29426*
X149050Y28958*
X149390Y28724*
X149900*
X150240Y28958*
X150580Y29426*
X152110Y33633D02*
Y28724D01*
Y31062D02*
X152620Y31763D01*
X152960Y31997*
X153470*
X153810Y31763*
X153980Y31062*
Y28724*
X155510Y30594D02*
X157550D01*
Y31062*
X157380Y31530*
X157210Y31763*
X156870Y31997*
X156360*
X156020Y31763*
X155680Y31296*
X155510Y30594*
Y30127*
X155680Y29426*
X156020Y28958*
X156360Y28724*
X156870*
X157210Y28958*
X157550Y29426*
X159081Y31997D02*
Y28724D01*
Y31062D02*
X159591Y31763D01*
X159931Y31997*
X160441*
X160781Y31763*
X160951Y31062*
Y28724*
Y31062D02*
X161461Y31763D01*
X161801Y31997*
X162311*
X162651Y31763*
X162821Y31062*
Y28724*
X166391Y31997D02*
Y28724D01*
Y31296D02*
X166051Y31763D01*
X165711Y31997*
X165201*
X164861Y31763*
X164521Y31296*
X164351Y30594*
Y30127*
X164521Y29426*
X164861Y28958*
X165201Y28724*
X165711*
X166051Y28958*
X166391Y29426*
X168431Y33633D02*
Y29659D01*
X168601Y28958*
X168941Y28724*
X169281*
X167921Y31997D02*
X169111D01*
X170811Y33633D02*
X170981Y33400D01*
X171151Y33633*
X170981Y33867*
X170811Y33633*
X170981Y31997D02*
Y28724D01*
X174721Y31296D02*
X174381Y31763D01*
X174041Y31997*
X173531*
X173191Y31763*
X172851Y31296*
X172681Y30594*
Y30127*
X172851Y29426*
X173191Y28958*
X173531Y28724*
X174041*
X174381Y28958*
X174721Y29426*
X176421Y31997D02*
X176251Y31763D01*
X176421Y31530*
X176591Y31763*
X176421Y31997*
Y29192D02*
X176251Y28958D01*
X176421Y28724*
X176591Y28958*
X176421Y29192*
X182031Y33633D02*
Y28724D01*
Y33633D02*
X183392Y28724D01*
X184752Y33633D02*
X183392Y28724D01*
X184752Y33633D02*
Y28724D01*
X188322Y31997D02*
Y28724D01*
Y31296D02*
X187982Y31763D01*
X187642Y31997*
X187132*
X186792Y31763*
X186452Y31296*
X186282Y30594*
Y30127*
X186452Y29426*
X186792Y28958*
X187132Y28724*
X187642*
X187982Y28958*
X188322Y29426*
X189852Y31997D02*
Y28724D01*
Y30594D02*
X190022Y31296D01*
X190362Y31763*
X190702Y31997*
X191212*
X193252Y33633D02*
Y29659D01*
X193422Y28958*
X193762Y28724*
X194102*
X192742Y31997D02*
X193932D01*
X195632Y33633D02*
X195802Y33400D01*
X195972Y33633*
X195802Y33867*
X195632Y33633*
X195802Y31997D02*
Y28724D01*
X197502Y31997D02*
Y28724D01*
Y31062D02*
X198012Y31763D01*
X198352Y31997*
X198862*
X199202Y31763*
X199372Y31062*
Y28724*
X206173Y33633D02*
X204812Y28724D01*
X206173Y33633D02*
X207533Y28724D01*
X205322Y30361D02*
X207023D01*
X209063Y31997D02*
Y28724D01*
Y31062D02*
X209573Y31763D01*
X209913Y31997*
X210423*
X210763Y31763*
X210933Y31062*
Y28724*
Y31062D02*
X211443Y31763D01*
X211783Y31997*
X212293*
X212633Y31763*
X212803Y31062*
Y28724*
X214333Y33633D02*
Y28724D01*
Y31296D02*
X214673Y31763D01*
X215013Y31997*
X215523*
X215863Y31763*
X216203Y31296*
X216373Y30594*
Y30127*
X216203Y29426*
X215863Y28958*
X215523Y28724*
X215013*
X214673Y28958*
X214333Y29426*
X217903Y31997D02*
Y28724D01*
Y30594D02*
X218073Y31296D01*
X218413Y31763*
X218753Y31997*
X219263*
X221643D02*
X221303Y31763D01*
X220963Y31296*
X220793Y30594*
Y30127*
X220963Y29426*
X221303Y28958*
X221643Y28724*
X222153*
X222493Y28958*
X222833Y29426*
X223003Y30127*
Y30594*
X222833Y31296*
X222493Y31763*
X222153Y31997*
X221643*
X226403Y31296D02*
X226233Y31763D01*
X225723Y31997*
X225213*
X224703Y31763*
X224533Y31296*
X224703Y30828*
X225043Y30594*
X225893Y30361*
X226233Y30127*
X226403Y29659*
Y29426*
X226233Y28958*
X225723Y28724*
X225213*
X224703Y28958*
X224533Y29426*
X146330Y13476D02*
X144630Y10203D01*
X147180*
X146330Y13476D02*
Y8567D01*
X151770Y14411D02*
X148710Y6931D01*
X153300Y12541D02*
X153640Y12775D01*
X154150Y13476*
Y8567*
X156020Y13476D02*
X157890D01*
X156870Y11606*
X157380*
X157720Y11372*
X157890Y11138*
X158060Y10437*
Y9969*
X157890Y9268*
X157550Y8801*
X157040Y8567*
X156530*
X156020Y8801*
X155850Y9034*
X155680Y9502*
X162651Y14411D02*
X159591Y6931D01*
X164351Y12307D02*
Y12541D01*
X164521Y13008*
X164691Y13242*
X165031Y13476*
X165711*
X166051Y13242*
X166221Y13008*
X166391Y12541*
Y12073*
X166221Y11606*
X165881Y10905*
X164181Y8567*
X166561*
X169111Y13476D02*
X168601Y13242D01*
X168261Y12541*
X168091Y11372*
Y10671*
X168261Y9502*
X168601Y8801*
X169111Y8567*
X169451*
X169961Y8801*
X170301Y9502*
X170471Y10671*
Y11372*
X170301Y12541*
X169961Y13242*
X169451Y13476*
X169111*
X172001Y12541D02*
X172341Y12775D01*
X172851Y13476*
Y8567*
X176081Y13476D02*
X174381Y10203D01*
X176931*
X176081Y13476D02*
Y8567D01*
X145650Y53791D02*
X145310Y53557D01*
X144970Y53090*
X144800Y52622*
X144630Y51921*
Y50752*
X144800Y50051*
X144970Y49583*
X145310Y49116*
X145650Y48882*
X146330*
X146670Y49116*
X147010Y49583*
X147180Y50051*
X147350Y50752*
Y51921*
X147180Y52622*
X147010Y53090*
X146670Y53557*
X146330Y53791*
X145650*
X148880Y52155D02*
Y48882D01*
Y50752D02*
X149050Y51453D01*
X149390Y51921*
X149730Y52155*
X150240*
X151770Y50752D02*
X153810D01*
Y51219*
X153640Y51687*
X153470Y51921*
X153130Y52155*
X152620*
X152280Y51921*
X151940Y51453*
X151770Y50752*
Y50284*
X151940Y49583*
X152280Y49116*
X152620Y48882*
X153130*
X153470Y49116*
X153810Y49583*
X157380Y52155D02*
Y48414D01*
X157210Y47713*
X157040Y47479*
X156700Y47246*
X156190*
X155850Y47479*
X157380Y51453D02*
X157040Y51921D01*
X156700Y52155*
X156190*
X155850Y51921*
X155510Y51453*
X155340Y50752*
Y50284*
X155510Y49583*
X155850Y49116*
X156190Y48882*
X156700*
X157040Y49116*
X157380Y49583*
X159761Y52155D02*
X159421Y51921D01*
X159081Y51453*
X158911Y50752*
Y50284*
X159081Y49583*
X159421Y49116*
X159761Y48882*
X160271*
X160611Y49116*
X160951Y49583*
X161121Y50284*
Y50752*
X160951Y51453*
X160611Y51921*
X160271Y52155*
X159761*
X162651D02*
Y48882D01*
Y51219D02*
X163161Y51921D01*
X163501Y52155*
X164011*
X164351Y51921*
X164521Y51219*
Y48882*
X172341Y53090D02*
X172001Y53557D01*
X171491Y53791*
X170811*
X170301Y53557*
X169961Y53090*
Y52622*
X170131Y52155*
X170301Y51921*
X170641Y51687*
X171661Y51219*
X172001Y50986*
X172171Y50752*
X172341Y50284*
Y49583*
X172001Y49116*
X171491Y48882*
X170811*
X170301Y49116*
X169961Y49583*
X174381Y53791D02*
Y49817D01*
X174551Y49116*
X174891Y48882*
X175231*
X173871Y52155D02*
X175061D01*
X178801D02*
Y48882D01*
Y51453D02*
X178461Y51921D01*
X178121Y52155*
X177611*
X177271Y51921*
X176931Y51453*
X176761Y50752*
Y50284*
X176931Y49583*
X177271Y49116*
X177611Y48882*
X178121*
X178461Y49116*
X178801Y49583*
X180841Y53791D02*
Y49817D01*
X181011Y49116*
X181351Y48882*
X181691*
X180331Y52155D02*
X181521D01*
X183222Y50752D02*
X185262D01*
Y51219*
X185092Y51687*
X184922Y51921*
X184582Y52155*
X184072*
X183732Y51921*
X183392Y51453*
X183222Y50752*
Y50284*
X183392Y49583*
X183732Y49116*
X184072Y48882*
X184582*
X184922Y49116*
X185262Y49583*
X190702Y53791D02*
Y48882D01*
Y53791D02*
X192062Y48882D01*
X193422Y53791D02*
X192062Y48882D01*
X193422Y53791D02*
Y48882D01*
X196992Y52155D02*
Y48882D01*
Y51453D02*
X196652Y51921D01*
X196312Y52155*
X195802*
X195462Y51921*
X195122Y51453*
X194952Y50752*
Y50284*
X195122Y49583*
X195462Y49116*
X195802Y48882*
X196312*
X196652Y49116*
X196992Y49583*
X198522Y52155D02*
Y48882D01*
Y50752D02*
X198692Y51453D01*
X199032Y51921*
X199372Y52155*
X199882*
X203282Y51453D02*
X203112Y51921D01*
X202602Y52155*
X202092*
X201582Y51921*
X201412Y51453*
X201582Y50986*
X201922Y50752*
X202772Y50518*
X203112Y50284*
X203282Y49817*
Y49583*
X203112Y49116*
X202602Y48882*
X202092*
X201582Y49116*
X201412Y49583*
X208723Y53791D02*
Y48882D01*
Y53791D02*
X210253D01*
X210763Y53557*
X210933Y53323*
X211103Y52856*
Y52388*
X210933Y51921*
X210763Y51687*
X210253Y51453*
X208723*
X209913D02*
X211103Y48882D01*
X213483Y52155D02*
X213143Y51921D01*
X212803Y51453*
X212633Y50752*
Y50284*
X212803Y49583*
X213143Y49116*
X213483Y48882*
X213993*
X214333Y49116*
X214673Y49583*
X214843Y50284*
Y50752*
X214673Y51453*
X214333Y51921*
X213993Y52155*
X213483*
X216373D02*
X217393Y48882D01*
X218413Y52155D02*
X217393Y48882D01*
X219943Y50752D02*
X221983D01*
Y51219*
X221813Y51687*
X221643Y51921*
X221303Y52155*
X220793*
X220453Y51921*
X220113Y51453*
X219943Y50752*
Y50284*
X220113Y49583*
X220453Y49116*
X220793Y48882*
X221303*
X221643Y49116*
X221983Y49583*
X223513Y52155D02*
Y48882D01*
Y50752D02*
X223683Y51453D01*
X224023Y51921*
X224363Y52155*
X224873*
X144630Y23555D02*
Y18646D01*
X146670*
X150240Y21918D02*
Y18646D01*
Y21217D02*
X149900Y21685D01*
X149560Y21918*
X149050*
X148710Y21685*
X148370Y21217*
X148200Y20516*
Y20048*
X148370Y19347*
X148710Y18879*
X149050Y18646*
X149560*
X149900Y18879*
X150240Y19347*
X151940Y21918D02*
X152960Y18646D01*
X153980Y21918D02*
X152960Y18646D01*
X152620Y17711*
X152280Y17243*
X151940Y17009*
X151770*
X156360Y21918D02*
X156020Y21685D01*
X155680Y21217*
X155510Y20516*
Y20048*
X155680Y19347*
X156020Y18879*
X156360Y18646*
X156870*
X157210Y18879*
X157550Y19347*
X157720Y20048*
Y20516*
X157550Y21217*
X157210Y21685*
X156870Y21918*
X156360*
X159251D02*
Y19581D01*
X159421Y18879*
X159761Y18646*
X160271*
X160611Y18879*
X161121Y19581*
Y21918D02*
Y18646D01*
X163161Y23555D02*
Y19581D01*
X163331Y18879*
X163671Y18646*
X164011*
X162651Y21918D02*
X163841D01*
X165711D02*
X165541Y21685D01*
X165711Y21451*
X165881Y21685*
X165711Y21918*
Y19113D02*
X165541Y18879D01*
X165711Y18646*
X165881Y18879*
X165711Y19113*
X173871Y22386D02*
X173701Y22853D01*
X173361Y23321*
X173021Y23555*
X172341*
X172001Y23321*
X171661Y22853*
X171491Y22386*
X171321Y21685*
Y20516*
X171491Y19814*
X171661Y19347*
X172001Y18879*
X172341Y18646*
X173021*
X173361Y18879*
X173701Y19347*
X173871Y19814*
X176251Y21918D02*
X175911Y21685D01*
X175571Y21217*
X175401Y20516*
Y20048*
X175571Y19347*
X175911Y18879*
X176251Y18646*
X176761*
X177101Y18879*
X177441Y19347*
X177611Y20048*
Y20516*
X177441Y21217*
X177101Y21685*
X176761Y21918*
X176251*
X179141D02*
Y18646D01*
Y20516D02*
X179311Y21217D01*
X179651Y21685*
X179991Y21918*
X180501*
X182031D02*
X182712Y18646D01*
X183392Y21918D02*
X182712Y18646D01*
X183392Y21918D02*
X184072Y18646D01*
X184752Y21918D02*
X184072Y18646D01*
X186282Y23555D02*
X186452Y23321D01*
X186622Y23555*
X186452Y23788*
X186282Y23555*
X186452Y21918D02*
Y18646D01*
X188152Y21918D02*
Y18646D01*
Y20983D02*
X188662Y21685D01*
X189002Y21918*
X189512*
X189852Y21685*
X190022Y20983*
Y18646*
X195462Y23555D02*
Y18646D01*
Y23555D02*
X196992D01*
X197502Y23321*
X197672Y23087*
X197842Y22620*
Y21918*
X197672Y21451*
X197502Y21217*
X196992Y20983*
X195462*
X199372Y20516D02*
X201412D01*
Y20983*
X201242Y21451*
X201072Y21685*
X200732Y21918*
X200222*
X199882Y21685*
X199542Y21217*
X199372Y20516*
Y20048*
X199542Y19347*
X199882Y18879*
X200222Y18646*
X200732*
X201072Y18879*
X201412Y19347*
X202942Y21918D02*
Y18646D01*
Y20516D02*
X203112Y21217D01*
X203452Y21685*
X203792Y21918*
X204302*
X205832D02*
Y18646D01*
Y20516D02*
X206003Y21217D01*
X206343Y21685*
X206683Y21918*
X207193*
X208723Y20516D02*
X210763D01*
Y20983*
X210593Y21451*
X210423Y21685*
X210083Y21918*
X209573*
X209233Y21685*
X208893Y21217*
X208723Y20516*
Y20048*
X208893Y19347*
X209233Y18879*
X209573Y18646*
X210083*
X210423Y18879*
X210763Y19347*
X212293Y21918D02*
Y18646D01*
Y20983D02*
X212803Y21685D01*
X213143Y21918*
X213653*
X213993Y21685*
X214163Y20983*
Y18646*
X0Y0D02*
M02*
