%
T1C.02756F197S550
X002084Y005365
X002556Y005680
X002556Y005050
X002556Y006310
X002084Y005995
T2C.035F197S550
X002107Y000851
X002107Y001851
X003107Y000851
X003107Y001851
X004107Y000851
X004107Y001851
X005107Y000851
X005107Y001851
X006107Y000851
X006107Y001851
X007107Y000851
X007107Y001851
X008107Y000851
X008107Y001851
X009107Y000851
X009107Y001851
X010107Y000851
X010107Y001851
X011107Y000851
X011107Y001851
X002181Y019925
X001181Y019925
X001181Y020925
X001181Y021925
X002107Y024226
X002107Y025226
X002181Y020925
X002181Y021925
X003107Y024226
X003107Y025226
X004107Y024226
X004107Y025226
X005107Y024226
X005107Y025226
X006107Y024226
X006107Y025226
X007107Y024226
X007107Y025226
X008107Y024226
X008107Y025226
X009107Y024226
X009107Y025226
X010107Y024226
X010107Y025226
X011107Y024226
X011107Y025226
T3C.037F197S550
X000353Y005694
X002620Y004485
X003175Y004183
X004687Y004989
X004787Y003578
X004787Y004334
X007408Y004435
X008466Y005039
X008668Y003074
X011087Y003780
X011087Y005039
X012951Y001260
X012800Y006450
X009877Y007660
X009575Y005896
X009272Y006904
X008466Y006400
X005997Y006098
X003780Y007206
X003124Y005997
X002469Y007509
X000454Y009373
X000454Y010532
X001411Y012850
X003376Y008769
X003628Y011893
X003931Y011087
X003981Y012649
X004586Y010079
X004787Y012649
X005392Y011792
X005946Y012649
X005946Y013304
X006803Y011339
X009625Y012346
X010482Y009323
X011439Y012346
X013254Y011994
X006702Y013959
X006652Y014614
X006350Y015169
X005039Y014614
X004687Y013959
X003729Y014765
X003427Y013959
X002620Y014060
X002570Y014816
X001814Y014110
X000907Y013506
X001814Y016479
X001965Y015874
X002318Y017134
X002721Y016227
X003124Y017083
X003931Y015924
X004132Y016781
X004687Y016428
X004989Y016983
X005594Y017587
X005946Y018142
X006551Y016680
X007156Y015874
X007257Y017537
X007710Y016932
X008668Y017386
X009726Y020762
X008869Y019452
X008617Y020208
X007761Y020359
X007307Y019654
X006551Y018444
X005039Y020107
X003578Y020762
X002570Y018494
X000907Y022879
X005342Y021115
X005644Y022980
T4C.0748F081S550
X001041Y004499
X001041Y006861
X008972Y021675
X006806Y021675
M30
