%
T1C.02756F197S550
X003125Y004625
X002653Y004940
X003125Y005255
X002653Y005570
X003125Y005885
T2C.035F197S550
X001300Y000800
X002300Y000800
X003300Y000800
X004300Y000800
X005300Y000800
X001300Y001800
X003300Y001800
X002300Y001800
X004300Y001800
X005300Y001800
X001300Y024175
X002300Y024175
X003300Y024175
X004300Y024175
X005300Y024175
X003300Y025175
X001300Y025175
X004300Y025175
X002300Y025175
X005300Y025175
X006300Y025175
X007300Y025175
X008300Y025175
X009300Y025175
X010300Y025175
X007300Y024175
X008300Y024175
X009300Y024175
X010300Y024175
X006300Y024175
X010250Y014875
X010250Y013875
X010250Y012875
X009300Y001800
X010300Y001800
X006300Y001800
X007300Y001800
X008300Y001800
X007300Y000800
X010300Y000800
X009300Y000800
X008300Y000800
X006300Y000800
X011250Y012875
X011250Y013875
X011250Y014875
T3C.037F197S550
X000750Y000375
X004500Y002875
X002875Y003625
X004750Y004125
X003875Y006375
X002875Y007625
X004125Y007750
X000750Y007875
X005500Y009250
X002875Y009500
X005000Y010375
X002125Y011000
X001125Y011000
X005625Y011000
X003000Y017000
X004750Y022500
X007750Y011500
X007125Y011000
X008125Y011000
X007625Y009625
X007000Y009250
X006125Y008375
X007625Y007000
X006875Y006375
X007375Y005000
X006625Y004875
X006500Y004250
X007625Y004125
X007375Y003375
X006125Y002750
X007250Y002750
X010375Y002750
X009875Y004375
X010250Y004875
X010125Y005750
X009250Y005875
X010375Y006500
X010250Y007625
X008750Y007750
X008375Y008250
X010250Y009000
X010125Y009750
X009500Y010125
X010250Y010625
X009125Y011000
X009875Y011375
X008625Y011375
X008750Y016875
X009125Y018250
X011625Y018375
X010750Y012250
X011625Y012000
X011625Y010125
X010750Y009625
X011375Y008625
X010750Y005625
X010750Y003875
X011625Y000500
T4C.0748F081S550
X001609Y004074
X001609Y006436
X004250Y021625
X006415Y021625
M30
