*
*
G04 PADS 9.3.1 Build Number: 456998 generated Gerber (RS-274-X) file*
G04 PC Version=2.1*
*
%IN "BrainBoard.pcb"*%
*
%MOIN*%
*
%FSLAX35Y35*%
*
*
*
*
G04 PC Standard Apertures*
*
*
G04 Thermal Relief Aperture macro.*
%AMTER*
1,1,$1,0,0*
1,0,$1-$2,0,0*
21,0,$3,$4,0,0,45*
21,0,$3,$4,0,0,135*
%
*
*
G04 Annular Aperture macro.*
%AMANN*
1,1,$1,0,0*
1,0,$2,0,0*
%
*
*
G04 Odd Aperture macro.*
%AMODD*
1,1,$1,0,0*
1,0,$1-0.005,0,0*
%
*
*
G04 PC Custom Aperture Macros*
*
*
*
*
*
*
G04 PC Aperture Table*
*
%ADD010C,0.001*%
%ADD042R,0.048X0.04*%
%ADD048R,0.04X0.048*%
%ADD051C,0.07*%
%ADD053R,0.07X0.07*%
%ADD054R,0.06118X0.09268*%
%ADD163R,0.06906X0.03165*%
%ADD164R,0.03165X0.06906*%
%ADD178C,0.05331*%
%ADD179C,0.12024*%
%ADD184C,0.12417*%
%ADD194R,0.105X0.13*%
%ADD195R,0.02969X0.11236*%
%ADD196R,0.05724X0.13598*%
*
*
*
*
G04 PC Circuitry*
G04 Layer Name BrainBoard.pcb - circuitry*
%LPD*%
*
*
G04 PC Custom Flashes*
G04 Layer Name BrainBoard.pcb - flashes*
%LPD*%
*
*
G04 PC Circuitry*
G04 Layer Name BrainBoard.pcb - circuitry*
%LPD*%
*
G54D10*
G54D42*
G01X96163Y36754D03*
X89963D03*
X96163Y50504D03*
X89963D03*
X9963Y105504D03*
X16163D03*
X9963Y95504D03*
X16163D03*
X31163D03*
X24963D03*
X116213Y64254D03*
X122413D03*
Y50504D03*
X116213D03*
X122413Y36754D03*
X116213D03*
X96163Y64126D03*
X89963D03*
X31163Y105504D03*
X24963D03*
G54D48*
X78063Y57354D03*
Y51154D03*
G54D51*
X11813Y219254D03*
X21813D03*
X11813Y209254D03*
X21813D03*
X11813Y199254D03*
X21067Y8508D03*
Y18508D03*
X31067Y8508D03*
Y18508D03*
X41067Y8508D03*
Y18508D03*
X51067Y8508D03*
Y18508D03*
X61067Y8508D03*
Y18508D03*
X71067Y8508D03*
Y18508D03*
X81067Y8508D03*
Y18508D03*
X91067Y8508D03*
Y18508D03*
X101067Y8508D03*
Y18508D03*
X111067Y8508D03*
Y18508D03*
X21067Y242258D03*
Y252258D03*
X31067Y242258D03*
Y252258D03*
X41067Y242258D03*
Y252258D03*
X51067Y242258D03*
Y252258D03*
X61067Y242258D03*
Y252258D03*
X71067Y242258D03*
Y252258D03*
X81067Y242258D03*
Y252258D03*
X91067Y242258D03*
Y252258D03*
X101067Y242258D03*
Y252258D03*
X111067Y242258D03*
Y252258D03*
G54D53*
X21813Y199254D03*
G54D54*
X44018Y118831D03*
Y83004D03*
X61813Y118831D03*
Y83004D03*
G54D163*
X56951Y139756D03*
Y142906D03*
Y146055D03*
Y149205D03*
Y152354D03*
Y155504D03*
Y158654D03*
Y161803D03*
Y164953D03*
Y168102D03*
Y171252D03*
X11675D03*
Y168102D03*
Y164953D03*
Y161803D03*
Y158654D03*
Y155504D03*
Y152354D03*
Y149205D03*
Y146055D03*
Y142906D03*
Y139756D03*
G54D164*
X50061Y178142D03*
X46911D03*
X43762D03*
X40612D03*
X37463D03*
X34313D03*
X31163D03*
X28014D03*
X24864D03*
X21715D03*
X18565D03*
Y132866D03*
X21715D03*
X24864D03*
X28014D03*
X31163D03*
X34313D03*
X37463D03*
X40612D03*
X43762D03*
X46911D03*
X50061D03*
G54D178*
X25563Y63102D03*
X20839Y59953D03*
X25563Y56803D03*
X20839Y53654D03*
X25563Y50504D03*
G54D179*
X10406Y44992D03*
Y68614D03*
G54D184*
X68063Y216754D03*
X89717D03*
G54D194*
X41813Y226504D03*
Y197004D03*
G54D195*
X31813Y118508D03*
X27876D03*
X23939D03*
G54D196*
X124313Y185504D03*
X94313D03*
X84313D03*
Y86291D03*
X94313D03*
X114313D03*
X124313D03*
X0Y0D02*
M02*
