*
*
G04 PADS 9.3.1 Build Number: 456998 generated Gerber (RS-274-X) file*
G04 PC Version=2.1*
*
%IN "BrainBoard.pcb"*%
*
%MOIN*%
*
%FSLAX35Y35*%
*
*
*
*
G04 PC Standard Apertures*
*
*
G04 Thermal Relief Aperture macro.*
%AMTER*
1,1,$1,0,0*
1,0,$1-$2,0,0*
21,0,$3,$4,0,0,45*
21,0,$3,$4,0,0,135*
%
*
*
G04 Annular Aperture macro.*
%AMANN*
1,1,$1,0,0*
1,0,$2,0,0*
%
*
*
G04 Odd Aperture macro.*
%AMODD*
1,1,$1,0,0*
1,0,$1-0.005,0,0*
%
*
*
G04 PC Custom Aperture Macros*
*
*
*
*
*
*
G04 PC Aperture Table*
*
%ADD010C,0.001*%
%ADD011C,0.01*%
%ADD040C,0.00787*%
*
*
*
*
G04 PC Circuitry*
G04 Layer Name BrainBoard.pcb - circuitry*
%LPD*%
*
*
G04 PC Custom Flashes*
G04 Layer Name BrainBoard.pcb - flashes*
%LPD*%
*
*
G04 PC Circuitry*
G04 Layer Name BrainBoard.pcb - circuitry*
%LPD*%
*
G54D10*
G01X75063Y64197D02*
X74844Y64118D01*
X74625Y63958*
X74516Y63799*
Y63481*
X74625Y63322*
X74844Y63163*
X75063Y63083*
X75391Y63004*
X75938*
X76266Y63083*
X76485Y63163*
X76704Y63322*
X76813Y63481*
Y63799*
X76704Y63958*
X76485Y64118*
X76266Y64197*
X74516Y65947D02*
Y65152D01*
X75500Y65072*
X75391Y65152*
X75282Y65390*
Y65629*
X75391Y65868*
X75610Y66027*
X75938Y66106*
X76157Y66027*
X76485Y65947*
X76704Y65788*
X76813Y65549*
Y65311*
X76704Y65072*
X76594Y64993*
X76375Y64913*
X3120Y106254D02*
X3199Y106035D01*
X3358Y105816*
X3518Y105707*
X3836*
X3995Y105816*
X4154Y106035*
X4233Y106254*
X4313Y106582*
Y107129*
X4233Y107457*
X4154Y107676*
X3995Y107895*
X3836Y108004*
X3518*
X3358Y107895*
X3199Y107676*
X3120Y107457*
X2245Y105707D02*
X1370D01*
X1847Y106582*
X1608*
X1449Y106691*
X1370Y106801*
X1290Y107129*
Y107348*
X1370Y107676*
X1529Y107895*
X1768Y108004*
X2006*
X2245Y107895*
X2324Y107785*
X2404Y107566*
X3120Y92504D02*
X3199Y92285D01*
X3358Y92066*
X3518Y91957*
X3836*
X3995Y92066*
X4154Y92285*
X4233Y92504*
X4313Y92832*
Y93379*
X4233Y93707*
X4154Y93926*
X3995Y94145*
X3836Y94254*
X3518*
X3358Y94145*
X3199Y93926*
X3120Y93707*
X1608Y91957D02*
X2404Y93488D01*
X1211*
X1608Y91957D02*
Y94254D01*
X39313Y91957D02*
Y94254D01*
Y91957D02*
X38597D01*
X38358Y92066*
X38279Y92176*
X38199Y92395*
Y92613*
X38279Y92832*
X38358Y92941*
X38597Y93051*
X39313*
X38756D02*
X38199Y94254D01*
X37483Y92395D02*
X37324Y92285D01*
X37086Y91957*
Y94254*
X51063Y238061D02*
X51282Y238140D01*
X51500Y238299*
X51610Y238458*
Y238777*
X51500Y238936*
X51282Y239095*
X51063Y239174*
X50735Y239254*
X50188*
X49860Y239174*
X49641Y239095*
X49422Y238936*
X49313Y238777*
Y238458*
X49422Y238299*
X49641Y238140*
X49860Y238061*
X51610Y236231D02*
X49313Y237027D01*
X51610Y237345D02*
Y236231D01*
X39313Y105707D02*
Y108004D01*
Y105707D02*
X38597D01*
X38358Y105816*
X38279Y105926*
X38199Y106145*
Y106363*
X38279Y106582*
X38358Y106691*
X38597Y106801*
X39313*
X38756D02*
X38199Y108004D01*
X36529Y106035D02*
X36608Y105816D01*
X36847Y105707*
X37006*
X37245Y105816*
X37404Y106145*
X37483Y106691*
Y107238*
X37404Y107676*
X37245Y107895*
X37006Y108004*
X36927*
X36688Y107895*
X36529Y107676*
X36449Y107348*
Y107238*
X36529Y106910*
X36688Y106691*
X36927Y106582*
X37006*
X37245Y106691*
X37404Y106910*
X37483Y107238*
X19313Y121957D02*
X18677Y123051D01*
Y124254*
X18040Y121957D02*
X18677Y123051D01*
X17324Y122395D02*
X17165Y122285D01*
X16927Y121957*
Y124254*
X72860Y183004D02*
X71219D01*
X70891Y182924*
X70672Y182765*
X70563Y182527*
Y182368*
X70672Y182129*
X70891Y181970*
X71219Y181890*
X72860*
Y181015D02*
Y180140D01*
X71985Y180618*
Y180379*
X71875Y180220*
X71766Y180140*
X71438Y180061*
X71219*
X70891Y180140*
X70672Y180299*
X70563Y180538*
Y180777*
X70672Y181015*
X70782Y181095*
X71000Y181174*
X103063Y65301D02*
Y63004D01*
Y65301D02*
X103779D01*
X104018Y65191*
X104097Y65082*
X104177Y64863*
Y64535*
X104097Y64316*
X104018Y64207*
X103779Y64098*
X103063*
X104893Y65301D02*
X105290Y63004D01*
X105688Y65301D02*
X105290Y63004D01*
X105688Y65301D02*
X106086Y63004D01*
X106483Y65301D02*
X106086Y63004D01*
X107199Y65301D02*
Y63004D01*
Y65301D02*
X107915D01*
X108154Y65191*
X108233Y65082*
X108313Y64863*
Y64645*
X108233Y64426*
X108154Y64316*
X107915Y64207*
X107199*
X107756D02*
X108313Y63004D01*
X129313Y65301D02*
Y63004D01*
Y65301D02*
X130347D01*
X129313Y64207D02*
X129949D01*
X129313Y63004D02*
X130347D01*
X131063Y64535D02*
Y63004D01*
Y63879D02*
X131143Y64207D01*
X131302Y64426*
X131461Y64535*
X131699*
X132415D02*
Y63004D01*
Y63879D02*
X132495Y64207D01*
X132654Y64426*
X132813Y64535*
X133052*
X134165D02*
X134006Y64426D01*
X133847Y64207*
X133768Y63879*
Y63660*
X133847Y63332*
X134006Y63113*
X134165Y63004*
X134404*
X134563Y63113*
X134722Y63332*
X134802Y63660*
Y63879*
X134722Y64207*
X134563Y64426*
X134404Y64535*
X134165*
X135518D02*
Y63004D01*
Y63879D02*
X135597Y64207D01*
X135756Y64426*
X135915Y64535*
X136154*
X130427Y51223D02*
X130268Y51441D01*
X130029Y51551*
X129711*
X129472Y51441*
X129313Y51223*
Y51004*
X129393Y50785*
X129472Y50676*
X129631Y50566*
X130108Y50348*
X130268Y50238*
X130347Y50129*
X130427Y49910*
Y49582*
X130268Y49363*
X130029Y49254*
X129711*
X129472Y49363*
X129313Y49582*
X131381Y51551D02*
Y49691D01*
X131461Y49363*
X131620Y49254*
X131779*
X131143Y50785D02*
X131699D01*
X133449D02*
Y49254D01*
Y50457D02*
X133290Y50676D01*
X133131Y50785*
X132893*
X132733Y50676*
X132574Y50457*
X132495Y50129*
Y49910*
X132574Y49582*
X132733Y49363*
X132893Y49254*
X133131*
X133290Y49363*
X133449Y49582*
X134404Y51551D02*
Y49691D01*
X134483Y49363*
X134643Y49254*
X134802*
X134165Y50785D02*
X134722D01*
X135518D02*
Y49691D01*
X135597Y49363*
X135756Y49254*
X135995*
X136154Y49363*
X136393Y49691*
Y50785D02*
Y49254D01*
X137983Y50457D02*
X137904Y50676D01*
X137665Y50785*
X137427*
X137188Y50676*
X137108Y50457*
X137188Y50238*
X137347Y50129*
X137745Y50020*
X137904Y49910*
X137983Y49691*
Y49582*
X137904Y49363*
X137665Y49254*
X137427*
X137188Y49363*
X137108Y49582*
X140529Y51113D02*
X140688Y51223D01*
X140927Y51551*
Y49254*
X130427Y37473D02*
X130268Y37691D01*
X130029Y37801*
X129711*
X129472Y37691*
X129313Y37473*
Y37254*
X129393Y37035*
X129472Y36926*
X129631Y36816*
X130108Y36598*
X130268Y36488*
X130347Y36379*
X130427Y36160*
Y35832*
X130268Y35613*
X130029Y35504*
X129711*
X129472Y35613*
X129313Y35832*
X131381Y37801D02*
Y35941D01*
X131461Y35613*
X131620Y35504*
X131779*
X131143Y37035D02*
X131699D01*
X133449D02*
Y35504D01*
Y36707D02*
X133290Y36926D01*
X133131Y37035*
X132893*
X132733Y36926*
X132574Y36707*
X132495Y36379*
Y36160*
X132574Y35832*
X132733Y35613*
X132893Y35504*
X133131*
X133290Y35613*
X133449Y35832*
X134404Y37801D02*
Y35941D01*
X134483Y35613*
X134643Y35504*
X134802*
X134165Y37035D02*
X134722D01*
X135518D02*
Y35941D01*
X135597Y35613*
X135756Y35504*
X135995*
X136154Y35613*
X136393Y35941*
Y37035D02*
Y35504D01*
X137983Y36707D02*
X137904Y36926D01*
X137665Y37035*
X137427*
X137188Y36926*
X137108Y36707*
X137188Y36488*
X137347Y36379*
X137745Y36270*
X137904Y36160*
X137983Y35941*
Y35832*
X137904Y35613*
X137665Y35504*
X137427*
X137188Y35613*
X137108Y35832*
X140608Y37254D02*
Y37363D01*
X140688Y37582*
X140768Y37691*
X140927Y37801*
X141245*
X141404Y37691*
X141483Y37582*
X141563Y37363*
Y37145*
X141483Y36926*
X141324Y36598*
X140529Y35504*
X141643*
X103620Y36551D02*
Y34254D01*
X103063Y36551D02*
X104177D01*
X104893D02*
X106006Y34254D01*
Y36551D02*
X104893Y34254D01*
X103063Y51551D02*
Y49254D01*
Y51551D02*
X103779D01*
X104018Y51441*
X104097Y51332*
X104177Y51113*
Y50895*
X104097Y50676*
X104018Y50566*
X103779Y50457*
X103063*
X103620D02*
X104177Y49254D01*
X104893Y51551D02*
X106006Y49254D01*
Y51551D02*
X104893Y49254D01*
G54D11*
X81563Y55454D02*
Y61254D01*
X74563*
Y55454*
X81563Y53054D02*
Y47254D01*
X74563*
Y53054*
X94263Y33254D02*
X100063D01*
Y40254*
X94263*
X91863Y33254D02*
X86063D01*
Y40254*
X91863*
X94263Y47004D02*
X100063D01*
Y54004*
X94263*
X91863Y47004D02*
X86063D01*
Y54004*
X91863*
X11863Y109004D02*
X6063D01*
Y102004*
X11863*
X14263Y109004D02*
X20063D01*
Y102004*
X14263*
X11863Y99004D02*
X6063D01*
Y92004*
X11863*
X14263Y99004D02*
X20063D01*
Y92004*
X14263*
X29263D02*
X35063D01*
Y99004*
X29263*
X26863Y92004D02*
X21063D01*
Y99004*
X26863*
X33363Y203004D02*
Y187254D01*
X50263*
Y203004*
X33363Y220504D02*
Y233004D01*
X36563Y236254*
X47063*
X50263Y233004*
Y220504*
X118113Y67754D02*
X112313D01*
Y60754*
X118113*
X120513Y67754D02*
X126313D01*
Y60754*
X120513*
Y47004D02*
X126313D01*
Y54004*
X120513*
X118113Y47004D02*
X112313D01*
Y54004*
X118113*
X120513Y33254D02*
X126313D01*
Y40254*
X120513*
X118113Y33254D02*
X112313D01*
Y40254*
X118113*
X94263Y60626D02*
X100063D01*
Y67626*
X94263*
X91863Y60626D02*
X86063D01*
Y67626*
X91863*
X29263Y102004D02*
X35063D01*
Y109004*
X29263*
X26863Y102004D02*
X21063D01*
Y109004*
X26863*
G54D40*
X52620Y173811D02*
X16006D01*
Y137197*
X52620*
Y138673*
X50455Y139756*
X52620Y140839*
Y173811*
X0Y0D02*
M02*
