*
*
G04 PADS 9.3.1 Build Number: 456998 generated Gerber (RS-274-X) file*
G04 PC Version=2.1*
*
%IN "ArmControl.pcb"*%
*
%MOIN*%
*
%FSLAX35Y35*%
*
*
*
*
G04 PC Standard Apertures*
*
*
G04 Thermal Relief Aperture macro.*
%AMTER*
1,1,$1,0,0*
1,0,$1-$2,0,0*
21,0,$3,$4,0,0,45*
21,0,$3,$4,0,0,135*
%
*
*
G04 Annular Aperture macro.*
%AMANN*
1,1,$1,0,0*
1,0,$2,0,0*
%
*
*
G04 Odd Aperture macro.*
%AMODD*
1,1,$1,0,0*
1,0,$1-0.005,0,0*
%
*
*
G04 PC Custom Aperture Macros*
*
*
*
*
*
*
G04 PC Aperture Table*
*
%ADD010C,0.001*%
%ADD026C,0.06*%
%ADD027R,0.06X0.06*%
%ADD037C,0.055*%
%ADD051C,0.07*%
%ADD175C,0.11417*%
%ADD192C,0.12598*%
%ADD193C,0.024*%
*
*
*
*
G04 PC Circuitry*
G04 Layer Name ArmControl.pcb - circuitry*
%LPD*%
*
*
G04 PC Custom Flashes*
G04 Layer Name ArmControl.pcb - flashes*
%LPD*%
*
*
G04 PC Circuitry*
G04 Layer Name ArmControl.pcb - circuitry*
%LPD*%
*
G54D10*
G54D26*
G01X21067Y8508D03*
Y18508D03*
X31067Y8508D03*
Y18508D03*
X41067Y8508D03*
Y18508D03*
X51067Y8508D03*
Y18508D03*
X61067Y8508D03*
Y18508D03*
X71067Y8508D03*
Y18508D03*
X81067Y8508D03*
Y18508D03*
X91067Y8508D03*
Y18508D03*
X101067Y8508D03*
Y18508D03*
X111067Y8508D03*
Y18508D03*
X21067Y242258D03*
Y252258D03*
X31067Y242258D03*
Y252258D03*
X41067Y242258D03*
Y252258D03*
X51067Y242258D03*
Y252258D03*
X61067Y242258D03*
Y252258D03*
X71067Y242258D03*
Y252258D03*
X81067Y242258D03*
Y252258D03*
X91067Y242258D03*
Y252258D03*
X101067Y242258D03*
Y252258D03*
X111067Y242258D03*
Y252258D03*
G54D27*
X234685Y175000D03*
Y185000D03*
Y195000D03*
Y205000D03*
Y215000D03*
Y225000D03*
Y235000D03*
Y245000D03*
X185315D03*
Y235000D03*
Y225000D03*
Y215000D03*
Y205000D03*
Y195000D03*
Y185000D03*
Y175000D03*
X234685Y65000D03*
Y75000D03*
Y85000D03*
Y95000D03*
Y105000D03*
Y115000D03*
Y125000D03*
Y135000D03*
X185315D03*
Y125000D03*
Y115000D03*
Y105000D03*
Y95000D03*
Y85000D03*
Y75000D03*
Y65000D03*
G54D37*
X105827Y35276D03*
X60472Y80630D03*
X75591Y95748D03*
X90709Y100787D03*
X35276Y156220D03*
X20157Y161260D03*
X262047D03*
X267087Y166299D03*
X45354Y181417D03*
X55433Y196535D03*
X50394Y191496D03*
X176378D03*
X95748Y216693D03*
G54D51*
X330000Y20000D03*
X320000D03*
X267087Y65512D03*
Y75512D03*
Y85512D03*
Y186457D03*
Y196457D03*
Y206457D03*
X220000Y20000D03*
X230000D03*
X320000Y240000D03*
X330000D03*
X270000Y20000D03*
X280000D03*
X307402Y211654D03*
Y201654D03*
Y191654D03*
Y181654D03*
Y90709D03*
Y80709D03*
Y70709D03*
Y60709D03*
X270000Y240000D03*
X280000D03*
G54D175*
X270000Y130000D03*
X291654D03*
G54D192*
X13780Y64961D03*
Y194882D03*
X336220Y196535D03*
Y64961D03*
G54D193*
X185315Y75000D02*
X114023Y3708D01*
X65867*
X61067Y8508*
X51067D02*
X55867Y13308D01*
Y106024*
X71067Y8508D02*
X75867Y13308D01*
Y55709*
X101067Y8508D02*
X91067Y18508D01*
X111067Y8508D02*
Y18508D01*
X21067D02*
Y41945D01*
X22029Y42907*
Y111608*
X31067Y18508D02*
Y85385D01*
X35276Y89594*
Y156220*
X41067Y18508D02*
Y97944D01*
X45354Y102231*
Y181417*
X51067Y18508D02*
Y104790D01*
X50394Y105464*
Y191496*
X61067Y18508D02*
Y49397D01*
X60472Y49991*
Y80630*
X71067Y18508D02*
Y58572D01*
X71041Y58599*
Y161538*
X91067Y18508D02*
Y59594D01*
X90709Y59952*
Y100787*
X101067Y18508D02*
X111067D01*
X270000Y20000D02*
Y43115D01*
X272387Y45502*
X105827Y35276D02*
Y95763D01*
X101067Y100523*
Y242258*
X272387Y45502D02*
Y80212D01*
X267087Y85512*
X75867Y55709D02*
X75591Y55985D01*
Y95748*
X185315Y65000D02*
X190115Y69800D01*
X234685Y65000D02*
X246761Y77076D01*
X249205*
X257008Y84879*
Y117008*
X270000Y130000*
X267087Y65512D02*
X261787Y70812D01*
Y99437*
X190115Y69800D02*
Y78746D01*
X188861Y80000*
X181769*
X105867Y155902*
Y247259*
X101067Y252258*
X234685Y75000D02*
X234295D01*
X232885Y76800*
X229885Y80630*
Y130200*
X55867Y106024D02*
X55433Y106458D01*
Y196535*
X185315Y105000D02*
X187115D01*
Y115000*
X261787Y99437D02*
X277509Y115159D01*
X277509D02*
Y155877D01*
X22029Y111608D02*
X20157Y113479D01*
Y161260*
X187115Y115000D02*
X185315D01*
X190115Y119800*
Y210200*
X185315Y125000D02*
X111067Y199248D01*
Y242258*
X185315Y135000D02*
X143847Y176468D01*
Y219477*
X111067Y252258*
X229885Y130200D02*
X234685Y135000D01*
Y153127*
X229885Y157927*
Y180200*
X270000Y130000D02*
X251824Y148176D01*
Y157861*
X234685Y175000*
X277509Y155877D02*
X267087Y166299D01*
X71041Y161538D02*
X86067Y176564D01*
Y254046*
X89079Y257058*
X262942*
X262047Y161260D02*
Y174905D01*
X261787Y175166*
Y191157*
X267087Y166299D02*
Y186457D01*
X229885Y180200D02*
X234685Y185000D01*
X176378Y191496D02*
X180055Y195173D01*
Y199740*
X185315Y205000*
X261787Y191157D02*
X267087Y196457D01*
Y206457D02*
Y221772D01*
X270000Y224685*
Y240000*
X95748Y216693D02*
Y230697D01*
X96067Y231016*
Y247258*
X101067Y252258*
X185315Y215000D02*
X187115D01*
Y225000*
X190115Y210200D02*
X185315Y215000D01*
X187115Y225000D02*
X185315D01*
X21067Y252258D02*
Y242258D01*
X31067*
X41067Y252258D02*
Y242258D01*
X51067*
X280000Y240000D02*
X262942Y257058D01*
X21067Y252258D02*
X31067D01*
X41067D02*
X51067D01*
X0Y0D02*
M02*
