%
T1C.035F197S550
X002107Y000851
X003107Y000851
X006107Y000851
X004107Y000851
X005107Y000851
X002107Y001851
X006107Y001851
X003107Y001851
X004107Y001851
X005107Y001851
X002107Y024226
X003107Y024226
X004107Y024226
X005107Y024226
X006107Y024226
X004107Y025226
X002107Y025226
X005107Y025226
X003107Y025226
X006107Y025226
X007107Y025226
X008107Y025226
X009107Y025226
X010107Y025226
X011107Y025226
X008107Y024226
X009107Y024226
X010107Y024226
X011107Y024226
X007107Y024226
X009107Y001851
X010107Y001851
X007107Y001851
X008107Y001851
X011107Y001851
X008107Y000851
X010107Y000851
X009107Y000851
X011107Y000851
X007107Y000851
X018531Y006500
X018531Y007500
X018531Y008500
X018531Y009500
X018531Y010500
X018531Y011500
X018531Y012500
X018531Y013500
X018531Y017500
X018531Y018500
X018531Y019500
X018531Y020500
X018531Y021500
X018531Y022500
X018531Y023500
X018531Y024500
X023469Y024500
X023469Y023500
X023469Y022500
X023469Y021500
X023469Y020500
X023469Y019500
X023469Y018500
X023469Y017500
X023469Y013500
X023469Y012500
X023469Y011500
X023469Y010500
X023469Y009500
X023469Y008500
X023469Y007500
X023469Y006500
T2C.037F197S550
X006047Y008063
X003528Y015622
X002016Y016126
X004535Y018142
X005039Y019150
X005543Y019654
X009575Y021669
X009071Y010079
X007559Y009575
X010583Y003528
X026205Y016126
X017638Y019150
X026709Y016630
T3C.05F107S550
X022000Y002000
X023000Y002000
X027000Y024000
X028000Y024000
X026709Y020646
X026709Y019646
X026709Y018646
X026709Y008551
X026709Y007551
X026709Y006551
X028000Y002000
X027000Y002000
X033000Y002000
X032000Y002000
X030740Y006071
X030740Y007071
X030740Y008071
X030740Y009071
X030740Y018165
X030740Y019165
X030740Y020165
X030740Y021165
X032000Y024000
X033000Y024000
T4C.0748F081S550
X027000Y013000
X029165Y013000
T5C.12598F035S794
X001378Y006496
X001378Y019488
X033622Y019654
X033622Y006496
M30
