*
*
G04 PADS 9.3.1 Build Number: 456998 generated Gerber (RS-274-X) file*
G04 PC Version=2.1*
*
%IN "ArmControl.pcb"*%
*
%MOIN*%
*
%FSLAX35Y35*%
*
*
*
*
G04 PC Standard Apertures*
*
*
G04 Thermal Relief Aperture macro.*
%AMTER*
1,1,$1,0,0*
1,0,$1-$2,0,0*
21,0,$3,$4,0,0,45*
21,0,$3,$4,0,0,135*
%
*
*
G04 Annular Aperture macro.*
%AMANN*
1,1,$1,0,0*
1,0,$2,0,0*
%
*
*
G04 Odd Aperture macro.*
%AMODD*
1,1,$1,0,0*
1,0,$1-0.005,0,0*
%
*
*
G04 PC Custom Aperture Macros*
*
*
*
*
*
*
G04 PC Aperture Table*
*
%ADD010C,0.001*%
%ADD051C,0.07*%
%ADD053R,0.07X0.07*%
%ADD184C,0.12417*%
%ADD190C,0.08*%
%ADD194C,0.13598*%
*
*
*
*
G04 PC Circuitry*
G04 Layer Name ArmControl.pcb - circuitry*
%LPD*%
*
*
G04 PC Custom Flashes*
G04 Layer Name ArmControl.pcb - flashes*
%LPD*%
*
*
G04 PC Circuitry*
G04 Layer Name ArmControl.pcb - circuitry*
%LPD*%
*
G54D10*
G54D51*
G01X21067Y8508D03*
Y18508D03*
X31067Y8508D03*
Y18508D03*
X41067Y8508D03*
Y18508D03*
X51067Y8508D03*
Y18508D03*
X61067Y8508D03*
Y18508D03*
X71067Y8508D03*
Y18508D03*
X81067Y8508D03*
Y18508D03*
X91067Y8508D03*
Y18508D03*
X101067Y8508D03*
Y18508D03*
X111067Y8508D03*
Y18508D03*
X21067Y242258D03*
Y252258D03*
X31067Y242258D03*
Y252258D03*
X41067Y242258D03*
Y252258D03*
X51067Y242258D03*
Y252258D03*
X61067Y242258D03*
Y252258D03*
X71067Y242258D03*
Y252258D03*
X81067Y242258D03*
Y252258D03*
X91067Y242258D03*
Y252258D03*
X101067Y242258D03*
Y252258D03*
X111067Y242258D03*
Y252258D03*
G54D53*
X234685Y175000D03*
Y185000D03*
Y195000D03*
Y205000D03*
Y215000D03*
Y225000D03*
Y235000D03*
Y245000D03*
X185315D03*
Y235000D03*
Y225000D03*
Y215000D03*
Y205000D03*
Y195000D03*
Y185000D03*
Y175000D03*
X234685Y65000D03*
Y75000D03*
Y85000D03*
Y95000D03*
Y105000D03*
Y115000D03*
Y125000D03*
Y135000D03*
X185315D03*
Y125000D03*
Y115000D03*
Y105000D03*
Y95000D03*
Y85000D03*
Y75000D03*
Y65000D03*
G54D184*
X270000Y130000D03*
X291654D03*
G54D190*
X330000Y20000D03*
X320000D03*
X267087Y65512D03*
Y75512D03*
Y85512D03*
Y186457D03*
Y196457D03*
Y206457D03*
X220000Y20000D03*
X230000D03*
X320000Y240000D03*
X330000D03*
X270000Y20000D03*
X280000D03*
X307402Y211654D03*
Y201654D03*
Y191654D03*
Y181654D03*
Y90709D03*
Y80709D03*
Y70709D03*
Y60709D03*
X270000Y240000D03*
X280000D03*
G54D194*
X13780Y64961D03*
Y194882D03*
X336220Y196535D03*
Y64961D03*
X0Y0D02*
M02*
