*
*
G04 PADS 9.3.1 Build Number: 456998 generated Gerber (RS-274-X) file*
G04 PC Version=2.1*
*
%IN "ArmControl.pcb"*%
*
%MOIN*%
*
%FSLAX35Y35*%
*
*
*
*
G04 PC Standard Apertures*
*
*
G04 Thermal Relief Aperture macro.*
%AMTER*
1,1,$1,0,0*
1,0,$1-$2,0,0*
21,0,$3,$4,0,0,45*
21,0,$3,$4,0,0,135*
%
*
*
G04 Annular Aperture macro.*
%AMANN*
1,1,$1,0,0*
1,0,$2,0,0*
%
*
*
G04 Odd Aperture macro.*
%AMODD*
1,1,$1,0,0*
1,0,$1-0.005,0,0*
%
*
*
G04 PC Custom Aperture Macros*
*
*
*
*
*
*
G04 PC Aperture Table*
*
%ADD010C,0.001*%
%ADD016R,0.038X0.03*%
%ADD026C,0.06*%
%ADD027R,0.06X0.06*%
%ADD037C,0.055*%
%ADD051C,0.07*%
%ADD175C,0.11417*%
%ADD188R,0.125X0.06*%
%ADD192C,0.12598*%
%ADD193C,0.024*%
*
*
*
*
G04 PC Circuitry*
G04 Layer Name ArmControl.pcb - circuitry*
%LPD*%
*
*
G04 PC Custom Flashes*
G04 Layer Name ArmControl.pcb - flashes*
%LPD*%
*
*
G04 PC Circuitry*
G04 Layer Name ArmControl.pcb - circuitry*
%LPD*%
*
G54D10*
G54D16*
G01X56900Y40000D03*
X63100D03*
X36900D03*
X43100D03*
X16900D03*
X23100D03*
X83100Y230000D03*
X76900D03*
X56900D03*
X63100D03*
X76900Y40000D03*
X83100D03*
G54D26*
X21067Y8508D03*
Y18508D03*
X31067Y8508D03*
Y18508D03*
X41067Y8508D03*
Y18508D03*
X51067Y8508D03*
Y18508D03*
X61067Y8508D03*
Y18508D03*
X71067Y8508D03*
Y18508D03*
X81067Y8508D03*
Y18508D03*
X91067Y8508D03*
Y18508D03*
X101067Y8508D03*
Y18508D03*
X111067Y8508D03*
Y18508D03*
X21067Y242258D03*
Y252258D03*
X31067Y242258D03*
Y252258D03*
X41067Y242258D03*
Y252258D03*
X51067Y242258D03*
Y252258D03*
X61067Y242258D03*
Y252258D03*
X71067Y242258D03*
Y252258D03*
X81067Y242258D03*
Y252258D03*
X91067Y242258D03*
Y252258D03*
X101067Y242258D03*
Y252258D03*
X111067Y242258D03*
Y252258D03*
G54D27*
X234685Y175000D03*
Y185000D03*
Y195000D03*
Y205000D03*
Y215000D03*
Y225000D03*
Y235000D03*
Y245000D03*
X185315D03*
Y235000D03*
Y225000D03*
Y215000D03*
Y205000D03*
Y195000D03*
Y185000D03*
Y175000D03*
X234685Y65000D03*
Y75000D03*
Y85000D03*
Y95000D03*
Y105000D03*
Y115000D03*
Y125000D03*
Y135000D03*
X185315D03*
Y125000D03*
Y115000D03*
Y105000D03*
Y95000D03*
Y85000D03*
Y75000D03*
Y65000D03*
G54D37*
X105827Y35276D03*
X60472Y80630D03*
X75591Y95748D03*
X90709Y100787D03*
X35276Y156220D03*
X20157Y161260D03*
X262047D03*
X267087Y166299D03*
X45354Y181417D03*
X55433Y196535D03*
X50394Y191496D03*
X176378D03*
X95748Y216693D03*
G54D51*
X330000Y20000D03*
X320000D03*
X267087Y65512D03*
Y75512D03*
Y85512D03*
Y186457D03*
Y196457D03*
Y206457D03*
X220000Y20000D03*
X230000D03*
X320000Y240000D03*
X330000D03*
X270000Y20000D03*
X280000D03*
X307402Y211654D03*
Y201654D03*
Y191654D03*
Y181654D03*
Y90709D03*
Y80709D03*
Y70709D03*
Y60709D03*
X270000Y240000D03*
X280000D03*
G54D175*
X270000Y130000D03*
X291654D03*
G54D188*
X210000Y190750D03*
Y209250D03*
Y80750D03*
Y99250D03*
G54D192*
X13780Y64961D03*
Y194882D03*
X336220Y196535D03*
Y64961D03*
G54D193*
X41067Y8508D02*
X45867Y3708D01*
X263708*
X280000Y20000*
X66267Y16520D02*
X69079Y13708D01*
X86267*
X91067Y18508*
X66267Y16520D02*
Y25407D01*
X68224Y27365*
Y35276*
X71067Y18508D02*
X86800Y34241D01*
Y42246*
X111067Y18508D02*
X164537D01*
X166030Y20000*
X220000*
X229921Y10079*
X260079*
X270000Y20000*
X273818Y23818*
Y26889*
X277165Y30236*
X309764*
X320000Y20000*
X68224Y35276D02*
X78121D01*
X82846Y40000*
X83100*
X105827Y35276D02*
X315530D01*
X320891Y29914*
Y29109*
X330000Y20000*
X7200Y45922D02*
Y21344D01*
X20551Y7992*
X21067Y8508*
X7200Y45922D02*
X16712Y55433D01*
X247008*
X267087Y75512*
X13200Y43436D02*
Y36375D01*
X31067Y18508*
X13200Y43436D02*
X15118Y45354D01*
X31146*
X36500Y40000*
X36900*
X10200Y44679D02*
Y22587D01*
X19279Y13508*
X26067*
X31067Y8508*
X10200Y44679D02*
X15915Y50394D01*
X46106*
X56500Y40000*
X56900*
X16900D02*
X17154D01*
X30236Y26918*
Y26545*
X31585Y25197*
X31782*
X36067Y20912*
Y13508*
X41067Y8508*
X23100Y40000D02*
X23500D01*
X28224Y35276*
X38121*
X42846Y40000*
X43100*
X43500*
X48224Y35276*
X58121*
X62846Y40000*
X63100*
X56900D02*
X57154D01*
X67548Y50394*
X83584*
X103742Y30236*
X220724*
X226182Y24778*
Y23818*
X230000Y20000*
X63100Y40000D02*
X63500D01*
X68224Y35276*
X76900Y40000D02*
Y43300D01*
X78954Y45354*
X83691*
X86800Y42246*
X234685Y75000D02*
X256575D01*
X267087Y85512*
X60472Y80630D02*
X120584D01*
X124954Y85000*
X185315*
X210000Y80750D02*
X213250D01*
X221125Y72875*
X226810*
X234685Y65000*
Y85000D02*
X256339D01*
X267087Y95748*
X267385Y95450*
Y94828*
X301505Y60709*
X307402*
X75591Y95748D02*
X129954D01*
X130702Y95000*
X185315*
X234685D02*
X261299D01*
X267087Y100787*
X297323Y70551*
X301844*
X302002Y70709*
X307402*
X90709Y100787D02*
X135781D01*
X139993Y105000*
X185315*
X210000Y99250D02*
X213250D01*
X221732Y90768*
Y87953*
X234685Y75000*
Y105000D02*
X252872D01*
X253699Y105827*
X272126*
X297323Y80630*
X301923*
X302002Y80709*
X307402*
X234685Y115000D02*
X283110D01*
X307402Y90709*
X234685Y135000D02*
X251933D01*
X258035Y141102*
X271280*
X282382Y130000*
X291654*
X35276Y156220D02*
X292283D01*
X320336Y184273*
Y208677*
X330000Y218341*
Y240000*
X20157Y161260D02*
X262047D01*
X180515Y171099D02*
Y178746D01*
X181769Y180000*
X188861*
X190115Y181254*
X180515Y171099D02*
X185315Y166299D01*
X267087*
X185315Y175000D02*
X190115D01*
X193115Y178000*
X45354Y181417D02*
X114424D01*
X119464Y186457*
X149261*
X150718Y185000*
X185315*
X55433Y196535D02*
X178376D01*
X179912Y195000*
X185315*
X50394Y191496D02*
X176378D01*
X210000Y190750D02*
X213250D01*
X221125Y182875*
X226810*
X234685Y175000*
Y195000D02*
X253307Y176378D01*
X280665*
X285940Y181654*
X307402*
X180515Y201254D02*
Y210200D01*
X185315Y215000*
X180515Y201254D02*
X181769Y200000D01*
X188861*
X190115Y198746*
Y181254*
X229885Y200200D02*
Y191113D01*
X232885Y186800*
X234137Y185000*
X234685*
X229885Y200200D02*
X243313D01*
X249570Y206457*
X267087*
X234685Y205000D02*
X243313D01*
X250070Y211757*
X277165*
X297269Y191654*
X307402*
X210000Y209250D02*
X220835D01*
X229885Y200200*
X234685Y215000D02*
X257132D01*
X258825Y216693*
X277165*
X292283Y201575*
X301923*
X302002Y201654*
X307402*
X234685Y225000D02*
X294055D01*
X307402Y211654*
X56900Y230000D02*
X57154D01*
X60472Y226682*
Y224369*
X68148Y216693*
X95748*
X63100Y230000D02*
X76900D01*
X77154*
X80630Y226524*
Y224290*
X83188Y221732*
X127660*
X130927Y225000*
X185315*
X83100Y230000D02*
X188861D01*
X193115Y225746*
Y178000*
X83100Y230000D02*
Y235401D01*
X85867Y238168*
X31067Y242258D02*
X36474Y236850D01*
X55995*
X62846Y230000*
X63100*
X91067Y242258D02*
X98325Y235000D01*
X185315*
X234685Y245000D02*
X249593D01*
X254593Y240000*
X270000*
X276929Y246929*
X294169*
X301098Y240000*
X320000*
X51067Y252258D02*
X57365Y257058D01*
X222627*
X234685Y245000*
X81067Y252258D02*
X85867Y247458D01*
Y238168*
X91067Y252258D02*
X96067Y247258D01*
X145556*
X147814Y245000*
X185315*
X0Y0D02*
M02*
