*
*
G04 PADS 9.3.1 Build Number: 456998 generated Gerber (RS-274-X) file*
G04 PC Version=2.1*
*
%IN "ArmControl.pcb"*%
*
%MOIN*%
*
%FSLAX35Y35*%
*
*
*
*
G04 PC Standard Apertures*
*
*
G04 Thermal Relief Aperture macro.*
%AMTER*
1,1,$1,0,0*
1,0,$1-$2,0,0*
21,0,$3,$4,0,0,45*
21,0,$3,$4,0,0,135*
%
*
*
G04 Annular Aperture macro.*
%AMANN*
1,1,$1,0,0*
1,0,$2,0,0*
%
*
*
G04 Odd Aperture macro.*
%AMODD*
1,1,$1,0,0*
1,0,$1-0.005,0,0*
%
*
*
G04 PC Custom Aperture Macros*
*
*
*
*
*
*
G04 PC Aperture Table*
*
%ADD010C,0.001*%
%ADD011C,0.01*%
%ADD012C,0.005*%
%ADD033C,0.006*%
%ADD040C,0.00787*%
*
*
*
*
G04 PC Circuitry*
G04 Layer Name ArmControl.pcb - circuitry*
%LPD*%
*
*
G04 PC Custom Flashes*
G04 Layer Name ArmControl.pcb - flashes*
%LPD*%
*
*
G04 PC Circuitry*
G04 Layer Name ArmControl.pcb - circuitry*
%LPD*%
*
G54D10*
G54D11*
G01X58800Y43500D02*
X53000D01*
Y36500*
X58800*
X61200Y43500D02*
X67000D01*
Y36500*
X61200*
X38800Y43500D02*
X33000D01*
Y36500*
X38800*
X41200Y43500D02*
X47000D01*
Y36500*
X41200*
X18800Y43500D02*
X13000D01*
Y36500*
X18800*
X21200Y43500D02*
X27000D01*
Y36500*
X21200*
X201750Y193750D02*
Y185700D01*
X218250*
Y193750*
X201750Y206250D02*
Y214300D01*
X218250*
Y206250*
X81200Y226500D02*
X87000D01*
Y233500*
X81200*
X78800Y226500D02*
X73000D01*
Y233500*
X78800*
X58800D02*
X53000D01*
Y226500*
X58800*
X61200Y233500D02*
X67000D01*
Y226500*
X61200*
X201750Y83750D02*
Y75700D01*
X218250*
Y83750*
X201750Y96250D02*
Y104300D01*
X218250*
Y96250*
X78800Y43500D02*
X73000D01*
Y36500*
X78800*
X81200Y43500D02*
X87000D01*
Y36500*
X81200*
X16482Y152704D02*
X16027Y152392D01*
X15573Y151767*
X15345Y151142*
X15118Y150204*
Y148642*
X15345Y147704*
X15573Y147079*
X16027Y146454*
X16482Y146142*
X17391*
X17845Y146454*
X18300Y147079*
X18527Y147704*
X18754Y148642*
Y150204*
X18527Y151142*
X18300Y151767*
X17845Y152392*
X17391Y152704*
X16482*
X20800Y150517D02*
Y146142D01*
Y148642D02*
X21027Y149579D01*
X21482Y150204*
X21936Y150517*
X22618*
X24664Y148642D02*
X27391D01*
Y149267*
X27164Y149892*
X26936Y150204*
X26482Y150517*
X25800*
X25345Y150204*
X24891Y149579*
X24664Y148642*
Y148017*
X24891Y147079*
X25345Y146454*
X25800Y146142*
X26482*
X26936Y146454*
X27391Y147079*
X32164Y150517D02*
Y145517D01*
X31936Y144579*
X31709Y144267*
X31254Y143954*
X30573*
X30118Y144267*
X32164Y149579D02*
X31709Y150204D01*
X31254Y150517*
X30573*
X30118Y150204*
X29664Y149579*
X29436Y148642*
Y148017*
X29664Y147079*
X30118Y146454*
X30573Y146142*
X31254*
X31709Y146454*
X32164Y147079*
X35345Y150517D02*
X34891Y150204D01*
X34436Y149579*
X34209Y148642*
Y148017*
X34436Y147079*
X34891Y146454*
X35345Y146142*
X36027*
X36482Y146454*
X36936Y147079*
X37164Y148017*
Y148642*
X36936Y149579*
X36482Y150204*
X36027Y150517*
X35345*
X39209D02*
Y146142D01*
Y149267D02*
X39891Y150204D01*
X40345Y150517*
X41027*
X41482Y150204*
X41709Y149267*
Y146142*
X52164Y151767D02*
X51709Y152392D01*
X51027Y152704*
X50118*
X49436Y152392*
X48982Y151767*
Y151142*
X49209Y150517*
X49436Y150204*
X49891Y149892*
X51254Y149267*
X51709Y148954*
X51936Y148642*
X52164Y148017*
Y147079*
X51709Y146454*
X51027Y146142*
X50118*
X49436Y146454*
X48982Y147079*
X54891Y152704D02*
Y147392D01*
X55118Y146454*
X55573Y146142*
X56027*
X54209Y150517D02*
X55800D01*
X60800D02*
Y146142D01*
Y149579D02*
X60345Y150204D01*
X59891Y150517*
X59209*
X58754Y150204*
X58300Y149579*
X58073Y148642*
Y148017*
X58300Y147079*
X58754Y146454*
X59209Y146142*
X59891*
X60345Y146454*
X60800Y147079*
X63527Y152704D02*
Y147392D01*
X63754Y146454*
X64209Y146142*
X64664*
X62845Y150517D02*
X64436D01*
X66709Y148642D02*
X69436D01*
Y149267*
X69209Y149892*
X68982Y150204*
X68527Y150517*
X67845*
X67391Y150204*
X66936Y149579*
X66709Y148642*
Y148017*
X66936Y147079*
X67391Y146454*
X67845Y146142*
X68527*
X68982Y146454*
X69436Y147079*
X76709Y152704D02*
Y146142D01*
Y152704D02*
X78527Y146142D01*
X80345Y152704D02*
X78527Y146142D01*
X80345Y152704D02*
Y146142D01*
X85118Y150517D02*
Y146142D01*
Y149579D02*
X84664Y150204D01*
X84209Y150517*
X83527*
X83073Y150204*
X82618Y149579*
X82391Y148642*
Y148017*
X82618Y147079*
X83073Y146454*
X83527Y146142*
X84209*
X84664Y146454*
X85118Y147079*
X87164Y150517D02*
Y146142D01*
Y148642D02*
X87391Y149579D01*
X87845Y150204*
X88300Y150517*
X88982*
X93527Y149579D02*
X93300Y150204D01*
X92618Y150517*
X91936*
X91254Y150204*
X91027Y149579*
X91254Y148954*
X91709Y148642*
X92845Y148329*
X93300Y148017*
X93527Y147392*
Y147079*
X93300Y146454*
X92618Y146142*
X91936*
X91254Y146454*
X91027Y147079*
X100800Y152704D02*
Y146142D01*
Y152704D02*
X102845D01*
X103527Y152392*
X103754Y152079*
X103982Y151454*
Y150829*
X103754Y150204*
X103527Y149892*
X102845Y149579*
X100800*
X102391D02*
X103982Y146142D01*
X107164Y150517D02*
X106709Y150204D01*
X106254Y149579*
X106027Y148642*
Y148017*
X106254Y147079*
X106709Y146454*
X107164Y146142*
X107845*
X108300Y146454*
X108754Y147079*
X108982Y148017*
Y148642*
X108754Y149579*
X108300Y150204*
X107845Y150517*
X107164*
X111027D02*
X112391Y146142D01*
X113754Y150517D02*
X112391Y146142D01*
X115800Y148642D02*
X118527D01*
Y149267*
X118300Y149892*
X118073Y150204*
X117618Y150517*
X116936*
X116482Y150204*
X116027Y149579*
X115800Y148642*
Y148017*
X116027Y147079*
X116482Y146454*
X116936Y146142*
X117618*
X118073Y146454*
X118527Y147079*
X120573Y150517D02*
Y146142D01*
Y148642D02*
X120800Y149579D01*
X121254Y150204*
X121709Y150517*
X122391*
X16936Y142625D02*
X15118Y136063D01*
X16936Y142625D02*
X18754Y136063D01*
X15800Y138250D02*
X18073D01*
X20800Y140438D02*
Y136063D01*
Y138563D02*
X21027Y139500D01*
X21482Y140125*
X21936Y140438*
X22618*
X24664D02*
Y136063D01*
Y139188D02*
X25345Y140125D01*
X25800Y140438*
X26482*
X26936Y140125*
X27164Y139188*
Y136063*
Y139188D02*
X27845Y140125D01*
X28300Y140438*
X28982*
X29436Y140125*
X29664Y139188*
Y136063*
X35118Y141063D02*
X34891Y141688D01*
X34436Y142313*
X33982Y142625*
X33073*
X32618Y142313*
X32164Y141688*
X31936Y141063*
X31709Y140125*
Y138563*
X31936Y137625*
X32164Y137000*
X32618Y136375*
X33073Y136063*
X33982*
X34436Y136375*
X34891Y137000*
X35118Y137625*
X38300Y140438D02*
X37845Y140125D01*
X37391Y139500*
X37164Y138563*
Y137938*
X37391Y137000*
X37845Y136375*
X38300Y136063*
X38982*
X39436Y136375*
X39891Y137000*
X40118Y137938*
Y138563*
X39891Y139500*
X39436Y140125*
X38982Y140438*
X38300*
X42164D02*
Y136063D01*
Y139188D02*
X42845Y140125D01*
X43300Y140438*
X43982*
X44436Y140125*
X44664Y139188*
Y136063*
X47391Y142625D02*
Y137313D01*
X47618Y136375*
X48073Y136063*
X48527*
X46709Y140438D02*
X48300D01*
X50573D02*
Y136063D01*
Y138563D02*
X50800Y139500D01*
X51254Y140125*
X51709Y140438*
X52391*
X55573D02*
X55118Y140125D01*
X54664Y139500*
X54436Y138563*
Y137938*
X54664Y137000*
X55118Y136375*
X55573Y136063*
X56254*
X56709Y136375*
X57164Y137000*
X57391Y137938*
Y138563*
X57164Y139500*
X56709Y140125*
X56254Y140438*
X55573*
X59436Y142625D02*
Y136063D01*
X66709Y142625D02*
Y136063D01*
Y142625D02*
X68754D01*
X69436Y142313*
X69664Y142000*
X69891Y141375*
Y140750*
X69664Y140125*
X69436Y139813*
X68754Y139500*
X66709D02*
X68754D01*
X69436Y139188*
X69664Y138875*
X69891Y138250*
Y137313*
X69664Y136688*
X69436Y136375*
X68754Y136063*
X66709*
X73073Y140438D02*
X72618Y140125D01*
X72164Y139500*
X71936Y138563*
Y137938*
X72164Y137000*
X72618Y136375*
X73073Y136063*
X73754*
X74209Y136375*
X74664Y137000*
X74891Y137938*
Y138563*
X74664Y139500*
X74209Y140125*
X73754Y140438*
X73073*
X79664D02*
Y136063D01*
Y139500D02*
X79209Y140125D01*
X78754Y140438*
X78073*
X77618Y140125*
X77164Y139500*
X76936Y138563*
Y137938*
X77164Y137000*
X77618Y136375*
X78073Y136063*
X78754*
X79209Y136375*
X79664Y137000*
X81709Y140438D02*
Y136063D01*
Y138563D02*
X81936Y139500D01*
X82391Y140125*
X82845Y140438*
X83527*
X88300Y142625D02*
Y136063D01*
Y139500D02*
X87845Y140125D01*
X87391Y140438*
X86709*
X86254Y140125*
X85800Y139500*
X85573Y138563*
Y137938*
X85800Y137000*
X86254Y136375*
X86709Y136063*
X87391*
X87845Y136375*
X88300Y137000*
X95573Y142625D02*
Y136063D01*
Y142625D02*
X97618D01*
X98300Y142313*
X98527Y142000*
X98754Y141375*
Y140750*
X98527Y140125*
X98300Y139813*
X97618Y139500*
X95573*
X97164D02*
X98754Y136063D01*
X100800Y138563D02*
X103527D01*
Y139188*
X103300Y139813*
X103073Y140125*
X102618Y140438*
X101936*
X101482Y140125*
X101027Y139500*
X100800Y138563*
Y137938*
X101027Y137000*
X101482Y136375*
X101936Y136063*
X102618*
X103073Y136375*
X103527Y137000*
X105573Y140438D02*
X106936Y136063D01*
X108300Y140438D02*
X106936Y136063D01*
X115573Y141375D02*
X116027Y141688D01*
X116709Y142625*
Y136063*
X118982Y136688D02*
X118754Y136375D01*
X118982Y136063*
X119209Y136375*
X118982Y136688*
X122618Y142625D02*
X121936Y142313D01*
X121482Y141375*
X121254Y139813*
Y138875*
X121482Y137313*
X121936Y136375*
X122618Y136063*
X123073*
X123754Y136375*
X124209Y137313*
X124436Y138875*
Y139813*
X124209Y141375*
X123754Y142313*
X123073Y142625*
X122618*
X18300Y131609D02*
X17845Y132234D01*
X17164Y132547*
X16254*
X15573Y132234*
X15118Y131609*
Y130984*
X15345Y130359*
X15573Y130047*
X16027Y129734*
X17391Y129109*
X17845Y128797*
X18073Y128484*
X18300Y127859*
Y126922*
X17845Y126297*
X17164Y125984*
X16254*
X15573Y126297*
X15118Y126922*
X23073Y129422D02*
X22618Y130047D01*
X22164Y130359*
X21482*
X21027Y130047*
X20573Y129422*
X20345Y128484*
Y127859*
X20573Y126922*
X21027Y126297*
X21482Y125984*
X22164*
X22618Y126297*
X23073Y126922*
X25118Y132547D02*
Y125984D01*
Y129109D02*
X25800Y130047D01*
X26254Y130359*
X26936*
X27391Y130047*
X27618Y129109*
Y125984*
X29664Y128484D02*
X32391D01*
Y129109*
X32164Y129734*
X31936Y130047*
X31482Y130359*
X30800*
X30345Y130047*
X29891Y129422*
X29664Y128484*
Y127859*
X29891Y126922*
X30345Y126297*
X30800Y125984*
X31482*
X31936Y126297*
X32391Y126922*
X34436Y130359D02*
Y125984D01*
Y129109D02*
X35118Y130047D01*
X35573Y130359*
X36254*
X36709Y130047*
X36936Y129109*
Y125984*
Y129109D02*
X37618Y130047D01*
X38073Y130359*
X38754*
X39209Y130047*
X39436Y129109*
Y125984*
X44209Y130359D02*
Y125984D01*
Y129422D02*
X43754Y130047D01*
X43300Y130359*
X42618*
X42164Y130047*
X41709Y129422*
X41482Y128484*
Y127859*
X41709Y126922*
X42164Y126297*
X42618Y125984*
X43300*
X43754Y126297*
X44209Y126922*
X46936Y132547D02*
Y127234D01*
X47164Y126297*
X47618Y125984*
X48073*
X46254Y130359D02*
X47845D01*
X50118Y132547D02*
X50345Y132234D01*
X50573Y132547*
X50345Y132859*
X50118Y132547*
X50345Y130359D02*
Y125984D01*
X55345Y129422D02*
X54891Y130047D01*
X54436Y130359*
X53754*
X53300Y130047*
X52845Y129422*
X52618Y128484*
Y127859*
X52845Y126922*
X53300Y126297*
X53754Y125984*
X54436*
X54891Y126297*
X55345Y126922*
X57618Y130359D02*
X57391Y130047D01*
X57618Y129734*
X57845Y130047*
X57618Y130359*
Y126609D02*
X57391Y126297D01*
X57618Y125984*
X57845Y126297*
X57618Y126609*
X65118Y132547D02*
Y125984D01*
Y132547D02*
X68300Y125984D01*
Y132547D02*
Y125984D01*
X70345Y132547D02*
X70573Y132234D01*
X70800Y132547*
X70573Y132859*
X70345Y132547*
X70573Y130359D02*
Y125984D01*
X75573Y129422D02*
X75118Y130047D01*
X74664Y130359*
X73982*
X73527Y130047*
X73073Y129422*
X72845Y128484*
Y127859*
X73073Y126922*
X73527Y126297*
X73982Y125984*
X74664*
X75118Y126297*
X75573Y126922*
X77618Y132547D02*
Y125984D01*
X79891Y130359D02*
X77618Y127234D01*
X78527Y128484D02*
X80118Y125984D01*
X87391Y132547D02*
Y125984D01*
Y132547D02*
X89209Y125984D01*
X91027Y132547D02*
X89209Y125984D01*
X91027Y132547D02*
Y125984D01*
X95800Y129422D02*
X95345Y130047D01*
X94891Y130359*
X94209*
X93754Y130047*
X93300Y129422*
X93073Y128484*
Y127859*
X93300Y126922*
X93754Y126297*
X94209Y125984*
X94891*
X95345Y126297*
X95800Y126922*
X101254Y130984D02*
X101027Y131609D01*
X100573Y132234*
X100118Y132547*
X99209*
X98754Y132234*
X98300Y131609*
X98073Y130984*
X97845Y130047*
Y128484*
X98073Y127547*
X98300Y126922*
X98754Y126297*
X99209Y125984*
X100118*
X100573Y126297*
X101027Y126922*
X101254Y127547*
X104436Y130359D02*
X103982Y130047D01*
X103527Y129422*
X103300Y128484*
Y127859*
X103527Y126922*
X103982Y126297*
X104436Y125984*
X105118*
X105573Y126297*
X106027Y126922*
X106254Y127859*
Y128484*
X106027Y129422*
X105573Y130047*
X105118Y130359*
X104436*
X108300D02*
Y125984D01*
Y129109D02*
X108982Y130047D01*
X109436Y130359*
X110118*
X110573Y130047*
X110800Y129109*
Y125984*
Y129109D02*
X111482Y130047D01*
X111936Y130359*
X112618*
X113073Y130047*
X113300Y129109*
Y125984*
X115345Y132547D02*
Y125984D01*
Y129422D02*
X115800Y130047D01*
X116254Y130359*
X116936*
X117391Y130047*
X117845Y129422*
X118073Y128484*
Y127859*
X117845Y126922*
X117391Y126297*
X116936Y125984*
X116254*
X115800Y126297*
X115345Y126922*
X15118Y122468D02*
Y115906D01*
X17845*
X22618Y120281D02*
Y115906D01*
Y119343D02*
X22164Y119968D01*
X21709Y120281*
X21027*
X20573Y119968*
X20118Y119343*
X19891Y118406*
Y117781*
X20118Y116843*
X20573Y116218*
X21027Y115906*
X21709*
X22164Y116218*
X22618Y116843*
X24891Y120281D02*
X26254Y115906D01*
X27618Y120281D02*
X26254Y115906D01*
X25800Y114656*
X25345Y114031*
X24891Y113718*
X24664*
X30800Y120281D02*
X30345Y119968D01*
X29891Y119343*
X29664Y118406*
Y117781*
X29891Y116843*
X30345Y116218*
X30800Y115906*
X31482*
X31936Y116218*
X32391Y116843*
X32618Y117781*
Y118406*
X32391Y119343*
X31936Y119968*
X31482Y120281*
X30800*
X34664D02*
Y117156D01*
X34891Y116218*
X35345Y115906*
X36027*
X36482Y116218*
X37164Y117156*
Y120281D02*
Y115906D01*
X39891Y122468D02*
Y117156D01*
X40118Y116218*
X40573Y115906*
X41027*
X39209Y120281D02*
X40800D01*
X43300D02*
X43073Y119968D01*
X43300Y119656*
X43527Y119968*
X43300Y120281*
Y116531D02*
X43073Y116218D01*
X43300Y115906*
X43527Y116218*
X43300Y116531*
X54209Y120906D02*
X53982Y121531D01*
X53527Y122156*
X53073Y122468*
X52164*
X51709Y122156*
X51254Y121531*
X51027Y120906*
X50800Y119968*
Y118406*
X51027Y117468*
X51254Y116843*
X51709Y116218*
X52164Y115906*
X53073*
X53527Y116218*
X53982Y116843*
X54209Y117468*
X57391Y120281D02*
X56936Y119968D01*
X56482Y119343*
X56254Y118406*
Y117781*
X56482Y116843*
X56936Y116218*
X57391Y115906*
X58073*
X58527Y116218*
X58982Y116843*
X59209Y117781*
Y118406*
X58982Y119343*
X58527Y119968*
X58073Y120281*
X57391*
X61254D02*
Y115906D01*
Y118406D02*
X61482Y119343D01*
X61936Y119968*
X62391Y120281*
X63073*
X65118D02*
X66027Y115906D01*
X66936Y120281D02*
X66027Y115906D01*
X66936Y120281D02*
X67845Y115906D01*
X68754Y120281D02*
X67845Y115906D01*
X70800Y122468D02*
X71027Y122156D01*
X71254Y122468*
X71027Y122781*
X70800Y122468*
X71027Y120281D02*
Y115906D01*
X73300Y120281D02*
Y115906D01*
Y119031D02*
X73982Y119968D01*
X74436Y120281*
X75118*
X75573Y119968*
X75800Y119031*
Y115906*
X83073Y122468D02*
Y115906D01*
Y122468D02*
X85118D01*
X85800Y122156*
X86027Y121843*
X86254Y121218*
Y120281*
X86027Y119656*
X85800Y119343*
X85118Y119031*
X83073*
X88300Y118406D02*
X91027D01*
Y119031*
X90800Y119656*
X90573Y119968*
X90118Y120281*
X89436*
X88982Y119968*
X88527Y119343*
X88300Y118406*
Y117781*
X88527Y116843*
X88982Y116218*
X89436Y115906*
X90118*
X90573Y116218*
X91027Y116843*
X93073Y120281D02*
Y115906D01*
Y118406D02*
X93300Y119343D01*
X93754Y119968*
X94209Y120281*
X94891*
X96936D02*
Y115906D01*
Y118406D02*
X97164Y119343D01*
X97618Y119968*
X98073Y120281*
X98754*
X100800Y118406D02*
X103527D01*
Y119031*
X103300Y119656*
X103073Y119968*
X102618Y120281*
X101936*
X101482Y119968*
X101027Y119343*
X100800Y118406*
Y117781*
X101027Y116843*
X101482Y116218*
X101936Y115906*
X102618*
X103073Y116218*
X103527Y116843*
X105573Y120281D02*
Y115906D01*
Y119031D02*
X106254Y119968D01*
X106709Y120281*
X107391*
X107845Y119968*
X108073Y119031*
Y115906*
X17391Y112389D02*
X15118Y108014D01*
X18527*
X17391Y112389D02*
Y105827D01*
X24664Y113639D02*
X20573Y103639D01*
X29436Y111452D02*
X29209Y112077D01*
X28527Y112389*
X28073*
X27391Y112077*
X26936Y111139*
X26709Y109577*
Y108014*
X26936Y106764*
X27391Y106139*
X28073Y105827*
X28300*
X28982Y106139*
X29436Y106764*
X29664Y107702*
Y108014*
X29436Y108952*
X28982Y109577*
X28300Y109889*
X28073*
X27391Y109577*
X26936Y108952*
X26709Y108014*
X35800Y113639D02*
X31709Y103639D01*
X38073Y110827D02*
Y111139D01*
X38300Y111764*
X38527Y112077*
X38982Y112389*
X39891*
X40345Y112077*
X40573Y111764*
X40800Y111139*
Y110514*
X40573Y109889*
X40118Y108952*
X37845Y105827*
X41027*
X44436Y112389D02*
X43754Y112077D01*
X43300Y111139*
X43073Y109577*
Y108639*
X43300Y107077*
X43754Y106139*
X44436Y105827*
X44891*
X45573Y106139*
X46027Y107077*
X46254Y108639*
Y109577*
X46027Y111139*
X45573Y112077*
X44891Y112389*
X44436*
X48300Y111139D02*
X48754Y111452D01*
X49436Y112389*
Y105827*
X53754Y112389D02*
X51482Y108014D01*
X54891*
X53754Y112389D02*
Y105827D01*
G54D12*
X227295Y244500D02*
X227409Y244187D01*
X227409D02*
X227636Y243875D01*
X227864Y243719*
X228318*
X228545Y243875*
X228773Y244187*
X228773D02*
X228886Y244500D01*
X229000Y244969*
Y245750*
X228886Y246219*
X228773Y246531*
X228545Y246844*
X228318Y247000*
X227864*
X227636Y246844*
X227409Y246531*
X227295Y246219*
Y245750*
X227864D02*
X227295D01*
X226273Y243719D02*
Y247000D01*
Y243719D02*
X224682Y247000D01*
Y243719D02*
Y247000D01*
X223659Y243719D02*
Y247000D01*
Y243719D02*
X222864D01*
X222523Y243875*
X222295Y244187*
X222295D02*
X222182Y244500D01*
X222068Y244969*
Y245750*
X222182Y246219*
X222295Y246531*
X222523Y246844*
X222864Y247000*
X223659*
X227295Y134500D02*
X227409Y134187D01*
X227409D02*
X227636Y133875D01*
X227864Y133719*
X228318*
X228545Y133875*
X228773Y134187*
X228773D02*
X228886Y134500D01*
X229000Y134969*
Y135750*
X228886Y136219*
X228773Y136531*
X228545Y136844*
X228318Y137000*
X227864*
X227636Y136844*
X227409Y136531*
X227295Y136219*
Y135750*
X227864D02*
X227295D01*
X226273Y133719D02*
Y137000D01*
Y133719D02*
X224682Y137000D01*
Y133719D02*
Y137000D01*
X223659Y133719D02*
Y137000D01*
Y133719D02*
X222864D01*
X222523Y133875*
X222295Y134187*
X222295D02*
X222182Y134500D01*
X222068Y134969*
Y135750*
X222182Y136219*
X222295Y136531*
X222523Y136844*
X222864Y137000*
X223659*
X119130Y10277D02*
Y7934D01*
X119244Y7465*
X119471Y7152*
X119812Y6996*
X120039*
X120380Y7152*
X120607Y7465*
X120721Y7934*
Y10277*
X122880D02*
X121744Y8090D01*
X123448*
X122880Y10277D02*
Y6996D01*
X120945Y255250D02*
Y252906D01*
X121059Y252437*
X121286Y252125*
X121627Y251969*
X121854*
X122195Y252125*
X122422Y252437*
X122536Y252906*
Y255250*
X125036D02*
X123899D01*
X123786Y253844*
X123899Y254000*
X124240Y254156*
X124581*
X124922Y254000*
X125149Y253687*
X125263Y253219*
X125149Y252906*
X125036Y252437*
X124809Y252125*
X124468Y251969*
X124127*
X123786Y252125*
X123672Y252281*
X123559Y252594*
X55433Y53675D02*
Y50394D01*
Y53675D02*
X56456D01*
X56797Y53519*
X56910Y53362*
X57024Y53050*
Y52737*
X56910Y52425*
X56797Y52269*
X56456Y52112*
X55433*
X56229D02*
X57024Y50394D01*
X58047Y53050D02*
X58274Y53206D01*
X58615Y53675*
Y50394*
X35276Y53675D02*
Y50394D01*
Y53675D02*
X36298D01*
X36639Y53519*
X36753Y53362*
X36866Y53050*
X36866D02*
Y52737D01*
X36866D02*
X36753Y52425D01*
X36639Y52269*
X36298Y52112*
X35276*
X36071D02*
X36866Y50394D01*
X38003Y52894D02*
Y53050D01*
X38116Y53362*
X38116D02*
X38230Y53519D01*
X38457Y53675*
X38912*
X39139Y53519*
X39253Y53362*
X39366Y53050*
X39366D02*
Y52737D01*
X39366D02*
X39253Y52425D01*
X39026Y51956*
X37889Y50394*
X39480*
X15118Y53675D02*
Y50394D01*
Y53675D02*
X16141D01*
X16482Y53519*
X16595Y53362*
X16709Y53050*
Y52737*
X16595Y52425*
X16482Y52269*
X16141Y52112*
X15118*
X15914D02*
X16709Y50394D01*
X17959Y53675D02*
X19209D01*
X18527Y52425*
X18868*
X19095Y52269*
X19209Y52112*
X19323Y51644*
Y51331*
X19209Y50862*
X18982Y50550*
X18641Y50394*
X18300*
X17959Y50550*
X17845Y50706*
X17732Y51019*
X208319Y219193D02*
X208205Y219505D01*
X207978Y219818*
X207751Y219974*
X207296*
X207069Y219818*
X206841Y219505*
X206728Y219193*
X206614Y218724*
Y217943*
X206728Y217474*
X206841Y217162*
X207069Y216849*
X207296Y216693*
X207751*
X207978Y216849*
X208205Y217162*
X208319Y217474*
X209341Y219349D02*
X209569Y219505D01*
X209910Y219974*
Y216693*
X75591Y225014D02*
Y221732D01*
Y225014D02*
X76613D01*
X76954Y224857*
X77068Y224701*
X77181Y224389*
Y224076*
X77068Y223764*
X76954Y223607*
X76613Y223451*
X75591*
X76386D02*
X77181Y221732D01*
X79341Y225014D02*
X78204Y222826D01*
X79909*
X79341Y225014D02*
Y221732D01*
X55433Y225014D02*
Y221732D01*
Y225014D02*
X56456D01*
X56797Y224857*
X56910Y224701*
X57024Y224389*
Y224076*
X56910Y223764*
X56797Y223607*
X56456Y223451*
X55433*
X56229D02*
X57024Y221732D01*
X59524Y225014D02*
X58388D01*
X58274Y223607*
X58388Y223764*
X58729Y223920*
X59069*
X59410Y223764*
X59638Y223451*
X59751Y222982*
X59638Y222670*
X59524Y222201*
X59297Y221889*
X58956Y221732*
X58615*
X58274Y221889*
X58160Y222045*
X58047Y222357*
X208319Y108327D02*
X208205Y108639D01*
X207978Y108952*
X207751Y109108*
X207296*
X207069Y108952*
X206841Y108639*
X206728Y108327*
X206614Y107858*
Y107077*
X206728Y106608*
X206841Y106296*
X207069Y105983*
X207296Y105827*
X207751*
X207978Y105983*
X208205Y106296*
X208319Y106608*
X209455Y108327D02*
Y108483D01*
X209569Y108796*
X209682Y108952*
X209910Y109108*
X210364*
X210591Y108952*
X210705Y108796*
X210819Y108483*
Y108171*
X210705Y107858*
X210478Y107389*
X209341Y105827*
X210932*
X75591Y53675D02*
Y50394D01*
Y53675D02*
X76613D01*
X76954Y53519*
X77068Y53362*
X77181Y53050*
Y52737*
X77068Y52425*
X76954Y52269*
X76613Y52112*
X75591*
X76386D02*
X77181Y50394D01*
X79568Y53206D02*
X79454Y53519D01*
X79113Y53675*
X78886*
X78545Y53519*
X78318Y53050*
X78204Y52269*
Y51487*
X78318Y50862*
X78545Y50550*
X78886Y50394*
X79000*
X79341Y50550*
X79568Y50862*
X79681Y51331*
Y51487*
X79568Y51956*
X79341Y52269*
X79000Y52425*
X78886*
X78545Y52269*
X78318Y51956*
X78204Y51487*
X279705Y87374D02*
X279392Y87260D01*
X279080Y87033*
X278923Y86806*
Y86351*
X279080Y86124*
X279392Y85897*
X279705Y85783*
X280173Y85669*
X280955*
X281423Y85783*
X281736Y85897*
X282048Y86124*
X282205Y86351*
Y86806*
X282048Y87033*
X281736Y87260*
X281423Y87374*
X280955*
Y86806D02*
Y87374D01*
X279705Y208319D02*
X279392Y208205D01*
X279080Y207978*
X278923Y207751*
Y207296*
X279080Y207069*
X279392Y206841*
X279705Y206728*
X280173Y206614*
X280955*
X281423Y206728*
X281736Y206841*
X282048Y207069*
X282205Y207296*
Y207751*
X282048Y207978*
X281736Y208205*
X281423Y208319*
X280955*
Y207751D02*
Y208319D01*
X268791Y229272D02*
X268678Y229584D01*
X268450Y229897*
X268223Y230053*
X267768*
X267541Y229897*
X267314Y229584*
X267200Y229272*
X267087Y228803*
Y228022*
X267200Y227553*
X267314Y227240*
X267541Y226928*
X267768Y226772*
X268223*
X268450Y226928*
X268678Y227240*
X268791Y227553*
Y228022*
X268223D02*
X268791D01*
X319185Y229272D02*
X319071Y229584D01*
X318844Y229897*
X318617Y230053*
X318162*
X317935Y229897*
X317708Y229584*
X317594Y229272*
X317480Y228803*
Y228022*
X317594Y227553*
X317708Y227240*
X317935Y226928*
X318162Y226772*
X318617*
X318844Y226928*
X319071Y227240*
X319185Y227553*
Y228022*
X318617D02*
X319185D01*
X218397Y7539D02*
X218284Y7852D01*
X218057Y8164*
X217829Y8321*
X217375*
X217147Y8164*
X216920Y7852*
X216807Y7539*
X216693Y7071*
Y6289*
X216807Y5821*
X216920Y5508*
X217147Y5196*
X217375Y5039*
X217829*
X218057Y5196*
X218284Y5508*
X218397Y5821*
Y6289*
X217829D02*
X218397D01*
X268791Y7539D02*
X268678Y7852D01*
X268450Y8164*
X268223Y8321*
X267768*
X267541Y8164*
X267314Y7852*
X267200Y7539*
X267087Y7071*
Y6289*
X267200Y5821*
X267314Y5508*
X267541Y5196*
X267768Y5039*
X268223*
X268450Y5196*
X268678Y5508*
X268791Y5821*
Y6289*
X268223D02*
X268791D01*
X319185Y7539D02*
X319071Y7852D01*
X318844Y8164*
X318617Y8321*
X318162*
X317935Y8164*
X317708Y7852*
X317594Y7539*
X317480Y7071*
Y6289*
X317594Y5821*
X317708Y5508*
X317935Y5196*
X318162Y5039*
X318617*
X318844Y5196*
X319071Y5508*
X319185Y5821*
Y6289*
X318617D02*
X319185D01*
X228363Y7852D02*
X228135Y8164D01*
X227794Y8321*
X227340*
X226999Y8164*
X226772Y7852*
Y7539*
X226885Y7227*
X226999Y7071*
X227226Y6914*
X227908Y6602*
X228135Y6446*
X228249Y6289*
X228363Y5977*
Y5508*
X228135Y5196*
X227794Y5039*
X227340*
X226999Y5196*
X226772Y5508*
X229385Y8321D02*
X229499Y8164D01*
X229613Y8321*
X229499Y8477*
X229385Y8321*
X229499Y7227D02*
Y5039D01*
X231999Y7227D02*
Y4727D01*
X231885Y4258*
X231772Y4102*
X231544Y3946*
X231203*
X230976Y4102*
X231999Y6758D02*
X231772Y7071D01*
X231544Y7227*
X231203*
X230976Y7071*
X230749Y6758*
X230635Y6289*
Y5977*
X230749Y5508*
X230976Y5196*
X231203Y5039*
X231544*
X231772Y5196*
X231999Y5508*
X278756Y7852D02*
X278529Y8164D01*
X278188Y8321*
X277734*
X277393Y8164*
X277165Y7852*
Y7539*
X277279Y7227*
X277393Y7071*
X277620Y6914*
X278302Y6602*
X278529Y6446*
X278643Y6289*
X278756Y5977*
Y5508*
X278529Y5196*
X278188Y5039*
X277734*
X277393Y5196*
X277165Y5508*
X279779Y8321D02*
X279893Y8164D01*
X280006Y8321*
X279893Y8477*
X279779Y8321*
X279893Y7227D02*
Y5039D01*
X282393Y7227D02*
Y4727D01*
X282279Y4258*
X282165Y4102*
X281938Y3946*
X281597*
X281370Y4102*
X282393Y6758D02*
X282165Y7071D01*
X281938Y7227*
X281597*
X281370Y7071*
X281143Y6758*
X281029Y6289*
Y5977*
X281143Y5508*
X281370Y5196*
X281597Y5039*
X281938*
X282165Y5196*
X282393Y5508*
X328355Y8321D02*
Y5039D01*
X327559Y8321D02*
X329150D01*
X330173D02*
X331764Y5039D01*
Y8321D02*
X330173Y5039D01*
X279392Y72142D02*
X279080Y71915D01*
X278923Y71574*
Y71119*
X279080Y70778*
X279392Y70551*
X279705*
X280017Y70665*
X280173Y70778*
X280330Y71006*
X280642Y71688*
X280798Y71915*
X280955Y72028*
X281267Y72142*
X281736*
X282048Y71915*
X282205Y71574*
Y71119*
X282048Y70778*
X281736Y70551*
X278923Y73165D02*
X279080Y73278D01*
X278923Y73392*
X278767Y73278*
X278923Y73165*
X280017Y73278D02*
X282205D01*
X280017Y75778D02*
X282517D01*
X282986Y75665*
X283142Y75551*
X283298Y75324*
Y74983*
X283142Y74756*
X280486Y75778D02*
X280173Y75551D01*
X280017Y75324*
Y74983*
X280173Y74756*
X280486Y74528*
X280955Y74415*
X281267*
X281736Y74528*
X282048Y74756*
X282205Y74983*
Y75324*
X282048Y75551*
X281736Y75778*
X279392Y193087D02*
X279080Y192860D01*
X278923Y192519*
Y192064*
X279080Y191723*
X279392Y191496*
X279705*
X280017Y191610*
X280173Y191723*
X280330Y191951*
X280642Y192632*
X280798Y192860*
X280955Y192973*
X281267Y193087*
X281736*
X282048Y192860*
X282205Y192519*
Y192064*
X282048Y191723*
X281736Y191496*
X278923Y194110D02*
X279080Y194223D01*
X278923Y194337*
X278767Y194223*
X278923Y194110*
X280017Y194223D02*
X282205D01*
X280017Y196723D02*
X282517D01*
X282986Y196610*
X283142Y196496*
X283298Y196269*
Y195928*
X283142Y195701*
X280486Y196723D02*
X280173Y196496D01*
X280017Y196269*
Y195928*
X280173Y195701*
X280486Y195473*
X280955Y195360*
X281267*
X281736Y195473*
X282048Y195701*
X282205Y195928*
Y196269*
X282048Y196496*
X281736Y196723*
X278756Y229584D02*
X278529Y229897D01*
X278188Y230053*
X277734*
X277393Y229897*
X277165Y229584*
Y229272*
X277279Y228959*
X277393Y228803*
X277620Y228647*
X278302Y228334*
X278529Y228178*
X278643Y228022*
X278756Y227709*
Y227240*
X278529Y226928*
X278188Y226772*
X277734*
X277393Y226928*
X277165Y227240*
X279779Y230053D02*
X279893Y229897D01*
X280006Y230053*
X279893Y230209*
X279779Y230053*
X279893Y228959D02*
Y226772D01*
X282393Y228959D02*
Y226459D01*
X282279Y225990*
X282165Y225834*
X281938Y225678*
X281597*
X281370Y225834*
X282393Y228490D02*
X282165Y228803D01*
X281938Y228959*
X281597*
X281370Y228803*
X281143Y228490*
X281029Y228022*
Y227709*
X281143Y227240*
X281370Y226928*
X281597Y226772*
X281938*
X282165Y226928*
X282393Y227240*
X329150Y229584D02*
X328923Y229897D01*
X328582Y230053*
X328127*
X327786Y229897*
X327559Y229584*
Y229272*
X327673Y228959*
X327786Y228803*
X328014Y228647*
X328695Y228334*
X328923Y228178*
X329036Y228022*
X329150Y227709*
Y227240*
X328923Y226928*
X328582Y226772*
X328127*
X327786Y226928*
X327559Y227240*
X330173Y230053D02*
X330286Y229897D01*
X330400Y230053*
X330286Y230209*
X330173Y230053*
X330286Y228959D02*
Y226772D01*
X332786Y228959D02*
Y226459D01*
X332673Y225990*
X332559Y225834*
X332332Y225678*
X331991*
X331764Y225834*
X332786Y228490D02*
X332559Y228803D01*
X332332Y228959*
X331991*
X331764Y228803*
X331536Y228490*
X331423Y228022*
Y227709*
X331536Y227240*
X331764Y226928*
X331991Y226772*
X332332*
X332559Y226928*
X332786Y227240*
X279392Y177401D02*
X282205D01*
X280798Y176378D02*
Y178423D01*
X278923Y179446D02*
X282205Y180355D01*
X278923Y181264D02*
X282205Y180355D01*
X279392Y56456D02*
X282205D01*
X280798Y55433D02*
Y57479D01*
X278923Y58501D02*
X282205Y59410D01*
X278923Y60319D02*
X282205Y59410D01*
X319238Y55433D02*
X322520D01*
X319238D02*
Y56456D01*
X319395Y56797*
X319551Y56910*
X319863Y57024*
X320176*
X320488Y56910*
X320645Y56797*
X320801Y56456*
Y55433D02*
Y56456D01*
X320957Y56797*
X321113Y56910*
X321426Y57024*
X321895*
X322207Y56910*
X322363Y56797*
X322520Y56456*
Y55433*
X320020Y58160D02*
X319863D01*
X319551Y58274*
X319395Y58388*
X319238Y58615*
Y59069*
X319395Y59297*
X319551Y59410*
X319863Y59524*
X320176*
X320488Y59410*
X320957Y59183*
X322520Y58047*
Y59638*
X319238Y181417D02*
X322520D01*
X319238D02*
Y182440D01*
X319395Y182781*
X319551Y182895*
X319863Y183008*
X320176*
X320488Y182895*
X320645Y182781*
X320801Y182440*
Y181417D02*
Y182440D01*
X320957Y182781*
X321113Y182895*
X321426Y183008*
X321895*
X322207Y182895*
X322363Y182781*
X322520Y182440*
Y181417*
X320020Y184145D02*
X319863D01*
X319551Y184258*
X319395Y184372*
X319238Y184599*
Y185054*
X319395Y185281*
X319551Y185395*
X319863Y185508*
X320176*
X320488Y185395*
X320957Y185167*
X322520Y184031*
Y185622*
X319238Y70551D02*
X322520D01*
X319238D02*
Y71574D01*
X319395Y71915*
X319551Y72028*
X319863Y72142*
X320176*
X320488Y72028*
X320645Y71915*
X320801Y71574*
Y70551D02*
Y71574D01*
X320957Y71915*
X321113Y72028*
X321426Y72142*
X321895*
X322207Y72028*
X322363Y71915*
X322520Y71574*
Y70551*
X319863Y73165D02*
X319707Y73392D01*
X319238Y73733*
X322520*
X319238Y191496D02*
X322520D01*
X319238D02*
Y192519D01*
X319395Y192860*
X319551Y192973*
X319863Y193087*
X320176*
X320488Y192973*
X320645Y192860*
X320801Y192519*
Y191496D02*
Y192519D01*
X320957Y192860*
X321113Y192973*
X321426Y193087*
X321895*
X322207Y192973*
X322363Y192860*
X322520Y192519*
Y191496*
X319863Y194110D02*
X319707Y194337D01*
X319238Y194678*
X322520*
X319238Y81539D02*
X322520Y80630D01*
X319238Y81539D02*
X322520Y82448D01*
X321426Y80971D02*
Y82107D01*
X319863Y83471D02*
X319707Y83698D01*
X319238Y84039*
X322520*
X319238Y202484D02*
X322520Y201575D01*
X319238Y202484D02*
X322520Y203393D01*
X321426Y201916D02*
Y203052D01*
X319863Y204416D02*
X319707Y204643D01*
X319238Y204984*
X322520*
X319238Y91618D02*
X322520Y90709D01*
X319238Y91618D02*
X322520Y92527D01*
X321426Y91050D02*
Y92186D01*
X320020Y93663D02*
X319863D01*
X319551Y93777*
X319395Y93890*
X319238Y94118*
Y94572*
X319395Y94800*
X319551Y94913*
X319863Y95027*
X320176*
X320488Y94913*
X320957Y94686*
X322520Y93550*
Y95140*
X319238Y212563D02*
X322520Y211654D01*
X319238Y212563D02*
X322520Y213472D01*
X321426Y211994D02*
Y213131D01*
X320020Y214608D02*
X319863D01*
X319551Y214722*
X319395Y214835*
X319238Y215063*
Y215517*
X319395Y215744*
X319551Y215858*
X319863Y215972*
X320176*
X320488Y215858*
X320957Y215631*
X322520Y214494*
Y216085*
G54D33*
X319867Y36975D02*
X319526Y37443D01*
X319014Y37678*
X318333*
X317821Y37443*
X317480Y36975*
Y36506*
X317651Y36037*
X317821Y35803*
X318162Y35568*
X319185Y35100*
X319526Y34865*
X319696Y34631*
X319867Y34162*
Y33459*
X319526Y32990*
X319014Y32756*
X318333*
X317821Y32990*
X317480Y33459*
X323446Y36037D02*
Y32756D01*
Y35334D02*
X323105Y35803D01*
X322764Y36037*
X322253*
X321912Y35803*
X321571Y35334*
X321401Y34631*
Y34162*
X321571Y33459*
X321912Y32990*
X322253Y32756*
X322764*
X323105Y32990*
X323446Y33459*
X324980Y37678D02*
Y32756D01*
Y35334D02*
X325321Y35803D01*
X325662Y36037*
X326173*
X326514Y35803*
X326855Y35334*
X327026Y34631*
Y34162*
X326855Y33459*
X326514Y32990*
X326173Y32756*
X325662*
X325321Y32990*
X324980Y33459*
X328560Y34631D02*
X330605D01*
Y35100*
X330435Y35568*
X330264Y35803*
X329923Y36037*
X329412*
X329071Y35803*
X328730Y35334*
X328560Y34631*
Y34162*
X328730Y33459*
X329071Y32990*
X329412Y32756*
X329923*
X330264Y32990*
X330605Y33459*
X332139Y36037D02*
Y32756D01*
Y34631D02*
X332310Y35334D01*
X332651Y35803*
X332992Y36037*
X333503*
X264567Y37678D02*
Y32756D01*
X266612*
X268146Y37678D02*
X268317Y37443D01*
X268487Y37678*
X268317Y37912*
X268146Y37678*
X268317Y36037D02*
Y32756D01*
X270021Y36037D02*
Y32756D01*
Y35100D02*
X270533Y35803D01*
X270874Y36037*
X271385*
X271726Y35803*
X271896Y35100*
Y32756*
Y35100D02*
X272408Y35803D01*
X272749Y36037*
X273260*
X273601Y35803*
X273771Y35100*
Y32756*
X275306Y37678D02*
X275476Y37443D01*
X275646Y37678*
X275476Y37912*
X275306Y37678*
X275476Y36037D02*
Y32756D01*
X277692Y37678D02*
Y33693D01*
X277862Y32990*
X278203Y32756*
X278544*
X277181Y36037D02*
X278374D01*
X285703Y37678D02*
X283999Y34397D01*
X286556*
X285703Y37678D02*
Y32756D01*
X214173Y37678D02*
Y32756D01*
X216219*
X217753Y37678D02*
X217923Y37443D01*
X218094Y37678*
X217923Y37912*
X217753Y37678*
X217923Y36037D02*
Y32756D01*
X219628Y36037D02*
Y32756D01*
Y35100D02*
X220139Y35803D01*
X220480Y36037*
X220991*
X221332Y35803*
X221503Y35100*
Y32756*
Y35100D02*
X222014Y35803D01*
X222355Y36037*
X222866*
X223207Y35803*
X223378Y35100*
Y32756*
X224912Y37678D02*
X225082Y37443D01*
X225253Y37678*
X225082Y37912*
X224912Y37678*
X225082Y36037D02*
Y32756D01*
X227298Y37678D02*
Y33693D01*
X227469Y32990*
X227810Y32756*
X228151*
X226787Y36037D02*
X227980D01*
X233946Y37678D02*
X235821D01*
X234798Y35803*
X235310*
X235651Y35568*
X235651D02*
X235821Y35334D01*
X235991Y34631*
Y34162*
X235821Y33459*
X235480Y32990*
X234969Y32756*
X234457*
X233946Y32990*
X233776Y33225*
X233776D02*
X233605Y33693D01*
X327559Y156103D02*
Y151181D01*
Y156103D02*
X329093D01*
X329605Y155869*
X329775Y155634*
X329945Y155165*
Y154462*
X329775Y153994*
X329605Y153759*
X329093Y153525*
X327559*
X332332Y154462D02*
X331991Y154228D01*
X331650Y153759*
X331480Y153056*
Y152587*
X331650Y151884*
X331991Y151415*
X332332Y151181*
X332843*
X333184Y151415*
X333525Y151884*
X333695Y152587*
Y153056*
X333525Y153759*
X333184Y154228*
X332843Y154462*
X332332*
X335230D02*
X335911Y151181D01*
X336593Y154462D02*
X335911Y151181D01*
X336593Y154462D02*
X337275Y151181D01*
X337957Y154462D02*
X337275Y151181D01*
X339491Y153056D02*
X341536D01*
Y153525*
X341366Y153994*
X341195Y154228*
X340855Y154462*
X340343*
X340002Y154228*
X339661Y153759*
X339491Y153056*
Y152587*
X339661Y151884*
X340002Y151415*
X340343Y151181*
X340855*
X341195Y151415*
X341536Y151884*
X343070Y154462D02*
Y151181D01*
Y153056D02*
X343241Y153759D01*
X343582Y154228*
X343923Y154462*
X344434*
X290584Y183804D02*
X290116Y183463D01*
X289881Y182951*
Y182270*
X290116Y181758*
X290584Y181417*
X291053*
X291522Y181588*
X291756Y181758*
X291991Y182099*
X292459Y183122*
X292694Y183463*
X292928Y183633*
X293397Y183804*
X294100*
X294569Y183463*
X294803Y182951*
Y182270*
X294569Y181758*
X294100Y181417*
X289881Y185849D02*
X293866D01*
X294569Y186020*
X294803Y186361*
Y186701*
X291522Y185338D02*
Y186531D01*
X292928Y188236D02*
Y190281D01*
X292459*
X291991Y190111*
X291756Y189940*
X291522Y189599*
Y189088*
X291756Y188747*
X292225Y188406*
X292928Y188236*
X293397*
X294100Y188406*
X294569Y188747*
X294803Y189088*
Y189599*
X294569Y189940*
X294100Y190281*
X291522Y191815D02*
X296444D01*
X292225D02*
X291756Y192156D01*
X291522Y192497*
Y193008*
X291756Y193349*
X292225Y193690*
X292928Y193861*
X293397*
X294100Y193690*
X294569Y193349*
X294803Y193008*
Y192497*
X294569Y192156*
X294100Y191815*
X290819Y199315D02*
X290584Y199656D01*
X289881Y200167*
X294803*
X289881Y206645D02*
X290116Y206304D01*
X290584Y205963*
X291053Y205792*
X291756Y205622*
X292928*
X293631Y205792*
X294100Y205963*
X294569Y206304*
X294803Y206645*
Y207326*
X294569Y207667*
X294100Y208008*
X293631Y208179*
X292928Y208349*
X291756*
X291053Y208179*
X290584Y208008*
X290116Y207667*
X289881Y207326*
Y206645*
X291522Y209883D02*
X293866D01*
X294569Y210054*
X294803Y210395*
Y210906*
X294569Y211247*
X293866Y211758*
X291522D02*
X294803D01*
X289881Y213804D02*
X293866D01*
X294569Y213974*
X294803Y214315*
Y214656*
X291522Y213292D02*
Y214486D01*
X290584Y60339D02*
X290116Y59998D01*
X289881Y59487*
Y58805*
X290116Y58294*
X290584Y57953*
X291053*
X291522Y58123*
X291756Y58294*
X291991Y58635*
X292459Y59657*
X292694Y59998*
X292928Y60169*
X293397Y60339*
X294100*
X294569Y59998*
X294803Y59487*
Y58805*
X294569Y58294*
X294100Y57953*
X289881Y62385D02*
X293866D01*
X294569Y62555*
X294803Y62896*
Y63237*
X291522Y61873D02*
Y63066D01*
X292928Y64771D02*
Y66816D01*
X292459*
X291991Y66646*
X291756Y66475*
X291522Y66135*
Y65623*
X291756Y65282*
X292225Y64941*
X292928Y64771*
X293397*
X294100Y64941*
X294569Y65282*
X294803Y65623*
Y66135*
X294569Y66475*
X294100Y66816*
X291522Y68350D02*
X296444D01*
X292225D02*
X291756Y68691D01*
X291522Y69032*
Y69544*
X291756Y69885*
X292225Y70225*
X292928Y70396*
X293397*
X294100Y70225*
X294569Y69885*
X294803Y69544*
Y69032*
X294569Y68691*
X294100Y68350*
X291053Y76021D02*
X290819D01*
X290350Y76191*
X290116Y76362*
X289881Y76703*
Y77385*
X290116Y77725*
X290350Y77896*
X290819Y78066*
X291288*
X291756Y77896*
X292459Y77555*
X294803Y75850*
Y78237*
X289881Y84714D02*
X290116Y84373D01*
X290584Y84032*
X291053Y83862*
X291756Y83691*
X292928*
X293631Y83862*
X294100Y84032*
X294569Y84373*
X294803Y84714*
Y85396*
X294569Y85737*
X294100Y86078*
X293631Y86248*
X292928Y86419*
X291756*
X291053Y86248*
X290584Y86078*
X290116Y85737*
X289881Y85396*
Y84714*
X291522Y87953D02*
X293866D01*
X294569Y88123*
X294803Y88464*
Y88975*
X294569Y89316*
X293866Y89828*
X291522D02*
X294803D01*
X289881Y91873D02*
X293866D01*
X294569Y92044*
X294803Y92385*
Y92725*
X291522Y91362D02*
Y92555D01*
X250269Y60339D02*
X249801Y59998D01*
X249566Y59487*
Y58805*
X249801Y58294*
X250269Y57953*
X250738*
X251207Y58123*
X251441Y58294*
X251676Y58635*
X252144Y59657*
X252379Y59998*
X252613Y60169*
X253082Y60339*
X253785*
X254254Y59998*
X254488Y59487*
Y58805*
X254254Y58294*
X253785Y57953*
X249566Y62385D02*
X253551D01*
X254254Y62555*
X254488Y62896*
Y63237*
X251207Y61873D02*
Y63066D01*
X252613Y64771D02*
Y66816D01*
X252144*
X251676Y66646*
X251441Y66475*
X251207Y66135*
Y65623*
X251441Y65282*
X251910Y64941*
X252613Y64771*
X253082*
X253785Y64941*
X254254Y65282*
X254488Y65623*
Y66135*
X254254Y66475*
X253785Y66816*
X251207Y68350D02*
X256129D01*
X251910D02*
X251441Y68691D01*
X251207Y69032*
Y69544*
X251441Y69885*
X251910Y70225*
X252613Y70396*
X253082*
X253785Y70225*
X254254Y69885*
X254488Y69544*
Y69032*
X254254Y68691*
X253785Y68350*
X250738Y76021D02*
X250504D01*
X250035Y76191*
X249801Y76362*
X249566Y76703*
Y77385*
X249801Y77725*
X250035Y77896*
X250504Y78066*
X250973*
X251441Y77896*
X252144Y77555*
X254488Y75850*
Y78237*
X249566Y83691D02*
X254488D01*
X249566D02*
Y85225D01*
X249801Y85737*
X250035Y85907*
X250504Y86078*
X251207*
X251676Y85907*
X251910Y85737*
X252144Y85225*
Y83691*
X249566Y88635D02*
X249801Y88294D01*
X250269Y87953*
X250738Y87782*
X251441Y87612*
X252613*
X253316Y87782*
X253785Y87953*
X254254Y88294*
X254488Y88635*
Y89316*
X254254Y89657*
X253785Y89998*
X253316Y90169*
X252613Y90339*
X251441*
X250738Y90169*
X250269Y89998*
X249801Y89657*
X249566Y89316*
Y88635*
Y93066D02*
X254488D01*
X249566Y91873D02*
Y94260D01*
X250269Y183804D02*
X249801Y183463D01*
X249566Y182951*
Y182270*
X249801Y181758*
X250269Y181417*
X250738*
X251207Y181588*
X251441Y181758*
X251676Y182099*
X252144Y183122*
X252379Y183463*
X252613Y183633*
X253082Y183804*
X253785*
X254254Y183463*
X254488Y182951*
Y182270*
X254254Y181758*
X253785Y181417*
X249566Y185849D02*
X253551D01*
X254254Y186020*
X254488Y186361*
Y186701*
X251207Y185338D02*
Y186531D01*
X252613Y188236D02*
Y190281D01*
X252144*
X251676Y190111*
X251441Y189940*
X251207Y189599*
Y189088*
X251441Y188747*
X251910Y188406*
X252613Y188236*
X253082*
X253785Y188406*
X254254Y188747*
X254488Y189088*
Y189599*
X254254Y189940*
X253785Y190281*
X251207Y191815D02*
X256129D01*
X251910D02*
X251441Y192156D01*
X251207Y192497*
Y193008*
X251441Y193349*
X251910Y193690*
X252613Y193861*
X253082*
X253785Y193690*
X254254Y193349*
X254488Y193008*
Y192497*
X254254Y192156*
X253785Y191815*
X250504Y199315D02*
X250269Y199656D01*
X249566Y200167*
X254488*
X249566Y205622D02*
X254488D01*
X249566D02*
Y207156D01*
X249801Y207667*
X250035Y207838*
X250504Y208008*
X251207*
X251676Y207838*
X251910Y207667*
X252144Y207156*
Y205622*
X249566Y210565D02*
X249801Y210224D01*
X250269Y209883*
X250738Y209713*
X251441Y209542*
X252613*
X253316Y209713*
X253785Y209883*
X254254Y210224*
X254488Y210565*
Y211247*
X254254Y211588*
X253785Y211929*
X253316Y212099*
X252613Y212270*
X251441*
X250738Y212099*
X250269Y211929*
X249801Y211588*
X249566Y211247*
Y210565*
Y214997D02*
X254488D01*
X249566Y213804D02*
Y216190D01*
X264567Y256890D02*
Y251969D01*
X266612*
X268146Y256890D02*
X268317Y256656D01*
X268487Y256890*
X268317Y257125*
X268146Y256890*
X268317Y255250D02*
Y251969D01*
X270021Y255250D02*
Y251969D01*
Y254312D02*
X270533Y255015D01*
X270874Y255250*
X271385*
X271726Y255015*
X271896Y254312*
Y251969*
Y254312D02*
X272408Y255015D01*
X272749Y255250*
X273260*
X273601Y255015*
X273771Y254312*
Y251969*
X275306Y256890D02*
X275476Y256656D01*
X275646Y256890*
X275476Y257125*
X275306Y256890*
X275476Y255250D02*
Y251969D01*
X277692Y256890D02*
Y252906D01*
X277862Y252203*
X278203Y251969*
X278544*
X277181Y255250D02*
X278374D01*
X283999Y255953D02*
X284340Y256187D01*
X284851Y256890*
Y251969*
X314961Y256890D02*
Y251969D01*
X317006*
X318540Y256890D02*
X318711Y256656D01*
X318881Y256890*
X318711Y257125*
X318540Y256890*
X318711Y255250D02*
Y251969D01*
X320415Y255250D02*
Y251969D01*
Y254312D02*
X320927Y255015D01*
X321267Y255250*
X321779*
X322120Y255015*
X322290Y254312*
Y251969*
Y254312D02*
X322802Y255015D01*
X323142Y255250*
X323654*
X323995Y255015*
X324165Y254312*
Y251969*
X325699Y256890D02*
X325870Y256656D01*
X326040Y256890*
X325870Y257125*
X325699Y256890*
X325870Y255250D02*
Y251969D01*
X328086Y256890D02*
Y252906D01*
X328256Y252203*
X328597Y251969*
X328938*
X327574Y255250D02*
X328767D01*
X334563Y255719D02*
Y255953D01*
X334733Y256422*
X334904Y256656*
X335245Y256890*
X335927*
X336267Y256656*
X336438Y256422*
X336608Y255953*
Y255484*
X336438Y255015*
X336097Y254312*
X334392Y251969*
X336779*
G54D40*
X230307Y170000D02*
X212538D01*
Y175000*
X207462*
Y170000*
X189693*
Y250000*
X230307*
Y170000*
Y60000D02*
X212538D01*
Y65000*
X207462*
Y60000*
X189693*
Y140000*
X230307*
Y60000*
X0Y0D02*
M02*
